<svg width="20" height="20" viewBox="0 0 20 20" fill="none" xmlns="http://www.w3.org/2000/svg">
<path d="M5.58334 7.71667L10 10.275L14.3833 7.73334" stroke="#0E183B" stroke-width="1.5" stroke-linecap="round" stroke-linejoin="round"/>
<path d="M10 14.8083V10.2667" stroke="#0E183B" stroke-width="1.5" stroke-linecap="round" stroke-linejoin="round"/>
<path d="M8.96667 5.24169L6.29999 6.72502C5.69999 7.05836 5.19998 7.90002 5.19998 8.59169V11.4167C5.19998 12.1084 5.69165 12.95 6.29999 13.2834L8.96667 14.7667C9.53333 15.0834 10.4667 15.0834 11.0417 14.7667L13.7083 13.2834C14.3083 12.95 14.8083 12.1084 14.8083 11.4167V8.58336C14.8083 7.89169 14.3167 7.05002 13.7083 6.71669L11.0417 5.23335C10.4667 4.91669 9.53333 4.91669 8.96667 5.24169Z" stroke="#0E183B" stroke-width="1.5" stroke-linecap="round" stroke-linejoin="round"/>
<path d="M18.3333 12.5C18.3333 15.725 15.725 18.3333 12.5 18.3333L13.375 16.875" stroke="#0E183B" stroke-width="1.5" stroke-linecap="round" stroke-linejoin="round"/>
<path d="M1.66666 7.50002C1.66666 4.27502 4.27499 1.66669 7.49999 1.66669L6.625 3.12502" stroke="#0E183B" stroke-width="1.5" stroke-linecap="round" stroke-linejoin="round"/>
</svg>
