<svg width="32" height="32" viewBox="0 0 32 32" fill="none" xmlns="http://www.w3.org/2000/svg">
<path d="M22.6665 26.6663C23.3737 26.6663 24.052 26.3854 24.5521 25.8853C25.0522 25.3852 25.3332 24.7069 25.3332 23.9997C25.3332 23.2924 25.0522 22.6142 24.5521 22.1141C24.052 21.614 23.3737 21.333 22.6665 21.333C21.9593 21.333 21.281 21.614 20.7809 22.1141C20.2808 22.6142 19.9998 23.2924 19.9998 23.9997C19.9998 24.7069 20.2808 25.3852 20.7809 25.8853C21.281 26.3854 21.9593 26.6663 22.6665 26.6663ZM9.33317 26.6663C10.0404 26.6663 10.7187 26.3854 11.2188 25.8853C11.7189 25.3852 11.9998 24.7069 11.9998 23.9997C11.9998 23.2924 11.7189 22.6142 11.2188 22.1141C10.7187 21.614 10.0404 21.333 9.33317 21.333C8.62593 21.333 7.94765 21.614 7.44755 22.1141C6.94746 22.6142 6.6665 23.2924 6.6665 23.9997C6.6665 24.7069 6.94746 25.3852 7.44755 25.8853C7.94765 26.3854 8.62593 26.6663 9.33317 26.6663Z" stroke="white" stroke-width="1.5" stroke-linecap="round" stroke-linejoin="round"/>
<path d="M25.3332 14.6663H29.3332M29.3332 14.6663V17.333C29.3332 20.4757 29.3332 22.0463 28.3572 23.0237C27.7078 23.673 26.7958 23.8903 25.3332 23.9623M29.3332 14.6663L27.6318 11.5063C26.7118 9.79701 26.2518 8.94234 25.4612 8.47167C24.6718 7.99967 23.7025 7.99967 21.7612 7.99967H19.3332M6.6665 23.9623C5.20384 23.8903 4.29317 23.673 3.6425 23.0237C2.6665 22.0463 2.6665 20.4757 2.6665 17.333V11.9997C2.6665 8.85701 2.6665 7.28501 3.6425 6.30901C4.6185 5.33301 6.1905 5.33301 9.33317 5.33301H13.7332C15.2225 5.33301 15.9665 5.33301 16.5692 5.52901C17.1695 5.72408 17.7151 6.05844 18.1614 6.50477C18.6077 6.95109 18.9421 7.49671 19.1372 8.09701C19.3332 8.69967 19.3332 9.44367 19.3332 10.933C19.3332 12.5597 19.3332 13.3743 18.8878 13.925C18.7998 14.0335 18.7012 14.1321 18.5918 14.221C18.0412 14.6663 17.2278 14.6663 15.5998 14.6663H10.6665M19.9998 23.9997H11.9998" stroke="white" stroke-width="1.5" stroke-linecap="round" stroke-linejoin="round"/>
<path d="M13.3332 17.3333C13.3332 17.3333 12.4372 16.592 11.6492 15.888C11.0932 15.44 10.6665 15.0573 10.6665 14.6733C10.6665 14.3333 10.9998 14.0173 11.5412 13.5213C12.3092 12.8827 13.3332 12 13.3332 12" stroke="white" stroke-width="1.5" stroke-linecap="round" stroke-linejoin="round"/>
</svg>
