<svg width="32" height="32" viewBox="0 0 32 32" fill="none" xmlns="http://www.w3.org/2000/svg">
<path d="M15.6534 23.6671H23.5467C23.4267 23.7738 23.3067 23.8672 23.1867 23.9738L17.4933 28.2405C15.6133 29.6405 12.5467 29.6405 10.6534 28.2405L4.9467 23.9738C3.69336 23.0405 2.66669 20.9738 2.66669 19.4138V9.5338C2.66669 7.90713 3.9067 6.10713 5.4267 5.5338L12.0667 3.04047C13.16 2.62714 14.9734 2.62714 16.0667 3.04047L22.6934 5.5338C23.96 6.0138 25.04 7.34714 25.3734 8.70714H15.64C15.3467 8.70714 15.08 8.72048 14.8267 8.72048C12.36 8.86715 11.72 9.76046 11.72 12.5738V19.8138C11.7333 22.8804 12.52 23.6671 15.6534 23.6671Z" stroke="white" stroke-width="1.5" stroke-linecap="round" stroke-linejoin="round"/>
<path d="M11.7333 14.9609H29.3333" stroke="white" stroke-width="1.5" stroke-miterlimit="10" stroke-linecap="round" stroke-linejoin="round"/>
<path d="M29.3333 12.5607V19.9607C29.3067 22.9207 28.4933 23.654 25.4133 23.654H15.6533C12.52 23.654 11.7333 22.8673 11.7333 19.7873V12.5473C11.7333 9.74732 12.3733 8.85397 14.84 8.69397C15.0933 8.69397 15.36 8.68066 15.6533 8.68066H25.4133C28.5467 8.694 29.3333 9.46734 29.3333 12.5607Z" stroke="white" stroke-width="1.5" stroke-linecap="round" stroke-linejoin="round"/>
<path d="M15.0934 20.3477H16.8667" stroke="white" stroke-width="1.5" stroke-miterlimit="10" stroke-linecap="round" stroke-linejoin="round"/>
<path d="M19.6667 20.3477H24.0267" stroke="white" stroke-width="1.5" stroke-miterlimit="10" stroke-linecap="round" stroke-linejoin="round"/>
</svg>
