<svg width="20" height="20" viewBox="0 0 20 20" fill="none" xmlns="http://www.w3.org/2000/svg">
<g clip-path="url(#clip0_192_2122)">
<path d="M16.6113 9.46854C16.4219 9.46854 16.2402 9.39328 16.1062 9.25933C15.9723 9.12537 15.897 8.94369 15.897 8.75425V6.73711C15.897 3.87997 13.257 1.59425 10.0113 1.59425C6.76559 1.59425 4.12559 3.90854 4.12559 6.73711V8.75425C4.12559 8.94369 4.05034 9.12537 3.91638 9.25933C3.78243 9.39328 3.60075 9.46854 3.41131 9.46854C3.22187 9.46854 3.04019 9.39328 2.90623 9.25933C2.77228 9.12537 2.69702 8.94369 2.69702 8.75425V6.73711C2.69702 3.10282 5.98274 0.142822 10.0113 0.142822C14.0399 0.142822 17.3256 3.10282 17.3256 6.73711V8.75425C17.3264 8.84826 17.3084 8.94149 17.2728 9.02849C17.2371 9.1155 17.1846 9.19454 17.1181 9.26102C17.0516 9.3275 16.9726 9.38009 16.8856 9.41572C16.7985 9.45134 16.7053 9.4693 16.6113 9.46854Z" fill="#00B6A9"/>
<path d="M14.68 16.1886C14.4906 16.1886 14.3089 16.1133 14.1749 15.9794C14.041 15.8454 13.9657 15.6637 13.9657 15.4743V8.69143C13.9717 8.50598 14.0495 8.33011 14.1828 8.20106C14.3162 8.07201 14.4945 7.99991 14.68 8C17.1429 8 19.1486 9.84571 19.1486 12.1086C19.1486 14.3714 17.1429 16.1886 14.68 16.1886ZM15.3943 9.48V14.6857C16.0197 14.5822 16.5908 14.2678 17.0128 13.7949C17.4348 13.3219 17.6824 12.7188 17.7143 12.0857C17.6836 11.4516 17.4367 10.8472 17.0145 10.3731C16.5924 9.89895 16.0206 9.58376 15.3943 9.48ZM5.32001 16.1886C2.85716 16.1886 0.85144 14.3486 0.85144 12.0857C0.85144 9.82286 2.85716 8 5.32001 8C5.50945 8 5.69113 8.07525 5.82509 8.20921C5.95904 8.34316 6.0343 8.52485 6.0343 8.71429V15.4743C6.0343 15.6637 5.95904 15.8454 5.82509 15.9794C5.69113 16.1133 5.50945 16.1886 5.32001 16.1886ZM4.60573 9.48C3.97944 9.58376 3.40761 9.89895 2.98547 10.3731C2.56334 10.8472 2.31638 11.4516 2.28573 12.0857C2.31765 12.7188 2.56518 13.3219 2.9872 13.7949C3.40923 14.2678 3.98036 14.5822 4.60573 14.6857V9.48Z" fill="#00B6A9"/>
<path d="M14.4457 18.5143H12.08C11.8906 18.5143 11.7089 18.439 11.5749 18.3051C11.441 18.1711 11.3657 17.9894 11.3657 17.8C11.3657 17.6105 11.441 17.4289 11.5749 17.2949C11.7089 17.161 11.8906 17.0857 12.08 17.0857H14.4457C14.8155 17.0857 15.1702 16.9388 15.4316 16.6773C15.6931 16.4158 15.84 16.0612 15.84 15.6914V15.3771C15.84 15.1877 15.9153 15.006 16.0492 14.8721C16.1832 14.7381 16.3649 14.6628 16.5543 14.6628C16.7437 14.6628 16.9254 14.7381 17.0594 14.8721C17.1933 15.006 17.2686 15.1877 17.2686 15.3771V15.6914C17.2686 16.4401 16.9712 17.1581 16.4418 17.6875C15.9124 18.2169 15.1944 18.5143 14.4457 18.5143Z" fill="#00B6A9"/>
<path d="M10.8572 19.8571H9.44574C8.92743 19.8571 8.43035 19.6512 8.06385 19.2847C7.69735 18.9182 7.49146 18.4211 7.49146 17.9028V17.8228C7.49297 17.3055 7.69953 16.8099 8.06587 16.4446C8.4322 16.0794 8.92842 15.8743 9.44574 15.8743H10.8572C11.374 15.8743 11.8696 16.0796 12.235 16.445C12.6004 16.8104 12.8057 17.306 12.8057 17.8228V17.9028C12.8057 18.4202 12.6006 18.9164 12.2354 19.2827C11.8701 19.649 11.3745 19.8556 10.8572 19.8571ZM9.45717 17.3028C9.31873 17.3028 9.18587 17.3574 9.08744 17.4548C8.98901 17.5521 8.93296 17.6844 8.93146 17.8228V17.9028C8.93146 18.0423 8.98684 18.176 9.08543 18.2746C9.18402 18.3732 9.31774 18.4286 9.45717 18.4286H10.8572C10.9956 18.427 11.1279 18.371 11.2252 18.2726C11.3226 18.1741 11.3772 18.0413 11.3772 17.9028V17.8228C11.3772 17.6849 11.3224 17.5527 11.2249 17.4551C11.1273 17.3576 10.9951 17.3028 10.8572 17.3028H9.45717Z" fill="#00B6A9"/>
</g>
<defs>
<clipPath id="clip0_192_2122">
<rect width="20" height="20" fill="white"/>
</clipPath>
</defs>
</svg>
