<svg width="28" height="28" viewBox="0 0 28 28" fill="none" xmlns="http://www.w3.org/2000/svg">
<path fill-rule="evenodd" clip-rule="evenodd" d="M10.9787 12.0927L12.0721 10.9567L8.17739 7.06332L8.04805 6.88199L6.21472 3.09799L2.86006 1.47266L1.47339 2.85932L3.12539 6.23932L6.88005 8.04732L7.06272 8.17666L10.9787 12.0927ZM18.0481 14.8767L14.8481 18.0193L23.1281 26.2993C23.2531 26.4243 23.4226 26.4945 23.5994 26.4945C23.7762 26.4945 23.9457 26.4243 24.0707 26.2993L26.2987 24.07C26.4237 23.945 26.4939 23.7754 26.4939 23.5987C26.4939 23.4219 26.4237 23.2523 26.2987 23.1273L18.0481 14.8767Z" stroke="white"/>
<path fill-rule="evenodd" clip-rule="evenodd" d="M1.2453 22.7436C0.992231 21.799 0.992457 20.8044 1.24595 19.8599C1.49945 18.9155 1.99726 18.0545 2.6893 17.3636C3.38049 16.6715 4.24174 16.1737 5.18641 15.9202C6.13108 15.6668 7.12584 15.6665 8.07063 15.9196L16.464 7.52623C16.2105 6.58157 16.2104 5.5868 16.4636 4.64209C16.7169 3.69738 17.2146 2.83607 17.9066 2.14489C18.598 1.45355 19.4591 0.956393 20.4035 0.703384C21.3479 0.450375 22.3423 0.450436 23.2866 0.703559L20.9013 3.08756L20.8146 7.00756L24.7 6.88756L27.1626 4.42623C27.4599 5.37797 27.4962 6.39209 27.2677 7.36264C27.0391 8.33319 26.5541 9.22457 25.8634 9.94365C25.1726 10.6627 24.3015 11.1831 23.3409 11.4505C22.3803 11.7179 21.3656 11.7224 20.4026 11.4636L12.0066 19.8596C12.2654 20.8225 12.2609 21.8372 11.9936 22.7978C11.7262 23.7584 11.2058 24.6296 10.4867 25.3203C9.76764 26.0111 8.87627 26.496 7.90571 26.7246C6.93516 26.9531 5.92104 26.9169 4.9693 26.6196L7.43196 24.1569L7.55196 20.2716L3.63196 20.3582L1.2453 22.7436Z" stroke="white" stroke-linecap="round" stroke-linejoin="round"/>
</svg>
