<svg width="20" height="20" viewBox="0 0 20 20" fill="none" xmlns="http://www.w3.org/2000/svg">
<path fill-rule="evenodd" clip-rule="evenodd" d="M16.9083 5.83369L12.275 2.40869C10.9197 1.41927 9.08026 1.41927 7.72496 2.40869L3.09996 5.83369C2.20449 6.47881 1.67171 7.5134 1.66663 8.61703V14.8087C1.71665 16.8031 3.37217 18.3803 5.36663 18.3337H14.6333C16.6278 18.3803 18.2833 16.8031 18.3333 14.8087V8.60869C18.3261 7.50983 17.7972 6.47976 16.9083 5.83369ZM17.0833 14.8087C17.0336 16.1128 15.9375 17.1306 14.6333 17.0837H5.36663C4.06411 17.126 2.97081 16.1108 2.91663 14.8087V8.61703C2.92107 7.90863 3.2651 7.24536 3.84163 6.83369L8.46663 3.41703C9.38004 2.75001 10.6199 2.75001 11.5333 3.41703L16.1583 6.84203C16.7343 7.24655 17.079 7.90482 17.0833 8.60869V14.8087ZM6.24996 13.1254H13.75C14.0951 13.1254 14.375 13.4052 14.375 13.7504C14.375 14.0955 14.0951 14.3754 13.75 14.3754H6.24996C5.90478 14.3754 5.62496 14.0955 5.62496 13.7504C5.62496 13.4052 5.90478 13.1254 6.24996 13.1254Z" fill="#00B6A9"/>
</svg>
