<svg width="32" height="35" viewBox="0 0 32 35" fill="none" xmlns="http://www.w3.org/2000/svg">
<path fill-rule="evenodd" clip-rule="evenodd" d="M28.9866 19.6538L29.1733 20.5738C29.3766 21.3597 29.2108 22.1954 28.7229 22.8442C28.235 23.493 27.4781 23.8842 26.6666 23.9071H21.5866C21.5878 26.0652 19.8769 27.8351 17.72 27.9071H6.66664C5.44603 27.8869 4.30147 27.3103 3.55866 26.3415C2.81584 25.3728 2.55609 24.1178 2.85331 22.9338L3.13331 21.6004C3.45889 19.7637 5.04149 18.4159 6.90664 18.3871H17.4933C17.9658 17.8224 18.6637 17.4954 19.4 17.4938H26.4533C27.6987 17.5335 28.7505 18.4303 28.9866 19.6538ZM26.64 21.8938C26.8026 21.8877 26.9542 21.8095 27.0533 21.6804C27.2277 21.5045 27.3155 21.2605 27.2933 21.0138L27.1066 20.0938C27.0705 19.7957 26.8321 19.5628 26.5333 19.5338H19.48C19.3265 19.5348 19.1828 19.6091 19.0933 19.7337C18.711 20.1741 18.1565 20.427 17.5733 20.4271H6.98664C6.07386 20.4493 5.30902 21.1242 5.17331 22.0271L4.89331 23.3604C4.75655 24.0171 4.91767 24.7006 5.33331 25.2271C5.65798 25.6365 6.14456 25.8847 6.66664 25.9071H17.68C18.7531 25.8358 19.5777 24.9287 19.5466 23.8538C19.5684 22.7648 20.4575 21.8935 21.5466 21.8938H26.64Z" fill="white"/>
<path fill-rule="evenodd" clip-rule="evenodd" d="M17.4666 10.6671C17.4666 13.6126 15.0788 16.0004 12.1333 16.0004C9.18779 16.0004 6.79997 13.6126 6.79997 10.6671V8.57375C6.79997 6.09951 8.80574 4.09375 11.28 4.09375H13.0266C15.4852 4.1157 17.4667 6.11505 17.4666 8.57375V10.6671ZM11.28 6.09375C9.91031 6.09375 8.79997 7.20408 8.79997 8.57375L8.83997 10.6671C9.05276 12.346 10.481 13.6046 12.1733 13.6046C13.8656 13.6046 15.2939 12.346 15.5066 10.6671V8.57375C15.5066 7.20408 14.3963 6.09375 13.0266 6.09375H11.28Z" fill="white"/>
<path fill-rule="evenodd" clip-rule="evenodd" d="M27.5733 11.0004C27.5733 13.2096 25.7825 15.0004 23.5733 15.0004C21.3642 15.0004 19.5733 13.2096 19.5733 11.0004V9.46708C19.5731 7.63204 21.0452 6.13621 22.88 6.10708H24.2133C26.069 6.10708 27.5733 7.61141 27.5733 9.46708V11.0004ZM22.9066 8.13375C22.1703 8.13375 21.5733 8.7307 21.5733 9.46708V11.0004C21.5733 12.105 22.4687 13.0004 23.5733 13.0004C24.6779 13.0004 25.5733 12.105 25.5733 11.0004V9.46708C25.5733 8.7307 24.9764 8.13375 24.24 8.13375H22.9066Z" fill="white"/>
<path d="M25.1734 26.873C25.1734 27.5947 24.5884 28.1797 23.8667 28.1797C23.1451 28.1797 22.56 27.5947 22.56 26.873C22.56 26.1514 23.1451 25.5663 23.8667 25.5663C24.5884 25.5663 25.1734 26.1514 25.1734 26.873Z" fill="white"/>
<path fill-rule="evenodd" clip-rule="evenodd" d="M28.8177 24.8202C28.9447 25.1296 29.2456 25.332 29.58 25.333C29.7993 25.333 30.0096 25.4201 30.1646 25.5751C30.3196 25.7302 30.4067 25.9404 30.4067 26.1597V27.5863C30.4067 28.0429 30.0366 28.413 29.58 28.413C29.2456 28.414 28.9447 28.6164 28.8177 28.9258C28.6907 29.2353 28.7627 29.5907 29 29.8263C29.3185 30.1526 29.3185 30.6734 29 30.9997L28 31.9997C27.6737 32.3181 27.153 32.3181 26.8267 31.9997C26.5911 31.7623 26.2356 31.6903 25.9262 31.8173C25.6168 31.9443 25.4143 32.2452 25.4134 32.5797C25.4134 33.0362 25.0433 33.4063 24.5867 33.4063H23.16C22.7035 33.4063 22.3334 33.0362 22.3334 32.5797C22.3324 32.2452 22.13 31.9443 21.8206 31.8173C21.5111 31.6903 21.1557 31.7623 20.92 31.9997C20.5937 32.3181 20.073 32.3181 19.7467 31.9997L18.7467 30.9997C18.4283 30.6734 18.4283 30.1526 18.7467 29.8263C18.9849 29.5898 19.0565 29.2328 18.9278 28.9227C18.7991 28.6127 18.4957 28.4113 18.16 28.413C17.7035 28.413 17.3334 28.0429 17.3334 27.5863V26.1597C17.3334 25.7031 17.7035 25.333 18.16 25.333C18.4945 25.332 18.7954 25.1296 18.9224 24.8202C19.0494 24.5108 18.9774 24.1553 18.74 23.9197C18.4216 23.5934 18.4216 23.0726 18.74 22.7463L19.74 21.7463C20.0663 21.4279 20.5871 21.4279 20.9134 21.7463C21.1499 21.9846 21.5069 22.0561 21.817 21.9274C22.127 21.7988 22.3284 21.4954 22.3267 21.1597C22.3267 20.7031 22.6968 20.333 23.1534 20.333H24.5867C24.806 20.333 25.0162 20.4201 25.1712 20.5751C25.3263 20.7302 25.4134 20.9404 25.4134 21.1597C25.4116 21.4954 25.6131 21.7988 25.9231 21.9274C26.2331 22.0561 26.5902 21.9846 26.8267 21.7463C27.153 21.4279 27.6737 21.4279 28 21.7463L29 22.7463C29.3185 23.0726 29.3185 23.5934 29 23.9197C28.7627 24.1553 28.6907 24.5108 28.8177 24.8202ZM21.56 26.873C21.56 28.1469 22.5928 29.1797 23.8667 29.1797C25.1406 29.1797 26.1734 28.1469 26.1734 26.873C26.1734 25.5991 25.1406 24.5663 23.8667 24.5663C22.5928 24.5663 21.56 25.5991 21.56 26.873Z" fill="white"/>
</svg>
