<svg width="32" height="32" viewBox="0 0 32 32" fill="none" xmlns="http://www.w3.org/2000/svg">
<g clip-path="url(#clip0_192_4047)">
<path d="M29.2687 13.2954H19.075V2.73286C19.075 1.22036 17.85 -0.00463867 16.3375 -0.00463867C14.825 -0.00463867 13.6 1.22036 13.6 2.73286V13.2954H2.725C1.225 13.2954 0 14.5204 0 16.0329C0 17.5454 1.225 18.7704 2.7375 18.7704H13.6125V29.2704C13.6125 30.7829 14.8375 32.0079 16.35 32.0079C17.8625 32.0079 19.0875 30.7829 19.0875 29.2704V18.7704H29.2812C30.7937 18.7704 32.0187 17.5454 32.0187 16.0329C32 14.5204 30.7812 13.2954 29.2687 13.2954Z" fill="#B4B4B4"/>
</g>
<defs>
<clipPath id="clip0_192_4047">
<rect width="32" height="32" fill="white"/>
</clipPath>
</defs>
</svg>
