<svg width="67" height="71" viewBox="0 0 67 71" fill="none" xmlns="http://www.w3.org/2000/svg">
<path d="M54 34L54 42" stroke="#222222" stroke-width="1.2" stroke-linecap="round"/>
<path d="M58 38L50 38" stroke="#222222" stroke-width="1.2" stroke-linecap="round"/>
<path d="M47.022 33.1435C44.7094 36.4581 45.0318 41.0528 47.9894 44.0104C51.3088 47.3298 56.6907 47.3298 60.0102 44.0104C63.3297 40.6909 63.3297 35.309 60.0102 31.9896C57.0527 29.032 52.4579 28.7096 49.1433 31.0222" stroke="#222222" stroke-linecap="round"/>
<rect x="12.5" y="8.875" width="35" height="53.25" rx="2" fill="#7E869E" fill-opacity="0.25"/>
<path d="M23.75 22.1875L36.25 22.1875" stroke="#222222" stroke-linecap="round"/>
<path d="M23.75 31.0625L31.25 31.0625" stroke="#222222" stroke-linecap="round"/>
<path d="M23.75 39.9375L33.75 39.9375" stroke="#222222" stroke-linecap="round"/>
<path d="M23.75 48.8125L31.25 48.8125" stroke="#222222" stroke-linecap="round"/>
<rect x="17.5" y="20.7085" width="2.5" height="2.95833" rx="1.25" fill="#222222"/>
<rect x="17.5" y="29.5835" width="2.5" height="2.95833" rx="1.25" fill="#222222"/>
<rect x="17.5" y="38.4585" width="2.5" height="2.95833" rx="1.25" fill="#222222"/>
<rect x="17.5" y="47.3335" width="2.5" height="2.95833" rx="1.25" fill="#222222"/>
</svg>
