<svg width="17" height="18" viewBox="0 0 17 18" fill="none" xmlns="http://www.w3.org/2000/svg">
<path d="M10.3797 2.95046H5.15966L5.52966 2.58046C5.90836 2.19104 6.05054 1.62917 5.90265 1.1065C5.75475 0.583821 5.33925 0.179751 4.81265 0.0464955C4.28605 -0.0867599 3.72836 0.0710437 3.34966 0.460463L0.429662 3.39046C0.288472 3.53048 0.176326 3.697 0.0996615 3.88046C-0.0332205 4.23165 -0.0332205 4.61928 0.0996615 4.97046C0.172149 5.17384 0.28432 5.3608 0.429662 5.52046L3.34966 8.45046C3.72923 8.84422 4.29205 9.00195 4.82097 8.8628C5.34989 8.72366 5.76222 8.30939 5.89889 7.77982C6.03555 7.25026 5.87519 6.68819 5.47966 6.31046L5.15966 5.95046H10.4297C12.0865 5.95046 13.4297 7.29361 13.4297 8.95046V11.1205C13.4418 12.7007 12.1986 14.0058 10.6197 14.0705H2.61966C1.79123 14.0705 1.11966 14.742 1.11966 15.5705C1.11966 16.3989 1.79123 17.0705 2.61966 17.0705H10.6197C13.8359 16.9782 16.3918 14.338 16.3797 11.1205V8.90046C16.3522 5.6063 13.6739 2.95035 10.3797 2.95046Z" fill="#4A588D"/>
</svg>
