<svg width="32" height="32" viewBox="0 0 32 32" fill="none" xmlns="http://www.w3.org/2000/svg">
<path d="M16 20C18.2091 20 20 18.2091 20 16C20 13.7909 18.2091 12 16 12C13.7909 12 12 13.7909 12 16C12 18.2091 13.7909 20 16 20Z" stroke="#292D32" stroke-width="1.5" stroke-miterlimit="10" stroke-linecap="round" stroke-linejoin="round"/>
<path d="M2.66663 17.1736V14.8269C2.66663 13.4402 3.79996 12.2936 5.19996 12.2936C7.61329 12.2936 8.59996 10.5869 7.38663 8.49357C6.69329 7.29357 7.10663 5.73357 8.31996 5.04024L10.6266 3.72024C11.68 3.09357 13.04 3.46691 13.6666 4.52024L13.8133 4.77357C15.0133 6.86691 16.9866 6.86691 18.2 4.77357L18.3466 4.52024C18.9733 3.46691 20.3333 3.09357 21.3866 3.72024L23.6933 5.04024C24.9066 5.73357 25.32 7.29357 24.6266 8.49357C23.4133 10.5869 24.4 12.2936 26.8133 12.2936C28.2 12.2936 29.3466 13.4269 29.3466 14.8269V17.1736C29.3466 18.5602 28.2133 19.7069 26.8133 19.7069C24.4 19.7069 23.4133 21.4136 24.6266 23.5069C25.32 24.7202 24.9066 26.2669 23.6933 26.9602L21.3866 28.2802C20.3333 28.9069 18.9733 28.5336 18.3466 27.4802L18.2 27.2269C17 25.1336 15.0266 25.1336 13.8133 27.2269L13.6666 27.4802C13.04 28.5336 11.68 28.9069 10.6266 28.2802L8.31996 26.9602C7.10663 26.2669 6.69329 24.7069 7.38663 23.5069C8.59996 21.4136 7.61329 19.7069 5.19996 19.7069C3.79996 19.7069 2.66663 18.5602 2.66663 17.1736Z" stroke="#292D32" stroke-width="1.5" stroke-miterlimit="10" stroke-linecap="round" stroke-linejoin="round"/>
</svg>
