<svg width="20" height="20" viewBox="0 0 20 20" fill="none" xmlns="http://www.w3.org/2000/svg">
<path d="M19.1667 14.925C19.1833 15.55 19.0167 16.1416 18.7167 16.65C18.55 16.95 18.325 17.225 18.075 17.45C17.5 17.9833 16.7416 18.3083 15.9 18.3333C14.6833 18.3583 13.6083 17.7333 13.0167 16.775C12.7 16.2833 12.5083 15.6917 12.5 15.0667C12.475 14.0167 12.9417 13.0666 13.6917 12.4416C14.2583 11.975 14.975 11.6833 15.7583 11.6666C17.6 11.625 19.125 13.0833 19.1667 14.925Z" stroke="#0E183B" stroke-width="1.5" stroke-miterlimit="10" stroke-linecap="round" stroke-linejoin="round"/>
<path d="M14.5333 15.025L15.375 15.825L17.1167 14.1416" stroke="#0E183B" stroke-width="1.5" stroke-linecap="round" stroke-linejoin="round"/>
<path d="M2.64168 6.20001L10 10.4583L17.3083 6.22499" stroke="#0E183B" stroke-width="1.5" stroke-linecap="round" stroke-linejoin="round"/>
<path d="M10 18.0084V10.45" stroke="#0E183B" stroke-width="1.5" stroke-linecap="round" stroke-linejoin="round"/>
<path d="M18.0083 7.64169V12.3584C18.0083 12.4001 18.0083 12.4333 18 12.475C17.4167 11.9667 16.6667 11.6667 15.8333 11.6667C15.05 11.6667 14.325 11.9417 13.75 12.4C12.9833 13.0084 12.5 13.95 12.5 15C12.5 15.625 12.675 16.2167 12.9833 16.7167C13.0583 16.85 13.15 16.975 13.25 17.0917L11.725 17.9334C10.775 18.4667 9.22499 18.4667 8.27499 17.9334L3.825 15.4667C2.81666 14.9084 1.99168 13.5084 1.99168 12.3584V7.64169C1.99168 6.49169 2.81666 5.09171 3.825 4.53337L8.27499 2.06669C9.22499 1.53335 10.775 1.53335 11.725 2.06669L16.175 4.53337C17.1833 5.09171 18.0083 6.49169 18.0083 7.64169Z" stroke="#0E183B" stroke-width="1.5" stroke-linecap="round" stroke-linejoin="round"/>
</svg>
