<svg width="20" height="20" viewBox="0 0 20 20" fill="none" xmlns="http://www.w3.org/2000/svg">
<path d="M2.64166 6.20001L9.99999 10.4583L17.3083 6.22499" stroke="#0E183B" stroke-width="1.5" stroke-linecap="round" stroke-linejoin="round"/>
<path d="M10 18.0084V10.45" stroke="#0E183B" stroke-width="1.5" stroke-linecap="round" stroke-linejoin="round"/>
<path d="M18.0083 7.64169V12.3584C18.0083 12.4001 18.0083 12.4333 18 12.475C17.4167 11.9667 16.6667 11.6667 15.8333 11.6667C15.05 11.6667 14.325 11.9417 13.75 12.4C12.9833 13.0084 12.5 13.95 12.5 15C12.5 15.625 12.675 16.2167 12.9833 16.7167C13.0583 16.85 13.15 16.975 13.25 17.0917L11.725 17.9334C10.775 18.4667 9.22498 18.4667 8.27498 17.9334L3.82499 15.4667C2.81665 14.9084 1.99167 13.5084 1.99167 12.3584V7.64169C1.99167 6.49169 2.81665 5.09171 3.82499 4.53337L8.27498 2.06669C9.22498 1.53335 10.775 1.53335 11.725 2.06669L16.175 4.53337C17.1833 5.09171 18.0083 6.49169 18.0083 7.64169Z" stroke="#0E183B" stroke-width="1.5" stroke-linecap="round" stroke-linejoin="round"/>
<path d="M19.1667 15C19.1667 16 18.725 16.8917 18.0333 17.5C17.4417 18.0167 16.675 18.3334 15.8333 18.3334C13.9917 18.3334 12.5 16.8417 12.5 15C12.5 13.95 12.9833 13.0084 13.75 12.4C14.325 11.9417 15.05 11.6667 15.8333 11.6667C17.675 11.6667 19.1667 13.1584 19.1667 15Z" stroke="#0E183B" stroke-width="1.5" stroke-miterlimit="10" stroke-linecap="round" stroke-linejoin="round"/>
<path d="M16.0417 13.9584V15.2084L15 15.8334" stroke="#0E183B" stroke-width="1.5" stroke-miterlimit="10" stroke-linecap="round" stroke-linejoin="round"/>
</svg>
