<svg width="32" height="32" viewBox="0 0 32 32" fill="none" xmlns="http://www.w3.org/2000/svg">
<g clip-path="url(#clip0_192_3204)">
<path d="M31.4353 21.8354L27.6235 13.4589V6.0707C27.6235 5.78835 27.4353 5.60011 27.1529 5.60011H25.6471V0.941291C25.6471 0.658938 25.4588 0.470703 25.1765 0.470703H18.9176C18.6353 0.470703 18.4471 0.658938 18.4471 0.941291V5.60011H4.84705C4.5647 5.60011 4.37646 5.78835 4.37646 6.0707V13.4119L0.51764 21.9295C0.423522 22.1178 0.470581 22.3531 0.658816 22.4942V31.0589C0.658816 31.3413 0.847052 31.5295 1.1294 31.5295H31.0588C31.3412 31.5295 31.5294 31.3413 31.5294 31.0589V22.1648C31.5294 22.0707 31.5294 21.9766 31.4353 21.8354ZM24.7529 1.41188V9.22365H19.3882V6.02364V1.41188H24.7529ZM18.4471 6.54129V9.74129C18.4471 10.0236 18.6353 10.2119 18.9176 10.2119H25.2235C25.5059 10.2119 25.6941 10.0236 25.6941 9.74129V6.54129H26.7294V13.0825H5.31764V6.54129H18.4471ZM5.1294 14.0236H26.8706L30.3059 21.6472H1.64705L5.1294 14.0236ZM30.5882 30.5884H1.59999V22.5884H30.5882V30.5884Z" fill="#010101"/>
<path d="M7.19996 11.7173H15.9058C16.1882 11.7173 16.3764 11.5291 16.3764 11.2467V8.14083C16.3764 7.85848 16.1882 7.67024 15.9058 7.67024H7.19996C6.91761 7.67024 6.72937 7.85848 6.72937 8.14083V11.2467C6.72937 11.5291 6.96466 11.7173 7.19996 11.7173ZM7.67055 8.61142H15.4353V10.7761H7.67055V8.61142ZM18.9176 11.7173H25.2235C25.5058 11.7173 25.6941 11.5291 25.6941 11.2467C25.6941 10.9644 25.5058 10.7761 25.2235 10.7761H18.9176C18.6353 10.7761 18.447 10.9644 18.447 11.2467C18.447 11.5291 18.6353 11.7173 18.9176 11.7173ZM20.2823 8.09378H21.3176C21.6 8.09378 21.7882 7.90554 21.7882 7.62319C21.7882 7.34083 21.6 7.1526 21.3176 7.1526H20.2823C20 7.1526 19.8117 7.34083 19.8117 7.62319C19.8117 7.90554 20 8.09378 20.2823 8.09378ZM22.8235 8.09378H23.8588C24.1411 8.09378 24.3294 7.90554 24.3294 7.62319C24.3294 7.34083 24.1411 7.1526 23.8588 7.1526H22.8235C22.5411 7.1526 22.3529 7.34083 22.3529 7.62319C22.3529 7.90554 22.5882 8.09378 22.8235 8.09378ZM20.2823 5.78789H21.3176C21.6 5.78789 21.7882 5.59966 21.7882 5.3173C21.7882 5.03495 21.6 4.84671 21.3176 4.84671H20.2823C20 4.84671 19.8117 5.03495 19.8117 5.3173C19.8117 5.59966 20 5.78789 20.2823 5.78789ZM22.8235 5.78789H23.8588C24.1411 5.78789 24.3294 5.59966 24.3294 5.3173C24.3294 5.03495 24.1411 4.84671 23.8588 4.84671H22.8235C22.5411 4.84671 22.3529 5.03495 22.3529 5.3173C22.3529 5.59966 22.5882 5.78789 22.8235 5.78789ZM20.2823 3.52907H21.3176C21.6 3.52907 21.7882 3.34083 21.7882 3.05848C21.7882 2.77613 21.6 2.58789 21.3176 2.58789H20.2823C20 2.58789 19.8117 2.77613 19.8117 3.05848C19.8117 3.34083 20 3.52907 20.2823 3.52907ZM22.8235 3.52907H23.8588C24.1411 3.52907 24.3294 3.34083 24.3294 3.05848C24.3294 2.77613 24.1411 2.58789 23.8588 2.58789H22.8235C22.5411 2.58789 22.3529 2.77613 22.3529 3.05848C22.3529 3.34083 22.5882 3.52907 22.8235 3.52907ZM7.19996 16.8467H24.7529C25.0353 16.8467 25.2235 16.6585 25.2235 16.3761C25.2235 16.0938 25.0353 15.9055 24.7529 15.9055H7.19996C6.91761 15.9055 6.72937 16.0938 6.72937 16.3761C6.72937 16.6585 6.96466 16.8467 7.19996 16.8467ZM24.7529 18.7291H7.19996C6.91761 18.7291 6.72937 18.9173 6.72937 19.1997C6.72937 19.482 6.91761 19.6702 7.19996 19.6702H24.7529C25.0353 19.6702 25.2235 19.482 25.2235 19.1997C25.2235 18.9173 25.0353 18.7291 24.7529 18.7291ZM9.22349 28.6114H22.9647C23.247 28.6114 23.4353 28.4232 23.4353 28.1408V25.1291C23.4353 24.8467 23.247 24.6585 22.9647 24.6585H9.22349C8.94114 24.6585 8.7529 24.8467 8.7529 25.1291V28.1408C8.7529 28.4232 8.98819 28.6114 9.22349 28.6114ZM9.69408 25.6467H22.4941V27.7173H9.69408V25.6467Z" fill="#010101"/>
</g>
<defs>
<clipPath id="clip0_192_3204">
<rect width="32" height="32" fill="white"/>
</clipPath>
</defs>
</svg>
