<svg width="32" height="32" viewBox="0 0 32 32" fill="none" xmlns="http://www.w3.org/2000/svg">
<path d="M22.5333 22.533C26.1333 18.933 26.1333 12.933 22.5333 9.33301" stroke="#17191C" stroke-width="1.5" stroke-miterlimit="10" stroke-linecap="round" stroke-linejoin="round"/>
<path d="M9.46672 9.4668C5.86672 13.0668 5.86672 19.0668 9.46672 22.6668" stroke="#17191C" stroke-width="1.5" stroke-miterlimit="10" stroke-linecap="round" stroke-linejoin="round"/>
<path d="M12.9333 18.1334C12.9333 19.3334 13.8667 20.2667 15.0667 20.2667H17.3333C18.2667 20.2667 19.2 19.4667 19.2 18.4001C19.2 17.2001 18.6667 16.8001 18 16.5334L14.2667 15.2001C13.3333 15.0667 12.9333 14.6667 12.9333 13.6001C12.9333 12.5334 13.7334 11.7334 14.8 11.7334H17.2C18.4 11.7334 19.3333 12.6667 19.3333 13.8667" stroke="#17191C" stroke-width="1.5" stroke-linecap="round" stroke-linejoin="round"/>
<path d="M16 10.4004V21.6004" stroke="#17191C" stroke-width="1.5" stroke-linecap="round" stroke-linejoin="round"/>
<path d="M16 29.3337C23.3638 29.3337 29.3333 23.3641 29.3333 16.0003C29.3333 8.63653 23.3638 2.66699 16 2.66699C8.63616 2.66699 2.66663 8.63653 2.66663 16.0003C2.66663 23.3641 8.63616 29.3337 16 29.3337Z" stroke="#17191C" stroke-width="1.5" stroke-miterlimit="10" stroke-linecap="round" stroke-linejoin="round"/>
</svg>
