<svg width="38" height="38" viewBox="0 0 38 38" fill="none" xmlns="http://www.w3.org/2000/svg">
<path d="M18.6911 3.11523C10.1088 3.11523 3.11523 10.1088 3.11523 18.6911C3.11523 27.2734 10.1088 34.267 18.6911 34.267C27.2734 34.267 34.267 27.2734 34.267 18.6911C34.267 10.1088 27.2734 3.11523 18.6911 3.11523ZM26.1364 15.1087L17.3048 23.9402C17.0868 24.1582 16.7908 24.2828 16.4793 24.2828C16.1678 24.2828 15.8719 24.1582 15.6538 23.9402L11.2458 19.5322C10.7941 19.0805 10.7941 18.3329 11.2458 17.8812C11.6975 17.4295 12.4452 17.4295 12.8969 17.8812L16.4793 21.4636L24.4853 13.4576C24.937 13.0059 25.6847 13.0059 26.1364 13.4576C26.5881 13.9093 26.5881 14.6414 26.1364 15.1087Z" fill="#3EBF8F"/>
</svg>
