<svg width="19" height="20" viewBox="0 0 19 20" fill="none" xmlns="http://www.w3.org/2000/svg">
<path d="M14.25 2.08301V2.08301C14.4164 2.08301 14.4996 2.08301 14.5698 2.08851C15.453 2.15769 16.1545 2.85924 16.2237 3.74243C16.2292 3.81261 16.2292 3.8958 16.2292 4.06217V13.3697C16.2292 14.3778 16.2292 14.8818 16.033 15.2669C15.8604 15.6055 15.5851 15.8809 15.2464 16.0535C14.8613 16.2497 14.3573 16.2497 13.3492 16.2497H5.65087C4.64278 16.2497 4.13873 16.2497 3.75369 16.0535C3.415 15.8809 3.13963 15.6055 2.96706 15.2669C2.77087 14.8818 2.77087 14.3778 2.77087 13.3697V4.06218C2.77087 3.8958 2.77087 3.81261 2.77637 3.74243C2.84556 2.85924 3.5471 2.15769 4.4303 2.08851C4.50048 2.08301 4.58367 2.08301 4.75004 2.08301V2.08301" stroke="white"/>
<path d="M16.2292 10.417H14.3737C13.8177 10.417 13.5396 10.417 13.3157 10.5393C13.2381 10.5816 13.1665 10.6341 13.1027 10.6952C12.9185 10.8718 12.8346 11.1369 12.6667 11.667V11.667C12.4988 12.1971 12.4149 12.4621 12.2307 12.6388C12.1669 12.6999 12.0953 12.7524 12.0177 12.7947C11.7938 12.917 11.5157 12.917 10.9597 12.917H8.04038C7.48434 12.917 7.20631 12.917 6.98234 12.7947C6.90476 12.7524 6.83314 12.6999 6.76935 12.6388C6.58517 12.4621 6.50124 12.1971 6.33337 11.667V11.667C6.16551 11.1369 6.08157 10.8718 5.8974 10.6952C5.83361 10.6341 5.76199 10.5816 5.68441 10.5393C5.46044 10.417 5.18241 10.417 4.62636 10.417H2.77087M12.7987 11.2503H6.20143" stroke="white"/>
<path d="M16.2292 6.25H14.3737C13.8177 6.25 13.5396 6.25 13.3157 6.37226C13.2381 6.41461 13.1665 6.46706 13.1027 6.52823C12.9185 6.70484 12.8346 6.9699 12.6667 7.5V7.5C12.4988 8.0301 12.4149 8.29516 12.2307 8.47177C12.1669 8.53294 12.0953 8.58539 12.0177 8.62774C11.7938 8.75 11.5157 8.75 10.9597 8.75H8.04038C7.48434 8.75 7.20631 8.75 6.98234 8.62774C6.90476 8.58539 6.83314 8.53294 6.76935 8.47177C6.58517 8.29516 6.50124 8.0301 6.33337 7.5V7.5C6.16551 6.9699 6.08157 6.70484 5.8974 6.52823C5.83361 6.46706 5.76199 6.41461 5.68441 6.37226C5.46044 6.25 5.18241 6.25 4.62636 6.25H2.77087M12.7987 7.08333H6.20143" stroke="white"/>
<path d="M14.6458 2.08301H14.3736C13.8176 2.08301 13.5396 2.08301 13.3156 2.20527C13.238 2.24762 13.1664 2.30007 13.1026 2.36124C12.9184 2.53785 12.8345 2.8029 12.6666 3.33301V3.33301C12.4988 3.86311 12.4148 4.12816 12.2307 4.30478C12.1669 4.36595 12.0952 4.4184 12.0177 4.46075C11.7937 4.58301 11.5157 4.58301 10.9596 4.58301H8.0403C7.48425 4.58301 7.20623 4.58301 6.98226 4.46075C6.90468 4.4184 6.83306 4.36595 6.76927 4.30478C6.58509 4.12816 6.50116 3.86311 6.33329 3.33301V3.33301C6.16543 2.8029 6.08149 2.53785 5.89732 2.36124C5.83353 2.30007 5.76191 2.24762 5.68433 2.20527C5.46035 2.08301 5.18233 2.08301 4.62628 2.08301H4.35413M12.7986 2.91634H6.20135" stroke="white"/>
</svg>
