<svg width="48" height="48" viewBox="0 0 48 48" fill="none" xmlns="http://www.w3.org/2000/svg">
<path fill-rule="evenodd" clip-rule="evenodd" d="M44 24C44 35.046 35.046 44 24 44C12.954 44 4 35.046 4 24C4 12.954 12.954 4 24 4C35.046 4 44 12.954 44 24ZM16.222 31.778C16.0345 31.5905 15.9292 31.3362 15.9292 31.071C15.9292 30.8058 16.0345 30.5515 16.222 30.364L22.586 24L16.222 17.636C16.0398 17.4474 15.939 17.1948 15.9413 16.9326C15.9436 16.6704 16.0488 16.4196 16.2342 16.2342C16.4196 16.0488 16.6704 15.9436 16.9326 15.9413C17.1948 15.939 17.4474 16.0398 17.636 16.222L24 22.586L30.364 16.222C30.5526 16.0398 30.8052 15.939 31.0674 15.9413C31.3296 15.9436 31.5804 16.0488 31.7658 16.2342C31.9512 16.4196 32.0564 16.6704 32.0587 16.9326C32.061 17.1948 31.9602 17.4474 31.778 17.636L25.414 24L31.778 30.364C31.9602 30.5526 32.061 30.8052 32.0587 31.0674C32.0564 31.3296 31.9512 31.5804 31.7658 31.7658C31.5804 31.9512 31.3296 32.0564 31.0674 32.0587C30.8052 32.061 30.5526 31.9602 30.364 31.778L24 25.414L17.636 31.778C17.4485 31.9655 17.1942 32.0708 16.929 32.0708C16.6638 32.0708 16.4095 31.9655 16.222 31.778Z" fill="#E40D0D"/>
</svg>
