<svg width="28" height="28" viewBox="0 0 28 28" fill="none" xmlns="http://www.w3.org/2000/svg">
<g clip-path="url(#clip0_192_3049)">
<path d="M19.4411 8.02465C19.6318 7.69879 19.5868 7.30983 19.3887 7.02896L17.9473 4.98632C17.641 4.55226 17.0748 4.45455 16.6408 4.76085L4.38489 13.4092C3.95083 13.7155 3.85312 14.2816 4.15942 14.7157L5.56477 16.7073C5.78098 17.0137 6.13989 17.1429 6.51084 17.0724C7.2272 16.9493 7.96303 17.2333 8.39545 17.8461C8.82787 18.4589 8.8743 19.2293 8.49275 19.881C8.30197 20.2068 8.30341 20.5883 8.51962 20.8947L9.92498 22.8863C10.2313 23.3203 10.7974 23.418 11.2315 23.1117L23.4874 14.4634C23.9214 14.1571 24.0191 13.591 23.7128 13.1569L22.2895 11.1398C22.0913 10.8589 21.7143 10.7042 21.3689 10.7567C20.6781 10.8617 19.9678 10.5597 19.5714 9.99801C19.175 9.43628 19.1106 8.64033 19.4411 8.02465ZM19.0427 10.3328C19.5833 11.0988 20.5218 11.5074 21.4454 11.3529C21.5836 11.3319 21.7067 11.398 21.7608 11.4746L23.2022 13.5172C23.3103 13.6704 23.2802 13.8446 23.127 13.9527L10.8711 22.6011C10.7179 22.7092 10.5437 22.6791 10.4356 22.5259L9.03028 20.5343C8.95821 20.4322 8.96274 20.276 9.04686 20.1784C9.55309 19.324 9.49018 18.2592 8.93164 17.4677C8.3731 16.6762 7.39101 16.26 6.41632 16.4506C6.27815 16.4716 6.1475 16.4491 6.07543 16.3469L4.67008 14.3554C4.56197 14.2022 4.59204 14.028 4.74524 13.9198L17.0011 5.27151C17.1543 5.1634 17.3285 5.19347 17.4366 5.34667L18.86 7.36378C18.932 7.46591 18.935 7.57854 18.8689 7.70168C18.4318 8.54561 18.5022 9.56683 19.0427 10.3328Z" fill="white"/>
<path d="M16.0838 13.1855C15.3689 13.69 15.2035 14.6481 15.708 15.363C16.2125 16.078 17.1706 16.2433 17.8855 15.7388C18.6005 15.2343 18.7658 14.2762 18.2613 13.5613C17.7568 12.8464 16.7987 12.681 16.0838 13.1855ZM17.5252 15.2282C17.0911 15.5344 16.525 15.4367 16.2187 15.0027C15.9124 14.5686 16.0101 14.0025 16.4441 13.6962C16.8782 13.3899 17.4444 13.4876 17.7507 13.9216C18.057 14.3557 17.9592 14.9219 17.5252 15.2282ZM11.7885 14.6866C12.5034 14.1821 12.6687 13.224 12.1643 12.5091C11.6598 11.7942 10.7017 11.6288 9.98674 12.1333C9.27181 12.6378 9.10647 13.5959 9.61095 14.3108C10.1154 15.0258 11.0735 15.1911 11.7885 14.6866ZM10.3471 12.644C10.7811 12.3377 11.3473 12.4354 11.6536 12.8694C11.9599 13.3035 11.8622 13.8697 11.4281 14.176C10.9941 14.4823 10.4279 14.3845 10.1216 13.9505C9.81532 13.5164 9.91302 12.9503 10.3471 12.644ZM15.2854 9.88597C15.1412 9.68171 14.9385 9.55703 14.6772 9.51194C14.1981 9.42926 13.713 9.77159 13.6303 10.2506L12.4383 17.2878C12.4008 17.5056 12.4428 17.7819 12.5869 17.9861C12.731 18.1904 12.9338 18.3151 13.1951 18.3602C13.4564 18.4053 13.6892 18.3558 13.8934 18.2116C14.0721 18.0855 14.2224 17.8648 14.2675 17.6035L15.4339 10.5843C15.479 10.323 15.4295 10.0902 15.2854 9.88597ZM14.8062 10.4536L13.5887 17.5087C13.5586 17.6829 13.4309 17.773 13.2567 17.743C13.1696 17.7279 13.1081 17.6949 13.072 17.6438C13.036 17.5928 13.0075 17.4981 13.0405 17.4366L14.2581 10.3814C14.2731 10.2943 14.3061 10.2327 14.3572 10.1967C14.4083 10.1607 14.5029 10.1321 14.5645 10.1652C14.6516 10.1802 14.7131 10.2133 14.7492 10.2643C14.7852 10.3154 14.8393 10.392 14.8062 10.4536Z" fill="white"/>
</g>
<defs>
<clipPath id="clip0_192_3049">
<rect width="20" height="20" fill="white" transform="translate(0 11.5312) rotate(-35.2087)"/>
</clipPath>
</defs>
</svg>
