<svg width="22" height="21" viewBox="0 0 22 21" fill="none" xmlns="http://www.w3.org/2000/svg">
<path fill-rule="evenodd" clip-rule="evenodd" d="M13.639 2.36894C14.7129 1.34382 16.4541 1.34381 17.528 2.36894L19.5187 4.26907C20.5926 5.2942 20.5926 6.95625 19.5186 7.98138L12.565 14.6189C12.3931 14.783 12.1599 14.8752 11.9168 14.8752H7.3335C6.82723 14.8752 6.41683 14.4835 6.41683 14.0002V9.62522C6.41683 9.39316 6.51341 9.1706 6.68531 9.00651L13.639 2.36894ZM16.2317 3.60638C15.8737 3.26467 15.2933 3.26467 14.9353 3.60638L14.1299 4.37522L17.4168 7.51279L18.2223 6.74394C18.5803 6.40223 18.5803 5.84821 18.2223 5.50651L16.2317 3.60638ZM16.1205 8.75022L12.8335 5.61266L8.25016 9.98766V13.1252H11.5371L16.1205 8.75022ZM6.41683 3.50022C4.89805 3.50022 3.66683 4.67548 3.66683 6.12522V14.8752C3.66683 16.325 4.89805 17.5002 6.41683 17.5002H15.5835C17.1023 17.5002 18.3335 16.325 18.3335 14.8752V12.2502C18.3335 11.767 18.7439 11.3752 19.2502 11.3752C19.7564 11.3752 20.1668 11.767 20.1668 12.2502V14.8752C20.1668 17.2915 18.1148 19.2502 15.5835 19.2502H6.41683C3.88552 19.2502 1.8335 17.2915 1.8335 14.8752V6.12522C1.8335 3.70898 3.88552 1.75022 6.41683 1.75022H9.16683C9.67309 1.75022 10.0835 2.14197 10.0835 2.62522C10.0835 3.10847 9.67309 3.50022 9.16683 3.50022H6.41683Z" fill="#07932E"/>
</svg>
