<svg width="24" height="24" viewBox="0 0 24 24" fill="none" xmlns="http://www.w3.org/2000/svg">
<path fill-rule="evenodd" clip-rule="evenodd" d="M7.79001 15.2699L8.52001 11.8599C8.62629 11.3861 8.86568 10.9524 9.21001 10.6099L15.88 3.99993C16.5564 3.3109 17.4748 2.91271 18.44 2.88993C19.168 2.8795 19.87 3.1603 20.39 3.66993C21.5262 5.01239 21.3795 7.01715 20.06 8.17993L13.39 14.8499C13.0476 15.1943 12.6139 15.4337 12.14 15.5399L8.73001 16.2699H8.54001C8.29072 16.2795 8.05262 16.1661 7.90294 15.9665C7.75325 15.7669 7.71105 15.5066 7.79001 15.2699ZM10.27 11.6799C10.1299 11.8157 10.0326 11.9895 9.99001 12.1799L9.50001 14.5099L11.83 14.0099C12.0204 13.9674 12.1942 13.87 12.33 13.7299L19 7.05993C19.7307 6.47495 19.8757 5.42041 19.33 4.65993C19.0911 4.43164 18.7703 4.3091 18.44 4.31993C17.8706 4.34279 17.3325 4.58673 16.94 4.99993L10.27 11.6799Z" fill="#07932E"/>
<path d="M19.91 10.9299C19.4981 10.9353 19.1654 11.268 19.16 11.6799V17.3699C19.1734 18.1742 18.8633 18.9502 18.2992 19.5236C17.7351 20.0971 16.9644 20.42 16.16 20.4199H6.63002C4.96739 20.3873 3.63513 19.0329 3.63002 17.3699V7.87993C3.65731 6.21502 5.01488 4.87971 6.68002 4.87993H12.37C12.7842 4.87993 13.12 4.54414 13.12 4.12993C13.12 3.71572 12.7842 3.37993 12.37 3.37993H6.63002C4.13652 3.37978 2.10742 5.38658 2.08002 7.87993V17.3699C2.08002 19.8828 4.11712 21.9199 6.63002 21.9199H16.12C18.629 21.9144 20.66 19.8789 20.66 17.3699V11.6799C20.6546 11.268 20.322 10.9353 19.91 10.9299Z" fill="#07932E"/>
</svg>
