<svg width="18" height="9" viewBox="0 0 18 9" fill="none" xmlns="http://www.w3.org/2000/svg">
<path d="M7.47339 6.15235L6.85294 6.85294C6.37344 7.33243 5.76253 7.65897 5.09745 7.79127C4.43238 7.92356 3.743 7.85566 3.11651 7.59616C2.49002 7.33666 1.95455 6.89721 1.57782 6.33339C1.20108 5.76956 1 5.10668 1 4.42857C1 3.75047 1.20108 3.08759 1.57782 2.52376C1.95455 1.95994 2.49002 1.52049 3.11651 1.26099C3.743 1.00149 4.43238 0.933588 5.09745 1.06588C5.76253 1.19817 6.37344 1.52471 6.85294 2.00421L11.1471 6.85294C11.6266 7.33243 12.2375 7.65897 12.9025 7.79127C13.5676 7.92356 14.257 7.85566 14.8835 7.59616C15.51 7.33666 16.0454 6.89721 16.4222 6.33339C16.7989 5.76956 17 5.10668 17 4.42857C17 3.75047 16.7989 3.08759 16.4222 2.52376C16.0454 1.95994 15.51 1.52049 14.8835 1.26099C14.257 1.00149 13.5676 0.933588 12.9025 1.06588C12.2375 1.19817 11.6266 1.52471 11.1471 2.00421L10.5266 2.7048" stroke="#BBBBBB" stroke-linecap="round" stroke-linejoin="round"/>
</svg>
