<svg width="185" height="30" viewBox="0 0 185 30" fill="none" xmlns="http://www.w3.org/2000/svg">
<path d="M15.0586 1.65625L27.1484 29H16.2109L12.4805 20.5234H6.64062L10.3906 29H0L11.0156 1.65625H15.0586ZM7.94922 10.25L4.00391 20.1328H12.3047L7.94922 10.25ZM40.6445 29H40.1562L28.7109 3.19922V17.7305H31.0156L35.8594 28.6094V29H28.3203V1.65625H38.9453L45.8594 17.2422L40.6445 29ZM59.1406 29H48.9844V10.2305L52.793 1.65625H59.1406V29ZM75.3711 1.65625L87.4609 29H76.5234L72.793 20.5234H66.9531L70.7031 29H60.3125L71.3281 1.65625H75.3711ZM68.2617 10.25L64.3164 20.1328H72.6172L68.2617 10.25ZM111.758 1.65625V9.78125L89.4727 19.625H109.238L113.398 29H88.5156V19.625L107.969 11.0312H91.0352L86.875 1.65625H111.758ZM124.727 29H114.57V1.65625H124.727V29ZM148.828 29L138.555 5.83594V29H128.398V1.65625H137.109L145.117 19.7031V1.65625H155.273V29H148.828ZM183.75 13.375H181.387L176.699 2.78906C175.234 1.89062 173.359 1.26562 170.898 1.26562C168.32 1.26562 165.918 1.94922 163.906 3.25781L175.332 29.0195C177.246 28.6094 178.867 27.8672 180.215 26.9297L174.648 14.4102H170.547V14.0195H184.941V29H181.133L180.371 27.3008C178.223 28.7852 175.332 29.7812 171.836 29.7812C163.516 29.7812 157.617 24.1562 157.617 15.2109C157.617 6.14844 163.652 0.875 170.898 0.875C173.418 0.875 175.332 1.51953 176.855 2.41797L181.348 0.40625H183.75V13.375Z" fill="#4A588D"/>
</svg>
