<svg width="32" height="32" viewBox="0 0 32 32" fill="none" xmlns="http://www.w3.org/2000/svg">
<path fill-rule="evenodd" clip-rule="evenodd" d="M12.9786 14.0927L14.0719 12.9567L10.1773 9.06332L10.0479 8.88199L8.2146 5.09799L4.85993 3.47266L3.47327 4.85932L5.12527 8.23932L8.87993 10.0473L9.0626 10.1767L12.9786 14.0927ZM20.0479 16.8767L16.8479 20.0193L25.1279 28.2993C25.253 28.4243 25.4225 28.4945 25.5993 28.4945C25.776 28.4945 25.9456 28.4243 26.0706 28.2993L28.2986 26.07C28.4236 25.945 28.4938 25.7754 28.4938 25.5987C28.4938 25.4219 28.4236 25.2523 28.2986 25.1273L20.0479 16.8767Z" stroke="#292D32"/>
<path fill-rule="evenodd" clip-rule="evenodd" d="M3.2453 24.7436C2.99223 23.799 2.99246 22.8044 3.24595 21.8599C3.49945 20.9155 3.99726 20.0545 4.6893 19.3636C5.38049 18.6715 6.24174 18.1737 7.18641 17.9202C8.13108 17.6668 9.12584 17.6665 10.0706 17.9196L18.464 9.52623C18.2105 8.58157 18.2104 7.5868 18.4636 6.64209C18.7169 5.69738 19.2146 4.83607 19.9066 4.14489C20.598 3.45355 21.4591 2.95639 22.4035 2.70338C23.3479 2.45037 24.3423 2.45044 25.2866 2.70356L22.9013 5.08756L22.8146 9.00756L26.7 8.88756L29.1626 6.42623C29.4599 7.37797 29.4962 8.39209 29.2677 9.36264C29.0391 10.3332 28.5541 11.2246 27.8634 11.9437C27.1726 12.6627 26.3015 13.1831 25.3409 13.4505C24.3803 13.7179 23.3656 13.7224 22.4026 13.4636L14.0066 21.8596C14.2654 22.8225 14.2609 23.8372 13.9936 24.7978C13.7262 25.7584 13.2058 26.6296 12.4867 27.3203C11.7676 28.0111 10.8763 28.496 9.90571 28.7246C8.93516 28.9531 7.92104 28.9169 6.9693 28.6196L9.43196 26.1569L9.55196 22.2716L5.63196 22.3582L3.2453 24.7436Z" stroke="#292D32" stroke-linecap="round" stroke-linejoin="round"/>
</svg>
