<svg width="400" height="400" viewBox="0 0 400 400" fill="none" xmlns="http://www.w3.org/2000/svg">
<path d="M203.578 370.206C304.075 370.206 385.543 288.737 385.543 188.24C385.543 87.7428 304.075 6.27441 203.578 6.27441C103.081 6.27441 21.6118 87.7432 21.6118 188.24C21.6118 288.737 103.081 370.206 203.578 370.206Z" fill="#DAEDF7" stroke="#DAEDF7" stroke-miterlimit="10"/>
<path d="M225.541 19.4941H32.2114C22.4182 19.4941 14.479 27.4329 14.479 37.2265V184.041C14.479 193.835 22.4182 201.774 32.2114 201.774H225.541C235.334 201.774 243.273 193.835 243.273 184.041V37.2265C243.273 27.4329 235.334 19.4941 225.541 19.4941Z" fill="#00B8F0"/>
<path d="M155.885 19.4941H32.2074C27.5022 19.4941 22.9894 21.3633 19.6622 24.6905C16.335 28.0177 14.4658 32.5305 14.4658 37.2357V160.909L155.885 19.4941Z" fill="#4ACFFF"/>
<path d="M115.533 76.1489C110.453 76.1521 105.461 74.8145 101.061 72.2725C96.6623 69.7305 93.0115 66.0729 90.4771 61.6689H62.5999L52.9055 67.2737C52.2695 67.6397 51.7123 68.1281 51.2655 68.7097C50.8191 69.2917 50.4911 69.9557 50.3011 70.6645C50.1115 71.3733 50.0639 72.1121 50.1603 72.8393C50.2563 73.5669 50.4955 74.2681 50.8631 74.9025L59.2427 89.4141C59.6091 90.0501 60.0975 90.6081 60.6795 91.0549C61.2623 91.5013 61.9271 91.8289 62.6363 92.0181C63.3455 92.2073 64.0851 92.2553 64.8127 92.1577C65.5399 92.0609 66.2415 91.8213 66.8759 91.4525L78.1715 84.9381C84.6703 91.3873 92.7299 96.0425 101.563 98.4489V111.487C101.563 112.97 102.152 114.392 103.201 115.441C104.249 116.489 105.671 117.078 107.154 117.078H123.913C124.647 117.078 125.374 116.933 126.052 116.653C126.73 116.371 127.346 115.959 127.865 115.44C128.383 114.921 128.795 114.305 129.076 113.626C129.356 112.948 129.5 112.221 129.499 111.487V98.4489C138.333 96.0433 146.393 91.3881 152.891 84.9381L164.191 91.4521C164.826 91.8213 165.527 92.0609 166.255 92.1577C166.982 92.2553 167.722 92.2073 168.431 92.0181C169.14 91.8289 169.805 91.5013 170.387 91.0545C170.97 90.6081 171.458 90.0501 171.825 89.4141L180.204 74.9025C180.572 74.2673 180.809 73.5661 180.905 72.8389C181.001 72.1117 180.952 71.3725 180.762 70.6641C180.572 69.9553 180.244 69.2913 179.797 68.7097C179.35 68.1277 178.793 67.6397 178.157 67.2737L168.467 61.6689H140.59C138.056 66.0729 134.405 69.7305 130.006 72.2725C125.606 74.8145 120.615 76.1521 115.533 76.1489Z" fill="#DAEDF7"/>
<path d="M52.9055 67.2737C52.2695 67.6397 51.7123 68.1277 51.2655 68.7097C50.8191 69.2917 50.4911 69.9557 50.3011 70.6645C50.1115 71.3733 50.0639 72.1121 50.1603 72.8393C50.2563 73.5669 50.4955 74.2677 50.8631 74.9025L59.2427 89.4141C59.6091 90.0501 60.0975 90.6081 60.6795 91.0545C61.2623 91.5013 61.9271 91.8289 62.6363 92.0181C63.3455 92.2073 64.0851 92.2553 64.8127 92.1577C65.5399 92.0609 66.2415 91.8213 66.8759 91.4521L77.3847 85.3929L95.0899 67.6877C93.2955 65.8913 91.7431 63.8677 90.4723 61.6689H62.5999L52.9055 67.2737Z" fill="white"/>
<path d="M115.533 76.1489C110.453 76.1521 105.461 74.8145 101.061 72.2725C96.6623 69.7305 93.0115 66.0729 90.4771 61.6689H62.5999L52.9055 67.2737C52.2695 67.6397 51.7123 68.1281 51.2655 68.7097C50.8191 69.2917 50.4911 69.9557 50.3011 70.6645C50.1115 71.3733 50.0639 72.1121 50.1603 72.8393C50.2563 73.5669 50.4955 74.2681 50.8631 74.9025L59.2427 89.4141C59.6091 90.0501 60.0975 90.6081 60.6795 91.0549C61.2623 91.5013 61.9271 91.8289 62.6363 92.0181C63.3455 92.2073 64.0851 92.2553 64.8127 92.1577C65.5399 92.0609 66.2415 91.8213 66.8759 91.4525L78.1715 84.9381C84.6703 91.3873 92.7299 96.0425 101.563 98.4489V111.487C101.563 112.97 102.152 114.392 103.201 115.441C104.249 116.489 105.671 117.078 107.154 117.078H123.913C124.647 117.078 125.374 116.933 126.052 116.653C126.73 116.371 127.346 115.959 127.865 115.44C128.383 114.921 128.795 114.305 129.076 113.626C129.356 112.948 129.5 112.221 129.499 111.487V98.4489C138.333 96.0433 146.393 91.3881 152.891 84.9381L164.191 91.4521C164.826 91.8213 165.527 92.0609 166.255 92.1577C166.982 92.2553 167.722 92.2073 168.431 92.0181C169.14 91.8289 169.805 91.5013 170.387 91.0545C170.97 90.6081 171.458 90.0501 171.825 89.4141L180.204 74.9025C180.571 74.2673 180.809 73.5661 180.905 72.8389C181.001 72.1117 180.952 71.3725 180.762 70.6641C180.572 69.9553 180.244 69.2913 179.797 68.7097C179.35 68.1277 178.793 67.6397 178.157 67.2737L168.467 61.6689H140.59C138.056 66.0729 134.405 69.7305 130.006 72.2725C125.606 74.8145 120.615 76.1521 115.533 76.1489Z" stroke="#45413C" stroke-linecap="round" stroke-linejoin="round"/>
<path d="M75.6786 115.814L68.9958 104.205C68.7026 103.696 68.3118 103.251 67.8458 102.894C67.3798 102.537 66.8486 102.275 66.2818 102.124C65.715 101.972 65.1238 101.933 64.5418 102.01C63.9598 102.087 63.399 102.278 62.891 102.572L53.8518 107.785C48.6478 102.618 42.1938 98.8896 35.1182 96.9624V86.5448C35.1182 85.3588 34.647 84.2216 33.8086 83.3832C32.9698 82.5444 31.8326 82.0732 30.6466 82.0732H17.2402C16.2378 82.0724 15.2646 82.4108 14.479 83.0332V117.943C17.8514 116.347 21.573 115.63 25.2974 115.858C29.021 116.086 32.6274 117.252 35.7798 119.248C38.9322 121.244 41.529 124.004 43.3286 127.274C45.1278 130.542 46.0714 134.213 46.0714 137.944C46.0714 141.675 45.1278 145.345 43.3286 148.614C41.529 151.883 38.9322 154.644 35.7798 156.639C32.6274 158.635 29.021 159.801 25.2974 160.03C21.573 160.258 17.8514 159.54 14.479 157.944V184.042C14.4722 187.518 15.493 190.917 17.413 193.814H30.6466C31.2334 193.815 31.8146 193.7 32.3574 193.475C32.9002 193.251 33.393 192.922 33.8082 192.507C34.2234 192.092 34.553 191.6 34.7778 191.058C35.003 190.515 35.1182 189.934 35.1182 189.346V178.916C42.1854 176.99 48.6334 173.266 53.8334 168.107L62.8726 173.315C63.3798 173.611 63.9406 173.803 64.5226 173.881C65.1046 173.959 65.6962 173.921 66.2634 173.769C66.831 173.618 67.3626 173.356 67.8282 172.999C68.2938 172.642 68.6846 172.196 68.9774 171.687L75.6786 160.073C75.9726 159.566 76.1638 159.005 76.241 158.423C76.3186 157.842 76.2798 157.25 76.1282 156.684C75.9766 156.117 75.7146 155.586 75.357 155.121C74.9998 154.655 74.5538 154.265 74.0454 153.972L65.0154 148.754C66.8714 141.668 66.8714 134.224 65.0154 127.138L74.0454 121.919C74.5538 121.626 74.9998 121.236 75.3574 120.77C75.715 120.305 75.977 119.773 76.129 119.206C76.2802 118.639 76.3186 118.047 76.241 117.465C76.1642 116.883 75.9726 116.322 75.6786 115.814Z" fill="#DAEDF7"/>
<path d="M35.1182 96.9624V86.5448C35.1182 85.3588 34.647 84.2216 33.8086 83.3832C32.9698 82.5444 31.8326 82.0732 30.6466 82.0732H17.2402C16.2378 82.072 15.2646 82.4108 14.479 83.0328V117.943C18.6042 115.996 23.2306 115.369 27.725 116.15C32.2198 116.931 36.3634 119.081 39.5902 122.306L54.493 107.426L53.8334 107.808C48.6374 102.636 42.1894 98.8988 35.1182 96.9624Z" fill="white"/>
<path d="M75.6786 115.814L68.9958 104.205C68.7026 103.696 68.3118 103.251 67.8458 102.894C67.3798 102.537 66.8486 102.275 66.2818 102.124C65.715 101.972 65.1238 101.933 64.5418 102.01C63.9598 102.087 63.399 102.278 62.891 102.572L53.8518 107.785C48.6478 102.618 42.1938 98.8896 35.1182 96.9624V86.5448C35.1182 85.3588 34.647 84.2216 33.8086 83.3832C32.9698 82.5444 31.8326 82.0732 30.6466 82.0732H17.2402C16.2378 82.0724 15.2646 82.4108 14.479 83.0332V117.943C17.8514 116.347 21.573 115.63 25.2974 115.858C29.021 116.086 32.6274 117.252 35.7798 119.248C38.9322 121.244 41.529 124.004 43.3286 127.274C45.1278 130.542 46.0714 134.213 46.0714 137.944C46.0714 141.675 45.1278 145.345 43.3286 148.614C41.529 151.883 38.9322 154.644 35.7798 156.639C32.6274 158.635 29.021 159.801 25.2974 160.03C21.573 160.258 17.8514 159.54 14.479 157.944V184.042C14.4722 187.518 15.493 190.917 17.413 193.814H30.6466C31.2334 193.815 31.8146 193.7 32.3574 193.475C32.9002 193.251 33.393 192.922 33.8082 192.507C34.2234 192.092 34.553 191.6 34.7778 191.058C35.003 190.515 35.1182 189.934 35.1182 189.346V178.916C42.1854 176.99 48.6334 173.266 53.8334 168.107L62.8726 173.315C63.3798 173.611 63.9406 173.803 64.5226 173.881C65.1046 173.959 65.6962 173.921 66.2634 173.769C66.831 173.618 67.3626 173.356 67.8282 172.999C68.2938 172.642 68.6846 172.196 68.9774 171.687L75.6786 160.073C75.9726 159.566 76.1638 159.005 76.241 158.423C76.3186 157.842 76.2798 157.25 76.1282 156.684C75.9766 156.117 75.7146 155.586 75.357 155.121C74.9998 154.655 74.5538 154.265 74.0454 153.972L65.0154 148.754C66.8714 141.668 66.8714 134.224 65.0154 127.138L74.0454 121.919C74.5538 121.626 74.9998 121.236 75.3574 120.77C75.715 120.305 75.977 119.773 76.129 119.206C76.2802 118.639 76.3186 118.047 76.241 117.465C76.1642 116.883 75.9726 116.322 75.6786 115.814Z" stroke="#45413C" stroke-linecap="round" stroke-linejoin="round"/>
<path d="M243.269 172.601V105.296L237.214 108.785C232.015 103.625 225.567 99.9005 218.499 97.9765V87.5453C218.499 86.3609 218.028 85.2245 217.191 84.3865C216.353 83.5489 215.216 83.0781 214.032 83.0781H200.621C199.436 83.0781 198.3 83.5489 197.462 84.3865C196.624 85.2245 196.153 86.3609 196.153 87.5453V97.9765C189.085 99.9017 182.637 103.628 177.438 108.79L168.399 103.581C167.891 103.286 167.331 103.094 166.749 103.016C166.167 102.938 165.575 102.976 165.008 103.127C164.441 103.279 163.909 103.54 163.444 103.898C162.978 104.255 162.587 104.701 162.294 105.21L155.589 116.824C155.295 117.332 155.105 117.893 155.029 118.474C154.952 119.056 154.991 119.647 155.143 120.213C155.295 120.78 155.557 121.311 155.915 121.777C156.272 122.241 156.718 122.632 157.227 122.924L166.257 128.142C164.401 135.228 164.401 142.673 166.257 149.76L157.249 154.973C156.223 155.566 155.474 156.542 155.167 157.687C154.86 158.831 155.02 160.051 155.611 161.078L162.317 172.687C162.61 173.196 163.001 173.642 163.466 173.999C163.932 174.357 164.463 174.619 165.031 174.771C165.598 174.922 166.189 174.961 166.771 174.883C167.353 174.806 167.914 174.615 168.422 174.321L177.461 169.107C182.66 174.268 189.108 177.992 196.176 179.916V190.347C196.176 191.532 196.647 192.669 197.485 193.507C198.322 194.346 199.459 194.817 200.643 194.819H214.055C215.239 194.817 216.376 194.346 217.213 193.507C218.051 192.669 218.522 191.532 218.522 190.347V179.916C225.59 177.992 232.038 174.268 237.237 169.107L243.269 172.601ZM207.331 161.069C202.955 161.069 198.678 159.771 195.04 157.34C191.402 154.91 188.567 151.455 186.892 147.412C185.218 143.37 184.78 138.922 185.633 134.631C186.487 130.339 188.594 126.397 191.687 123.303C194.781 120.209 198.723 118.103 203.015 117.249C207.306 116.395 211.754 116.833 215.797 118.508C219.839 120.182 223.294 123.017 225.725 126.656C228.156 130.294 229.453 134.571 229.453 138.946C229.453 141.852 228.881 144.729 227.769 147.413C226.657 150.098 225.027 152.537 222.972 154.591C220.917 156.645 218.478 158.275 215.793 159.386C213.109 160.497 210.232 161.069 207.326 161.069L207.331 161.069Z" fill="#EBCB00"/>
<path d="M237.214 108.79C232.015 103.629 225.567 99.9049 218.499 97.9813V87.5453C218.499 86.3609 218.028 85.2245 217.191 84.3865C216.353 83.5489 215.216 83.0781 214.032 83.0781H200.621C199.436 83.0781 198.3 83.5489 197.462 84.3865C196.624 85.2245 196.153 86.3609 196.153 87.5453V97.9765C189.085 99.9017 182.637 103.628 177.438 108.79L168.399 103.581C167.891 103.286 167.331 103.094 166.749 103.016C166.167 102.938 165.575 102.976 165.008 103.127C164.441 103.279 163.909 103.54 163.444 103.898C162.978 104.255 162.587 104.701 162.294 105.21L155.589 116.824C155.295 117.332 155.105 117.893 155.029 118.474C154.952 119.056 154.991 119.647 155.143 120.213C155.295 120.78 155.557 121.311 155.915 121.777C156.272 122.241 156.718 122.632 157.227 122.924L166.257 128.142C164.401 135.228 164.401 142.673 166.257 149.76L157.249 154.973C156.223 155.566 155.474 156.542 155.167 157.687C154.86 158.831 155.02 160.051 155.611 161.078L162.317 172.687C162.61 173.196 163.001 173.642 163.466 173.999C163.932 174.357 164.463 174.619 165.031 174.771C165.598 174.922 166.189 174.961 166.771 174.883C167.353 174.806 167.914 174.615 168.422 174.321L176.811 169.471L191.686 154.595C189.632 152.541 188.002 150.102 186.89 147.418C185.778 144.733 185.206 141.856 185.206 138.951C185.206 136.046 185.778 133.169 186.89 130.484C188.002 127.8 189.632 125.361 191.686 123.306C193.741 121.252 196.18 119.622 198.864 118.51C201.549 117.398 204.425 116.826 207.331 116.826C210.237 116.826 213.113 117.398 215.798 118.51C218.482 119.622 220.921 121.252 222.975 123.306L237.874 108.403L237.214 108.79Z" fill="#FFE500"/>
<path d="M243.269 172.601V105.296L237.214 108.785C232.015 103.625 225.567 99.9005 218.499 97.9765V87.5453C218.499 86.3609 218.028 85.2245 217.191 84.3865C216.353 83.5489 215.216 83.0781 214.032 83.0781H200.621C199.436 83.0781 198.3 83.5489 197.462 84.3865C196.624 85.2245 196.153 86.3609 196.153 87.5453V97.9765C189.085 99.9017 182.637 103.628 177.438 108.79L168.399 103.581C167.891 103.286 167.331 103.094 166.749 103.016C166.167 102.938 165.575 102.976 165.008 103.127C164.441 103.279 163.909 103.54 163.444 103.898C162.978 104.255 162.587 104.701 162.294 105.21L155.589 116.824C155.295 117.332 155.105 117.893 155.029 118.474C154.952 119.056 154.991 119.647 155.143 120.213C155.295 120.78 155.557 121.311 155.915 121.777C156.272 122.241 156.718 122.632 157.227 122.924L166.257 128.142C164.401 135.228 164.401 142.673 166.257 149.76L157.249 154.973C156.223 155.566 155.474 156.542 155.167 157.687C154.86 158.831 155.02 160.051 155.611 161.078L162.317 172.687C162.61 173.196 163.001 173.642 163.466 173.999C163.932 174.357 164.463 174.619 165.031 174.771C165.598 174.922 166.189 174.961 166.771 174.883C167.353 174.806 167.914 174.615 168.422 174.321L177.461 169.107C182.66 174.268 189.108 177.992 196.176 179.916V190.347C196.176 191.532 196.647 192.669 197.485 193.507C198.322 194.346 199.459 194.817 200.643 194.819H214.055C215.239 194.817 216.376 194.346 217.213 193.507C218.051 192.669 218.522 191.532 218.522 190.347V179.916C225.59 177.992 232.038 174.268 237.237 169.107L243.269 172.601ZM207.331 161.069C202.955 161.069 198.678 159.771 195.04 157.34C191.402 154.91 188.567 151.455 186.892 147.412C185.218 143.37 184.78 138.922 185.633 134.631C186.487 130.339 188.594 126.397 191.687 123.303C194.781 120.209 198.723 118.103 203.015 117.249C207.306 116.395 211.754 116.833 215.797 118.508C219.839 120.182 223.294 123.017 225.725 126.656C228.156 130.294 229.453 134.571 229.453 138.946C229.453 141.852 228.881 144.729 227.769 147.413C226.657 150.098 225.027 152.537 222.972 154.591C220.917 156.645 218.478 158.275 215.793 159.386C213.109 160.497 210.232 161.069 207.326 161.069L207.331 161.069Z" stroke="#45413C" stroke-linecap="round" stroke-linejoin="round"/>
<path d="M150.567 173.45L144.549 169.97C145.786 165.248 145.786 160.286 144.549 155.563L150.567 152.083C150.906 151.888 151.203 151.628 151.441 151.318C151.68 151.008 151.855 150.654 151.956 150.276C152.058 149.899 152.084 149.504 152.032 149.117C151.981 148.729 151.854 148.355 151.659 148.016L147.187 140.283C146.992 139.943 146.731 139.647 146.422 139.408C146.111 139.17 145.757 138.995 145.379 138.894C145.001 138.793 144.607 138.767 144.219 138.819C143.832 138.871 143.458 138.999 143.12 139.195L137.093 142.671C133.628 139.23 129.33 136.747 124.619 135.465V128.5C124.619 127.71 124.305 126.952 123.746 126.393C123.187 125.835 122.429 125.521 121.639 125.521H112.7C112.309 125.521 111.921 125.598 111.559 125.747C111.198 125.897 110.87 126.117 110.593 126.393C110.316 126.67 110.097 126.999 109.947 127.36C109.797 127.721 109.72 128.109 109.72 128.5V135.456C105.008 136.738 100.708 139.221 97.2417 142.662L91.2185 139.186C90.8801 138.989 90.5057 138.862 90.1177 138.81C89.7297 138.759 89.3353 138.784 88.9573 138.885C88.5789 138.986 88.2245 139.161 87.9137 139.399C87.6029 139.637 87.3429 139.934 87.1473 140.273L82.6801 148.007C82.4841 148.345 82.3569 148.719 82.3057 149.107C82.2541 149.495 82.2797 149.888 82.3805 150.266C82.4817 150.643 82.6561 150.997 82.8937 151.308C83.1317 151.618 83.4289 151.879 83.7673 152.074L89.7905 155.554C88.5529 160.277 88.5529 165.239 89.7905 169.961L83.7673 173.441C83.4289 173.637 83.1317 173.897 82.8937 174.207C82.6561 174.517 82.4817 174.872 82.3805 175.249C82.2797 175.627 82.2541 176.021 82.3057 176.409C82.3569 176.796 82.4841 177.169 82.6801 177.508L87.1473 185.241C87.3429 185.581 87.6029 185.878 87.9137 186.116C88.2245 186.355 88.5789 186.529 88.9573 186.631C89.3353 186.731 89.7297 186.757 90.1177 186.705C90.5057 186.653 90.8801 186.525 91.2185 186.329L97.2417 182.853C100.708 186.294 105.008 188.777 109.72 190.059V197.042C109.72 197.433 109.797 197.821 109.947 198.183C110.097 198.544 110.316 198.873 110.593 199.149C110.87 199.426 111.198 199.645 111.559 199.795C111.921 199.945 112.309 200.022 112.7 200.022H121.639C122.429 200.022 123.187 199.708 123.746 199.149C124.305 198.591 124.619 197.832 124.619 197.042V190.077C129.33 188.796 133.628 186.313 137.093 182.871L143.12 186.347C143.458 186.543 143.832 186.671 144.219 186.723C144.607 186.775 145.001 186.749 145.379 186.648C145.757 186.547 146.111 186.373 146.422 186.135C146.731 185.896 146.992 185.599 147.187 185.26L151.659 177.526C151.856 177.187 151.984 176.813 152.036 176.424C152.088 176.035 152.062 175.64 151.96 175.261C151.859 174.882 151.684 174.527 151.445 174.217C151.205 173.906 150.907 173.645 150.567 173.45ZM117.167 177.517C114.249 177.518 111.396 176.654 108.969 175.033C106.543 173.413 104.651 171.109 103.534 168.413C102.417 165.717 102.124 162.751 102.693 159.889C103.261 157.027 104.666 154.398 106.729 152.334C108.792 150.271 111.421 148.865 114.283 148.295C117.145 147.726 120.111 148.018 122.807 149.134C125.503 150.251 127.807 152.141 129.429 154.568C131.05 156.994 131.915 159.847 131.915 162.764C131.915 166.677 130.362 170.428 127.596 173.195C124.83 175.961 121.079 177.516 117.167 177.517Z" fill="#DAEDF7"/>
<path d="M137.092 142.662C133.628 139.221 129.33 136.738 124.619 135.456V128.5C124.619 127.71 124.305 126.952 123.746 126.393C123.187 125.834 122.429 125.521 121.639 125.521H112.7C112.309 125.521 111.921 125.598 111.559 125.747C111.198 125.897 110.87 126.117 110.593 126.393C110.316 126.67 110.097 126.999 109.947 127.36C109.797 127.721 109.72 128.109 109.72 128.5V135.456C105.008 136.738 100.708 139.221 97.2417 142.661L91.2185 139.186C90.8801 138.989 90.5057 138.862 90.1177 138.81C89.7297 138.758 89.3353 138.784 88.9573 138.885C88.5789 138.986 88.2245 139.161 87.9137 139.399C87.6029 139.637 87.3429 139.934 87.1473 140.273L82.6801 148.007C82.4837 148.345 82.3569 148.719 82.3057 149.107C82.2541 149.494 82.2797 149.888 82.3805 150.266C82.4817 150.643 82.6557 150.997 82.8937 151.308C83.1317 151.618 83.4289 151.879 83.7673 152.074L89.7905 155.554C88.5529 160.277 88.5529 165.239 89.7905 169.961L83.7673 173.441C83.4289 173.637 83.1317 173.897 82.8937 174.207C82.6557 174.517 82.4817 174.872 82.3805 175.249C82.2797 175.627 82.2541 176.021 82.3057 176.409C82.3569 176.796 82.4837 177.169 82.6801 177.508L87.1473 185.241C87.3429 185.581 87.6029 185.878 87.9137 186.116C88.2245 186.355 88.5789 186.529 88.9573 186.63C89.3353 186.731 89.7297 186.757 90.1177 186.705C90.5057 186.653 90.8801 186.525 91.2185 186.329L96.8277 183.094L106.741 173.177C105.342 171.814 104.228 170.187 103.464 168.39C102.699 166.593 102.299 164.663 102.287 162.709C102.275 160.757 102.65 158.821 103.392 157.015C104.133 155.209 105.227 153.567 106.607 152.187C107.988 150.806 109.63 149.713 111.437 148.972C113.243 148.231 115.179 147.856 117.131 147.869C119.085 147.881 121.015 148.281 122.812 149.046C124.609 149.811 126.235 150.925 127.598 152.324L137.533 142.389L137.092 142.662Z" fill="white"/>
<path d="M150.567 173.45L144.549 169.97C145.786 165.248 145.786 160.286 144.549 155.563L150.567 152.083C150.906 151.888 151.203 151.628 151.441 151.318C151.68 151.008 151.855 150.654 151.956 150.276C152.058 149.899 152.084 149.504 152.032 149.117C151.981 148.729 151.854 148.355 151.659 148.016L147.187 140.283C146.992 139.943 146.731 139.647 146.422 139.408C146.111 139.17 145.757 138.995 145.379 138.894C145.001 138.793 144.607 138.767 144.219 138.819C143.832 138.871 143.458 138.999 143.12 139.195L137.093 142.671C133.628 139.23 129.33 136.747 124.619 135.465V128.5C124.619 127.71 124.305 126.952 123.746 126.393C123.187 125.835 122.429 125.521 121.639 125.521H112.7C112.309 125.521 111.921 125.598 111.559 125.747C111.198 125.897 110.87 126.117 110.593 126.393C110.316 126.67 110.097 126.999 109.947 127.36C109.797 127.721 109.72 128.109 109.72 128.5V135.456C105.008 136.738 100.708 139.221 97.2417 142.662L91.2185 139.186C90.8801 138.989 90.5057 138.862 90.1177 138.81C89.7297 138.759 89.3353 138.784 88.9573 138.885C88.5789 138.986 88.2245 139.161 87.9137 139.399C87.6029 139.637 87.3429 139.934 87.1473 140.273L82.6801 148.007C82.4841 148.345 82.3569 148.719 82.3057 149.107C82.2541 149.495 82.2797 149.888 82.3805 150.266C82.4817 150.643 82.6561 150.997 82.8937 151.308C83.1317 151.618 83.4289 151.879 83.7673 152.074L89.7905 155.554C88.5529 160.277 88.5529 165.239 89.7905 169.961L83.7673 173.441C83.4289 173.637 83.1317 173.897 82.8937 174.207C82.6561 174.517 82.4817 174.872 82.3805 175.249C82.2797 175.627 82.2541 176.021 82.3057 176.409C82.3569 176.796 82.4841 177.169 82.6801 177.508L87.1473 185.241C87.3429 185.581 87.6029 185.878 87.9137 186.116C88.2245 186.355 88.5789 186.529 88.9573 186.631C89.3353 186.731 89.7297 186.757 90.1177 186.705C90.5057 186.653 90.8801 186.525 91.2185 186.329L97.2417 182.853C100.708 186.294 105.008 188.777 109.72 190.059V197.042C109.72 197.433 109.797 197.821 109.947 198.183C110.097 198.544 110.316 198.873 110.593 199.149C110.87 199.426 111.198 199.645 111.559 199.795C111.921 199.945 112.309 200.022 112.7 200.022H121.639C122.429 200.022 123.187 199.708 123.746 199.149C124.305 198.591 124.619 197.832 124.619 197.042V190.077C129.33 188.796 133.628 186.313 137.093 182.871L143.12 186.347C143.458 186.543 143.832 186.671 144.219 186.723C144.607 186.775 145.001 186.749 145.379 186.648C145.757 186.547 146.111 186.373 146.422 186.135C146.731 185.896 146.992 185.599 147.187 185.26L151.659 177.526C151.856 177.187 151.984 176.813 152.036 176.424C152.088 176.035 152.062 175.64 151.96 175.261C151.859 174.882 151.684 174.527 151.445 174.217C151.205 173.906 150.907 173.645 150.567 173.45ZM117.167 177.517C114.249 177.518 111.396 176.654 108.969 175.033C106.543 173.413 104.651 171.109 103.534 168.413C102.417 165.717 102.124 162.751 102.693 159.889C103.261 157.027 104.666 154.398 106.729 152.334C108.792 150.271 111.421 148.865 114.283 148.295C117.145 147.726 120.111 148.018 122.807 149.134C125.503 150.251 127.807 152.141 129.429 154.568C131.05 156.994 131.915 159.847 131.915 162.764C131.915 166.677 130.362 170.428 127.596 173.195C124.83 175.961 121.079 177.516 117.167 177.517Z" stroke="#45413C" stroke-linecap="round" stroke-linejoin="round"/>
<path d="M225.537 19.4941H32.1981C27.4929 19.4941 22.9801 21.3633 19.6529 24.6905C16.3257 28.0177 14.4565 32.5305 14.4565 37.2357V61.6781H243.269V37.2265C243.267 32.5245 241.398 28.0153 238.073 24.6905C234.748 21.3653 230.239 19.4965 225.537 19.4941Z" fill="white"/>
<path d="M225.537 19.4945H32.1981C27.4929 19.4945 22.9801 21.3637 19.6529 24.6909C16.3257 28.0181 14.4565 32.5309 14.4565 37.2361V61.6829H243.269V37.2221C243.266 32.5213 241.396 28.0133 238.071 24.6893C234.747 21.3653 230.239 19.4973 225.537 19.4945Z" stroke="#45413C" stroke-linecap="round" stroke-linejoin="round"/>
<path d="M41.073 49.3373C45.9698 49.3373 49.9394 45.3677 49.9394 40.4709C49.9394 35.5741 45.9698 31.6045 41.073 31.6045C36.1762 31.6045 32.207 35.5741 32.207 40.4709C32.207 45.3677 36.1766 49.3373 41.073 49.3373Z" fill="#FF6242"/>
<path d="M72.7355 49.3373C77.6319 49.3373 81.6015 45.3677 81.6015 40.4709C81.6015 35.5741 77.6319 31.6045 72.7355 31.6045C67.8391 31.6045 63.8691 35.5741 63.8691 40.4709C63.8691 45.3677 67.8387 49.3373 72.7355 49.3373Z" fill="#FFE500"/>
<path d="M104.393 49.3373C109.29 49.3373 113.259 45.3677 113.259 40.4709C113.259 35.5741 109.29 31.6045 104.393 31.6045C99.4961 31.6045 95.5269 35.5741 95.5269 40.4709C95.5269 45.3677 99.4965 49.3373 104.393 49.3373Z" fill="#6DD627"/>
<path d="M225.541 19.4941H32.2114C22.4182 19.4941 14.479 27.4329 14.479 37.2265V184.041C14.479 193.835 22.4182 201.774 32.2114 201.774H225.541C235.334 201.774 243.273 193.835 243.273 184.041V37.2265C243.273 27.4329 235.334 19.4941 225.541 19.4941Z" stroke="#45413C" stroke-linecap="round" stroke-linejoin="round"/>
<path d="M266.042 280.794L247.777 382.927H277.488L299.142 305.314C299.253 303.528 300.041 301.851 301.345 300.626C302.65 299.401 304.372 298.718 306.161 298.718C307.951 298.718 309.673 299.401 310.977 300.626C312.281 301.851 313.069 303.528 313.181 305.314L334.816 382.949H364.527L346.28 280.794H266.042Z" fill="#87898C"/>
<path d="M348.668 294.155L346.28 280.794H266.042L263.654 294.155H348.668Z" fill="#87898C"/>
<path d="M266.042 280.794L247.777 382.927H277.488L299.142 305.314C299.253 303.528 300.041 301.851 301.345 300.626C302.65 299.401 304.372 298.718 306.161 298.718C307.951 298.718 309.673 299.401 310.977 300.626C312.281 301.851 313.069 303.528 313.181 305.314L334.816 382.949H364.527L346.28 280.794H266.042Z" stroke="#45413C" stroke-linecap="round" stroke-linejoin="round"/>
<path opacity="0.15" d="M306.366 396C340.454 396 368.089 391.855 368.089 386.742C368.089 381.629 340.454 377.484 306.366 377.484C272.277 377.484 244.643 381.629 244.643 386.742C244.643 391.855 272.277 396 306.366 396Z" fill="#45413C"/>
<path d="M250.434 385.725C249.376 385.735 248.332 385.473 247.405 384.962C246.478 384.451 245.698 383.71 245.142 382.81C244.585 381.91 244.27 380.88 244.227 379.823C244.184 378.765 244.416 377.714 244.898 376.772C246.5 373.876 248.849 371.462 251.7 369.782C254.552 368.102 257.802 367.217 261.111 367.219H264.195C267.505 367.217 270.755 368.102 273.606 369.782C276.458 371.462 278.806 373.876 280.408 376.772C280.891 377.714 281.122 378.765 281.079 379.823C281.036 380.88 280.722 381.91 280.165 382.81C279.608 383.71 278.828 384.451 277.901 384.962C276.974 385.473 275.931 385.735 274.872 385.725H250.434Z" fill="#87898C" stroke="#45413C" stroke-linecap="round" stroke-linejoin="round"/>
<path d="M361.888 385.725C362.946 385.734 363.989 385.471 364.915 384.96C365.842 384.449 366.621 383.708 367.177 382.808C367.733 381.907 368.048 380.879 368.09 379.822C368.133 378.764 367.902 377.714 367.42 376.772C365.819 373.875 363.47 371.46 360.618 369.78C357.767 368.1 354.517 367.215 351.207 367.219H348.122C344.817 367.222 341.573 368.109 338.727 369.789C335.881 371.469 333.536 373.88 331.936 376.772C331.454 377.714 331.223 378.765 331.266 379.823C331.309 380.88 331.623 381.909 332.18 382.81C332.737 383.71 333.517 384.451 334.444 384.962C335.371 385.473 336.414 385.735 337.473 385.725H361.888Z" fill="#87898C" stroke="#45413C" stroke-linecap="round" stroke-linejoin="round"/>
<path d="M346.28 265.613V280.793H266.056V192.776C251.844 197.921 240.89 214.248 226.574 258.525L205.106 249.882C219.418 192.494 248.938 157.348 306.161 157.348C314.13 157.149 322.058 158.543 329.48 161.45C336.903 164.357 343.67 168.716 349.385 174.273C355.1 179.83 359.647 186.472 362.761 193.81C365.874 201.148 367.491 209.034 367.516 217.005V244.377C367.516 250.009 365.278 255.411 361.296 259.393C357.314 263.375 351.912 265.613 346.28 265.613Z" fill="#DAEDF7"/>
<path d="M306.161 157.348C248.938 157.348 219.418 192.494 205.106 249.886L208.436 251.224C223.803 200.947 253.018 170.608 306.161 170.608C314.129 170.409 322.056 171.803 329.478 174.709C336.9 177.614 343.666 181.972 349.381 187.527C355.096 193.083 359.644 199.724 362.758 207.061C365.872 214.397 367.49 222.282 367.515 230.252V217.005C367.491 209.034 365.874 201.148 362.761 193.81C359.647 186.472 355.1 179.83 349.385 174.273C343.67 168.716 336.903 164.357 329.48 161.45C322.058 158.544 314.13 157.149 306.161 157.348Z" fill="white"/>
<path d="M346.28 265.613V280.793H266.056V192.776C251.844 197.921 240.89 214.248 226.574 258.525L205.106 249.882C219.418 192.494 248.938 157.348 306.161 157.348C314.13 157.149 322.058 158.543 329.48 161.45C336.903 164.357 343.67 168.716 349.385 174.273C355.1 179.83 359.647 186.472 362.761 193.81C365.874 201.148 367.491 209.034 367.516 217.005V244.377C367.516 250.009 365.278 255.411 361.296 259.393C357.314 263.375 351.912 265.613 346.28 265.613Z" stroke="#45413C" stroke-linecap="round" stroke-linejoin="round"/>
<path d="M302.527 174.425L293.815 241.274L306.161 255.418L318.508 241.274L307.895 174.425H302.527Z" fill="#6DD627" stroke="#45413C" stroke-linecap="round" stroke-linejoin="round"/>
<path d="M346.28 265.613H309.259V243.182H339.37C340.957 243.182 342.478 242.552 343.6 241.43C344.722 240.308 345.352 238.786 345.352 237.199L346.28 265.613Z" fill="#DAEDF7"/>
<path d="M266.042 268.465C266.074 257.765 266.042 233.723 266.042 200.965" stroke="#45413C" stroke-linecap="round" stroke-linejoin="round"/>
<path d="M306.161 171.172C303.08 171.172 300.079 171.272 297.158 171.472V184.547C297.158 186.133 297.788 187.655 298.911 188.776C300.032 189.898 301.553 190.529 303.14 190.529H307.28C308.067 190.531 308.848 190.379 309.576 190.08C310.305 189.78 310.967 189.34 311.525 188.785C312.083 188.229 312.525 187.568 312.827 186.841C313.129 186.114 313.285 185.334 313.285 184.547V171.568C310.919 171.313 308.541 171.181 306.161 171.172Z" fill="#6DD627" stroke="#45413C" stroke-linecap="round" stroke-linejoin="round"/>
<path d="M346.28 268.451H266.042V280.798H346.28V268.451Z" fill="#B89558" stroke="#45413C" stroke-linecap="round" stroke-linejoin="round"/>
<path d="M318.799 158.553L305.438 176.705L292.177 158.099L292.209 138.605H318.83L318.799 158.553Z" fill="#BF8256" stroke="#45413C" stroke-linecap="round" stroke-linejoin="round"/>
<path d="M292.182 158.102C284.429 158.921 276.801 160.66 269.459 163.283L286.291 187.521L305.397 176.694L292.182 158.102Z" fill="white" stroke="#45413C" stroke-linecap="round" stroke-linejoin="round"/>
<path d="M318.799 158.549L305.438 176.7L323.493 186.79L337.036 165.159C331.344 162.006 325.189 159.775 318.799 158.549Z" fill="white" stroke="#45413C" stroke-linecap="round" stroke-linejoin="round"/>
<path d="M346.28 265.613H309.259V243.181H339.37C340.957 243.181 342.478 242.55 343.6 241.429C344.722 240.307 345.352 238.785 345.352 237.199V208.234" stroke="#45413C" stroke-linecap="round" stroke-linejoin="round"/>
<path d="M165.142 95.1797C154.258 86.8397 141.056 82.0781 127.355 81.5501C113.653 81.0225 100.124 84.7541 88.6298 92.2321L133.83 126.91L133.525 154.555L106.904 162.016L61.717 127.329C57.4618 140.365 57.3562 154.402 61.4146 167.502C65.4734 180.601 73.4962 192.119 84.377 200.467C95.2578 208.815 108.46 213.581 122.164 214.109C135.868 214.636 149.398 210.9 160.889 203.413L278.002 293.272C282.657 296.829 288.533 298.393 294.34 297.622C300.147 296.851 305.411 293.808 308.978 289.16C312.543 284.512 314.12 278.639 313.361 272.83C312.601 267.021 309.569 261.751 304.928 258.176L187.801 168.321C192.05 155.283 192.152 141.249 188.094 128.15C184.036 115.051 176.017 103.533 165.142 95.1797Z" fill="#ADC4D9"/>
<path d="M190.986 150.669C189.064 141.192 185.086 132.252 179.333 124.48C173.58 116.707 166.192 110.291 157.69 105.684C149.188 101.077 139.779 98.392 130.126 97.8168C120.473 97.2424 110.811 98.7924 101.823 102.358L88.6299 92.2312C98.8355 85.5784 110.678 81.868 122.855 81.5092C135.032 81.1504 147.072 84.1564 157.651 90.1968C168.231 96.2364 176.94 105.077 182.821 115.746C188.702 126.415 191.527 138.499 190.986 150.669Z" fill="#DAEDF7"/>
<path d="M312.589 282.294C311.119 279.187 308.937 276.471 306.221 274.364L189.094 184.51C190.457 180.261 191.388 175.885 191.873 171.449L304.929 258.174C308.519 260.929 311.178 264.718 312.547 269.031C313.917 273.343 313.932 277.972 312.589 282.294Z" fill="#DAEDF7"/>
<path d="M133.667 141.976L135.131 143.1L134.831 170.749L108.205 178.196L63.009 143.522C61.1402 149.323 60.0782 155.352 59.8522 161.442C57.4938 150.101 58.1314 138.342 61.7034 127.323L106.904 162.015L133.525 154.563L133.667 141.976Z" fill="#DAEDF7"/>
<path d="M294.32 267.46C296.022 268.814 297.123 270.783 297.388 272.941C297.653 275.1 297.06 277.277 295.736 279.002C294.412 280.728 292.464 281.865 290.31 282.169C288.157 282.472 285.97 281.918 284.221 280.625L173.008 195.301L183.107 182.141L294.32 267.46Z" fill="#8CA4B8" stroke="#45413C" stroke-linecap="round" stroke-linejoin="round"/>
<path d="M165.142 95.1797C154.258 86.8397 141.056 82.0781 127.355 81.5501C113.653 81.0225 100.124 84.7541 88.6298 92.2321L133.83 126.91L133.525 154.555L106.904 162.016L61.717 127.329C57.4618 140.365 57.3562 154.402 61.4146 167.502C65.4734 180.601 73.4962 192.119 84.377 200.467C95.2578 208.815 108.46 213.581 122.164 214.109C135.868 214.636 149.398 210.9 160.889 203.413L278.002 293.272C282.657 296.829 288.533 298.393 294.34 297.622C300.147 296.851 305.411 293.808 308.978 289.16C312.543 284.512 314.12 278.639 313.361 272.83C312.601 267.021 309.569 261.751 304.928 258.176L187.801 168.321C192.05 155.283 192.152 141.249 188.094 128.15C184.036 115.051 176.017 103.533 165.142 95.1797Z" stroke="#45413C" stroke-linecap="round" stroke-linejoin="round"/>
<path d="M218.394 260.381L205.202 253.844C203.551 253.143 202.188 251.898 201.342 250.316C200.495 248.733 200.216 246.91 200.548 245.146L202.368 238.404C202.757 237.394 203.364 236.482 204.148 235.734C204.93 234.987 205.869 234.422 206.896 234.08C207.924 233.738 209.014 233.628 210.088 233.758C211.163 233.887 212.196 234.253 213.113 234.829L228.721 242.562C229.733 242.946 230.647 243.548 231.399 244.326C232.15 245.104 232.721 246.038 233.068 247.063C233.416 248.087 233.534 249.176 233.411 250.251C233.288 251.326 232.93 252.36 232.36 253.28L228.098 258.816C226.898 260.139 225.283 261.014 223.52 261.298C221.757 261.583 219.95 261.26 218.394 260.381Z" fill="#BF8256" stroke="#45413C" stroke-linecap="round" stroke-linejoin="round"/>
<path d="M298.555 244.013C297.137 244.02 295.734 244.306 294.426 244.856C293.119 245.405 291.933 246.206 290.935 247.214C289.937 248.222 289.147 249.417 288.611 250.73C288.075 252.043 287.803 253.448 287.81 254.867C287.817 256.285 288.103 257.688 288.653 258.996C289.203 260.303 290.004 261.49 291.012 262.487C292.02 263.485 293.215 264.274 294.527 264.811C295.84 265.347 297.246 265.619 298.664 265.612H309.259V243.958L298.555 244.013Z" fill="#BF8256" stroke="#45413C" stroke-linecap="round" stroke-linejoin="round"/>
<path d="M348.546 118.403C348.53 116.63 347.901 114.917 346.766 113.555C345.63 112.194 344.059 111.267 342.318 110.933V105.929C342.318 96.0185 338.381 86.5141 331.373 79.5065C324.366 72.4993 314.861 68.5625 304.951 68.5625C295.041 68.5625 285.537 72.4993 278.529 79.5065C271.521 86.5141 267.584 96.0189 267.584 105.929V110.933C265.765 111.269 264.13 112.254 262.983 113.706C261.836 115.158 261.258 116.978 261.353 118.825C261.449 120.673 262.213 122.423 263.503 123.749C264.794 125.075 266.523 125.886 268.367 126.032C270.122 134.435 274.716 141.978 281.379 147.392C288.041 152.807 296.364 155.763 304.949 155.763C313.534 155.763 321.857 152.807 328.519 147.392C335.181 141.978 339.776 134.435 341.531 126.032C343.439 125.86 345.215 124.983 346.512 123.573C347.809 122.162 348.534 120.319 348.546 118.403Z" fill="#BF8256" stroke="#45413C" stroke-linecap="round" stroke-linejoin="round"/>
<path d="M295.607 138.642C298.373 136.796 301.624 135.812 304.949 135.812C308.274 135.812 311.525 136.796 314.291 138.642" stroke="#45413C" stroke-linecap="round" stroke-linejoin="round"/>
<path d="M286.268 127.741C293.147 127.741 298.723 122.165 298.723 115.286C298.723 108.407 293.147 102.83 286.268 102.83C279.388 102.83 273.812 108.407 273.812 115.286C273.812 122.165 279.388 127.741 286.268 127.741Z" fill="#00B8F0"/>
<path d="M295.088 106.479C293.935 105.307 292.561 104.376 291.046 103.738C289.531 103.1 287.905 102.768 286.261 102.762C284.617 102.755 282.989 103.075 281.469 103.701C279.949 104.327 278.568 105.248 277.405 106.41C276.243 107.573 275.322 108.953 274.696 110.473C274.07 111.993 273.751 113.622 273.757 115.266C273.764 116.91 274.095 118.536 274.733 120.051C275.371 121.566 276.303 122.94 277.474 124.093L295.088 106.479Z" fill="#4ACFFF"/>
<path d="M323.634 127.741C330.514 127.741 336.09 122.165 336.09 115.286C336.09 108.407 330.514 102.83 323.634 102.83C316.755 102.83 311.179 108.407 311.179 115.286C311.179 122.165 316.755 127.741 323.634 127.741Z" fill="#00B8F0"/>
<path d="M332.442 106.479C331.288 105.307 329.914 104.376 328.4 103.738C326.884 103.1 325.258 102.768 323.614 102.762C321.97 102.755 320.342 103.075 318.822 103.701C317.302 104.327 315.921 105.248 314.758 106.41C313.596 107.573 312.676 108.953 312.05 110.473C311.423 111.993 311.104 113.622 311.11 115.266C311.117 116.91 311.448 118.536 312.086 120.051C312.724 121.566 313.656 122.94 314.827 124.093L332.442 106.479Z" fill="#4ACFFF"/>
<path d="M298.728 115.286C298.728 113.634 299.384 112.05 300.552 110.882C301.72 109.714 303.304 109.058 304.956 109.058C306.608 109.058 308.191 109.714 309.359 110.882C310.527 112.05 311.183 113.634 311.183 115.286" stroke="#45413C" stroke-linecap="round" stroke-linejoin="round"/>
<path d="M286.268 127.741C293.147 127.741 298.723 122.165 298.723 115.286C298.723 108.407 293.147 102.83 286.268 102.83C279.388 102.83 273.812 108.407 273.812 115.286C273.812 122.165 279.388 127.741 286.268 127.741Z" stroke="#45413C" stroke-linecap="round" stroke-linejoin="round"/>
<path d="M323.634 127.741C330.514 127.741 336.09 122.165 336.09 115.286C336.09 108.407 330.514 102.83 323.634 102.83C316.755 102.83 311.179 108.407 311.179 115.286C311.179 122.165 316.755 127.741 323.634 127.741Z" stroke="#45413C" stroke-linecap="round" stroke-linejoin="round"/>
<path d="M332.255 48.7912C330.792 48.0724 329.108 47.9516 327.557 48.4532C326.007 48.9548 324.712 50.0404 323.948 51.4796C322.262 54.576 315.93 56.1244 304.951 56.1244C273.812 56.1244 276.924 81.0356 276.924 81.0356C261.356 81.0356 267.584 109.058 267.584 109.058H269.058C271.487 108.72 273.712 107.518 275.326 105.672C276.94 103.827 277.836 101.461 277.847 99.0092C278.002 98.0324 278.351 97.0972 278.873 96.2584C279.396 95.4192 280.081 94.6936 280.89 94.1244C281.698 93.5552 282.612 93.1536 283.578 92.9444C284.544 92.7348 285.542 92.7208 286.513 92.9044C298.682 95.3484 311.216 95.3484 323.384 92.9044C324.355 92.7208 325.354 92.7348 326.32 92.9444C327.286 93.1536 328.2 93.5552 329.008 94.1244C329.816 94.6936 330.502 95.4192 331.024 96.2584C331.547 97.0972 331.896 98.0324 332.05 99.0092C332.063 101.461 332.958 103.826 334.572 105.672C336.186 107.517 338.411 108.72 340.839 109.058H342.318C352.453 73.4384 344.087 54.6188 332.255 48.7912Z" fill="#614B44"/>
<path d="M332.255 48.7868C330.792 48.0696 329.107 47.95 327.557 48.4528C326.007 48.9548 324.713 50.0408 323.949 51.4796C322.262 54.5764 315.93 56.1244 304.951 56.1244C273.812 56.1244 276.924 81.0356 276.924 81.0356C277.511 74.03 289.379 68.58 304.951 68.58C320.523 68.58 344.779 67.752 346.567 86.9492C348.386 65.4136 341.344 53.2904 332.255 48.7868Z" fill="#A86C4D"/>
<path d="M332.255 48.7912C330.792 48.0724 329.108 47.9516 327.557 48.4532C326.007 48.9548 324.712 50.0404 323.948 51.4796C322.262 54.576 315.93 56.1244 304.951 56.1244C273.812 56.1244 276.924 81.0356 276.924 81.0356C261.356 81.0356 267.584 109.058 267.584 109.058H269.058C271.487 108.72 273.712 107.518 275.326 105.672C276.94 103.827 277.836 101.461 277.847 99.0092C278.002 98.0324 278.351 97.0972 278.873 96.2584C279.396 95.4192 280.081 94.6936 280.89 94.1244C281.698 93.5552 282.612 93.1536 283.578 92.9444C284.544 92.7348 285.542 92.7208 286.513 92.9044C298.682 95.3484 311.216 95.3484 323.384 92.9044C324.355 92.7208 325.354 92.7348 326.32 92.9444C327.286 93.1536 328.2 93.5552 329.008 94.1244C329.816 94.6936 330.502 95.4192 331.024 96.2584C331.547 97.0972 331.896 98.0324 332.05 99.0092C332.063 101.461 332.958 103.826 334.572 105.672C336.186 107.517 338.411 108.72 340.839 109.058H342.318C352.453 73.4384 344.087 54.6188 332.255 48.7912Z" stroke="#45413C" stroke-linecap="round" stroke-linejoin="round"/>
</svg>
