<svg width="1175" height="1059" viewBox="0 0 1175 1059" fill="none" xmlns="http://www.w3.org/2000/svg">
<g clip-path="url(#clip0_127_896)">
<rect width="1175" height="1059" fill="white"/>
<path opacity="0.2" d="M508.164 448.234C821.966 235.439 909.397 44.3163 913.887 -24.646L-11.3108 -19.4721L-5.22511 1068.78C41.449 1059.02 166.088 1011.02 291.253 897.079C447.708 754.653 321.147 575.205 508.164 448.234Z" fill="#0E183B"/>
<path opacity="0.2" d="M414.865 285.941C618.35 179.871 712.51 36.7562 734.154 -21.5427L-11.5866 -17.3724L-5.57688 1057.3C24.877 1046.55 105.66 999.555 185.158 897.564C349.671 632.199 148.428 440.809 414.865 285.941Z" fill="#37457A"/>
<path opacity="0.2" d="M502.854 -20.2483L-8.51313 -17.3886L-4.65748 672.084C91.3742 644.004 144.068 486.714 143.231 337.068C142.815 262.681 192.294 174.054 317.31 112.996C418.093 63.7729 479.846 2.22084 502.854 -20.2483Z" fill="#6D81CF"/>
<path opacity="0.2" d="M326.63 459.021C-191.47 793.717 -324.075 1072.53 -325.615 1170.09L1257.37 1059.06L1149.98 -471.966C1070.97 -452.996 861.933 -371.455 657.871 -197.049C402.794 20.9591 635.389 259.339 326.63 459.021Z" fill="#0E183B"/>
<path opacity="0.2" d="M500.769 676.986C161.963 849.096 13.5646 1061.09 -18.2837 1145.57L1257.65 1056.08L1151.61 -455.841C1100.44 -437.298 966.376 -362.095 839.405 -209.629C581.493 182.319 942.967 429.133 500.769 676.986Z" fill="#37457A"/>
<path opacity="0.2" d="M522.415 655.5C-11.1301 841.27 -250.142 1059.62 -302.956 1145.57L1684.62 1006.16L1578.57 -505.755C1498.29 -485.17 1286.89 -404.543 1083.51 -246.717C667.198 156.34 1219.68 389.756 522.415 655.5Z" fill="#37457A"/>
<path opacity="0.2" d="M289.705 33.6224C687.453 -52.9849 893.292 -223.876 946.492 -298.495L-422.097 -516.073L-660.063 980.76C-601.723 974.93 -442.687 933.752 -273.264 815.679C89.9196 495.793 -234.799 169.259 289.705 33.6224Z" fill="#37457A"/>
<path opacity="0.2" d="M377.463 1117.81L1252.4 1056.44L1184.36 86.4481C1022.51 136.739 946.339 364.033 961.106 574.564C968.446 679.216 891.662 809.508 683.143 909.465C515.041 990.048 414.839 1083.61 377.463 1117.81Z" fill="#6D81CF"/>
</g>
<defs>
<clipPath id="clip0_127_896">
<rect width="1175" height="1059" fill="white"/>
</clipPath>
</defs>
</svg>
