<svg width="85" height="42" viewBox="0 0 85 42" fill="none" xmlns="http://www.w3.org/2000/svg">
<path d="M0.863703 40.8164H84V1.00017C61.0636 1.00017 71.4203 1.00017 48.4839 1.00017" stroke="#E42121" stroke-width="1.59265"/>
<path d="M0.86377 40.8164L48.6433 1.00017" stroke="#E42121" stroke-width="1.59265"/>
<path d="M51.1632 20.2277C51.1632 19.8913 51.1428 19.555 51.102 19.2186C51.0715 18.8822 51.0307 18.5663 50.9797 18.2707C50.9288 17.9649 50.8829 17.6999 50.8421 17.4756L52.9826 17.1698C53.0234 17.3737 53.0642 17.6438 53.105 17.9802C53.1457 18.3165 53.1814 18.6733 53.212 19.0504C53.2426 19.4174 53.2579 19.769 53.2579 20.1054C53.2579 20.6354 53.212 21.1349 53.1202 21.6038C53.0285 22.0726 52.8909 22.516 52.7074 22.9339C52.524 23.3417 52.2946 23.7341 52.0194 24.1112L51.7442 24.4782C51.4792 24.8044 51.1683 25.1254 50.8115 25.4414C50.465 25.7574 50.0827 26.0632 49.6648 26.3588H50.6586C51.0052 26.3588 51.2702 26.3384 51.4537 26.2976C51.6372 26.2568 51.7595 26.2008 51.8206 26.1294C51.892 26.0479 51.9277 25.9562 51.9277 25.8542C51.9277 25.6708 51.7697 25.4006 51.4537 25.0439C51.1377 24.6769 50.6994 24.259 50.1388 23.7902C49.5782 23.3111 48.9207 22.8065 48.1665 22.2765C47.4224 21.7363 46.6171 21.196 45.7507 20.6558L46.8669 19.0198C48.0696 19.7639 49.0838 20.4469 49.9095 21.0686C50.7453 21.6904 51.4282 22.2561 51.9582 22.7658C52.4985 23.2754 52.9164 23.7392 53.212 24.1571C53.5076 24.575 53.7114 24.9521 53.8236 25.2885C53.9357 25.6147 53.9917 25.9103 53.9917 26.1753C53.9917 26.4709 53.9459 26.7563 53.8541 27.0315C53.7624 27.2965 53.6146 27.5361 53.4107 27.7501C53.2069 27.954 52.9419 28.1171 52.6157 28.2394C52.2895 28.3617 51.8869 28.4229 51.4078 28.4229H46.9127V26.3741C47.9626 25.6198 48.7933 24.9063 49.4049 24.2335C50.0267 23.5608 50.4752 22.8983 50.7504 22.2459C51.0256 21.5936 51.1632 20.9208 51.1632 20.2277Z" fill="#E42121"/>
</svg>
