<svg width="7" height="10" viewBox="0 0 7 10" fill="none" xmlns="http://www.w3.org/2000/svg">
<path d="M2.484 9.264L1.884 9.084L4.332 0.804L4.932 0.995999L2.484 9.264ZM1.668 4.368C1.388 4.368 1.148 4.308 0.948 4.188C0.748 4.06 0.592 3.868 0.48 3.612C0.376 3.356 0.324 3.032 0.324 2.64C0.324 2.248 0.376 1.928 0.48 1.68C0.592 1.432 0.748 1.252 0.948 1.14C1.148 1.02 1.388 0.96 1.668 0.96C1.948 0.96 2.188 1.02 2.388 1.14C2.588 1.252 2.74 1.432 2.844 1.68C2.956 1.928 3.012 2.248 3.012 2.64C3.012 3.032 2.956 3.356 2.844 3.612C2.74 3.868 2.588 4.06 2.388 4.188C2.188 4.308 1.948 4.368 1.668 4.368ZM1.668 3.696C1.812 3.696 1.924 3.66 2.004 3.588C2.084 3.508 2.14 3.388 2.172 3.228C2.212 3.068 2.232 2.872 2.232 2.64C2.232 2.408 2.212 2.216 2.172 2.064C2.14 1.912 2.084 1.8 2.004 1.728C1.924 1.656 1.812 1.62 1.668 1.62C1.532 1.62 1.42 1.656 1.332 1.728C1.252 1.8 1.196 1.912 1.164 2.064C1.132 2.216 1.116 2.408 1.116 2.64C1.116 2.872 1.132 3.068 1.164 3.228C1.204 3.388 1.264 3.508 1.344 3.588C1.424 3.66 1.532 3.696 1.668 3.696ZM5.124 9.12C4.844 9.12 4.604 9.06 4.404 8.94C4.204 8.812 4.048 8.62 3.936 8.364C3.832 8.108 3.78 7.784 3.78 7.392C3.78 7 3.832 6.68 3.936 6.432C4.048 6.184 4.204 6.004 4.404 5.892C4.604 5.772 4.844 5.712 5.124 5.712C5.412 5.712 5.652 5.772 5.844 5.892C6.044 6.004 6.196 6.184 6.3 6.432C6.412 6.68 6.468 7.004 6.468 7.404C6.468 7.796 6.412 8.12 6.3 8.376C6.196 8.632 6.044 8.82 5.844 8.94C5.652 9.06 5.412 9.12 5.124 9.12ZM5.124 8.46C5.268 8.46 5.38 8.424 5.46 8.352C5.54 8.272 5.596 8.152 5.628 7.992C5.668 7.832 5.688 7.636 5.688 7.404C5.688 7.164 5.668 6.968 5.628 6.816C5.596 6.664 5.54 6.556 5.46 6.492C5.38 6.42 5.268 6.384 5.124 6.384C4.988 6.384 4.88 6.42 4.8 6.492C4.72 6.556 4.66 6.664 4.62 6.816C4.58 6.968 4.56 7.16 4.56 7.392C4.56 7.624 4.58 7.824 4.62 7.992C4.66 8.152 4.72 8.272 4.8 8.352C4.88 8.424 4.988 8.46 5.124 8.46Z" fill="white"/>
</svg>
