<svg width="14" height="14" viewBox="0 0 14 14" fill="none" xmlns="http://www.w3.org/2000/svg">
<g clip-path="url(#clip0_192_2142)">
<path d="M12.8051 5.81533H8.34531V1.19424C8.34531 0.532519 7.80938 -0.00341797 7.14766 -0.00341797C6.48594 -0.00341797 5.95 0.532519 5.95 1.19424V5.81533H1.19219C0.535938 5.81533 0 6.35127 0 7.01299C0 7.67471 0.535938 8.21064 1.19766 8.21064H5.95547V12.8044C5.95547 13.4661 6.49141 14.002 7.15313 14.002C7.81485 14.002 8.35078 13.4661 8.35078 12.8044V8.21064H12.8105C13.4723 8.21064 14.0082 7.67471 14.0082 7.01299C14 6.35127 13.4668 5.81533 12.8051 5.81533Z" fill="white"/>
</g>
<defs>
<clipPath id="clip0_192_2142">
<rect width="14" height="14" fill="white"/>
</clipPath>
</defs>
</svg>
