<svg width="28" height="28" viewBox="0 0 28 28" fill="none" xmlns="http://www.w3.org/2000/svg">
<path fill-rule="evenodd" clip-rule="evenodd" d="M20.4167 3.47436C20.4167 2.50836 19.6327 1.72437 18.6667 1.72437H9.33337C8.36737 1.72437 7.58337 2.50836 7.58337 3.47436V7.5577C7.58337 7.8797 7.84471 8.14103 8.16671 8.14103H19.8334C20.1554 8.14103 20.4167 7.8797 20.4167 7.5577V3.47436ZM19.25 3.47436V6.97436H8.75004V3.47436C8.75004 3.15236 9.01137 2.89103 9.33337 2.89103H18.6667C18.9887 2.89103 19.25 3.15236 19.25 3.47436Z" fill="white"/>
<path fill-rule="evenodd" clip-rule="evenodd" d="M19.8333 19.8077H23.3333C24.2993 19.8077 25.0833 19.0249 25.0833 18.0577V8.72436C25.0833 7.75837 24.2993 6.97437 23.3333 6.97437C19.6571 6.97437 8.34279 6.97437 4.66663 6.97437C3.70063 6.97437 2.91663 7.75837 2.91663 8.72436V18.0577C2.91663 19.0249 3.70063 19.8077 4.66663 19.8077C5.49963 19.8077 6.72579 19.8077 8.16662 19.8077C8.48862 19.8077 8.74996 19.5464 8.74996 19.2244C8.74996 18.9024 8.48862 18.641 8.16662 18.641H4.66663C4.34463 18.641 4.08329 18.3797 4.08329 18.0577V8.72436C4.08329 8.40237 4.34463 8.14103 4.66663 8.14103H23.3333C23.6553 8.14103 23.9166 8.40237 23.9166 8.72436V18.0577C23.9166 18.3797 23.6553 18.641 23.3333 18.641H19.8333C19.5113 18.641 19.25 18.9024 19.25 19.2244C19.25 19.5464 19.5113 19.8077 19.8333 19.8077Z" fill="white"/>
<path fill-rule="evenodd" clip-rule="evenodd" d="M20.4167 15.141C20.4167 14.819 20.1554 14.5576 19.8334 14.5576H8.16671C7.84471 14.5576 7.58337 14.819 7.58337 15.141V25.641C7.58337 25.963 7.84471 26.2243 8.16671 26.2243H19.8334C20.1554 26.2243 20.4167 25.963 20.4167 25.641V15.141ZM19.25 15.7243V25.0576H8.75004V15.7243H19.25Z" fill="white"/>
<path fill-rule="evenodd" clip-rule="evenodd" d="M21 14.5577H6.99996C6.67796 14.5577 6.41663 14.819 6.41663 15.141C6.41663 15.463 6.67796 15.7244 6.99996 15.7244H21C21.322 15.7244 21.5833 15.463 21.5833 15.141C21.5833 14.819 21.322 14.5577 21 14.5577ZM16.3333 18.0577H11.6666C11.3446 18.0577 11.0833 18.319 11.0833 18.641C11.0833 18.963 11.3446 19.2244 11.6666 19.2244H16.3333C16.6553 19.2244 16.9166 18.963 16.9166 18.641C16.9166 18.319 16.6553 18.0577 16.3333 18.0577ZM16.3333 21.5577H11.6666C11.3446 21.5577 11.0833 21.819 11.0833 22.141C11.0833 22.463 11.3446 22.7244 11.6666 22.7244H16.3333C16.6553 22.7244 16.9166 22.463 16.9166 22.141C16.9166 21.819 16.6553 21.5577 16.3333 21.5577ZM21 10.4744H18.6666C18.3446 10.4744 18.0833 10.7357 18.0833 11.0577C18.0833 11.3797 18.3446 11.641 18.6666 11.641H21C21.322 11.641 21.5833 11.3797 21.5833 11.0577C21.5833 10.7357 21.322 10.4744 21 10.4744Z" fill="white"/>
</svg>
