<svg width="20" height="23" viewBox="0 0 20 23" fill="none" xmlns="http://www.w3.org/2000/svg">
<path fill-rule="evenodd" clip-rule="evenodd" d="M14.5834 3.40328C14.5834 2.66021 14.0234 2.05713 13.3334 2.05713H6.66675C5.97675 2.05713 5.41675 2.66021 5.41675 3.40328V6.54431C5.41675 6.792 5.60341 6.99302 5.83341 6.99302H14.1667C14.3967 6.99302 14.5834 6.792 14.5834 6.54431V3.40328ZM13.7501 3.40328V6.09559H6.25008V3.40328C6.25008 3.15559 6.43675 2.95456 6.66675 2.95456H13.3334C13.5634 2.95456 13.7501 3.15559 13.7501 3.40328Z" fill="black"/>
<path fill-rule="evenodd" clip-rule="evenodd" d="M14.1666 15.9675H16.6666C17.3566 15.9675 17.9166 15.3653 17.9166 14.6213V7.44186C17.9166 6.69878 17.3566 6.0957 16.6666 6.0957C14.0407 6.0957 5.95908 6.0957 3.33325 6.0957C2.64325 6.0957 2.08325 6.69878 2.08325 7.44186V14.6213C2.08325 15.3653 2.64325 15.9675 3.33325 15.9675C3.92825 15.9675 4.80408 15.9675 5.83325 15.9675C6.06325 15.9675 6.24992 15.7665 6.24992 15.5188C6.24992 15.2711 6.06325 15.0701 5.83325 15.0701H3.33325C3.10325 15.0701 2.91659 14.869 2.91659 14.6213V7.44186C2.91659 7.19416 3.10325 6.99314 3.33325 6.99314H16.6666C16.8966 6.99314 17.0832 7.19416 17.0832 7.44186V14.6213C17.0832 14.869 16.8966 15.0701 16.6666 15.0701H14.1666C13.9366 15.0701 13.7499 15.2711 13.7499 15.5188C13.7499 15.7665 13.9366 15.9675 14.1666 15.9675Z" fill="black"/>
<path fill-rule="evenodd" clip-rule="evenodd" d="M14.5834 12.3779C14.5834 12.1302 14.3967 11.9292 14.1667 11.9292H5.83341C5.60341 11.9292 5.41675 12.1302 5.41675 12.3779V20.4548C5.41675 20.7025 5.60341 20.9036 5.83341 20.9036H14.1667C14.3967 20.9036 14.5834 20.7025 14.5834 20.4548V12.3779ZM13.7501 12.8266V20.0061H6.25008V12.8266H13.7501Z" fill="black"/>
<path fill-rule="evenodd" clip-rule="evenodd" d="M14.9999 11.9291H4.99992C4.76992 11.9291 4.58325 12.1301 4.58325 12.3778C4.58325 12.6255 4.76992 12.8265 4.99992 12.8265H14.9999C15.2299 12.8265 15.4166 12.6255 15.4166 12.3778C15.4166 12.1301 15.2299 11.9291 14.9999 11.9291ZM11.6666 14.6214H8.33325C8.10325 14.6214 7.91659 14.8224 7.91659 15.0701C7.91659 15.3178 8.10325 15.5189 8.33325 15.5189H11.6666C11.8966 15.5189 12.0833 15.3178 12.0833 15.0701C12.0833 14.8224 11.8966 14.6214 11.6666 14.6214ZM11.6666 17.3137H8.33325C8.10325 17.3137 7.91659 17.5148 7.91659 17.7624C7.91659 18.0101 8.10325 18.2112 8.33325 18.2112H11.6666C11.8966 18.2112 12.0833 18.0101 12.0833 17.7624C12.0833 17.5148 11.8966 17.3137 11.6666 17.3137ZM14.9999 8.78809H13.3333C13.1033 8.78809 12.9166 8.98911 12.9166 9.2368C12.9166 9.4845 13.1033 9.68552 13.3333 9.68552H14.9999C15.2299 9.68552 15.4166 9.4845 15.4166 9.2368C15.4166 8.98911 15.2299 8.78809 14.9999 8.78809Z" fill="black"/>
</svg>
