<svg width="32" height="32" viewBox="0 0 32 32" fill="none" xmlns="http://www.w3.org/2000/svg">
<path d="M4.49805 29.499C4.43238 29.4991 4.36734 29.4862 4.30666 29.461C4.24598 29.4359 4.19085 29.3991 4.14441 29.3527C4.09797 29.3062 4.06114 29.2511 4.03603 29.1904C4.01092 29.1297 3.99801 29.0647 3.99805 28.999V2.49854C3.99805 2.36593 4.05073 2.23875 4.14449 2.14498C4.23826 2.05121 4.36544 1.99854 4.49805 1.99854C4.63066 1.99854 4.75783 2.05121 4.8516 2.14498C4.94537 2.23875 4.99805 2.36593 4.99805 2.49854V28.999C4.99808 29.0647 4.98518 29.1297 4.96006 29.1904C4.93495 29.2511 4.89812 29.3062 4.85168 29.3527C4.80525 29.3991 4.75011 29.4359 4.68943 29.461C4.62875 29.4862 4.56372 29.4991 4.49805 29.499ZM22.5029 29.499C22.4373 29.4991 22.3722 29.4862 22.3115 29.461C22.2509 29.4359 22.1957 29.3991 22.1493 29.3527C22.1029 29.3062 22.066 29.2511 22.0409 29.1904C22.0158 29.1297 22.0029 29.0647 22.0029 28.999V2.49854C22.0029 2.36593 22.0556 2.23875 22.1494 2.14498C22.2431 2.05121 22.3703 1.99854 22.5029 1.99854C22.6355 1.99854 22.7627 2.05121 22.8565 2.14498C22.9503 2.23875 23.0029 2.36593 23.0029 2.49854V28.999C23.003 29.0647 22.9901 29.1297 22.9649 29.1904C22.9398 29.2511 22.903 29.3062 22.8566 29.3527C22.8101 29.3991 22.755 29.4359 22.6943 29.461C22.6336 29.4862 22.5686 29.4991 22.5029 29.499ZM20.0054 23.0117H18.5064C18.3738 23.0117 18.2466 22.959 18.1528 22.8653C18.0591 22.7715 18.0064 22.6443 18.0064 22.5117C18.0064 22.3791 18.0591 22.2519 18.1528 22.1582C18.2466 22.0644 18.3738 22.0117 18.5064 22.0117H20.0054C20.138 22.0117 20.2652 22.0644 20.3589 22.1582C20.4527 22.2519 20.5054 22.3791 20.5054 22.5117C20.5054 22.6443 20.4527 22.7715 20.3589 22.8653C20.2652 22.959 20.138 23.0117 20.0054 23.0117ZM9.49805 23.0117H6.99805C6.86544 23.0117 6.73826 22.959 6.64449 22.8653C6.55073 22.7715 6.49805 22.6443 6.49805 22.5117C6.49805 22.3791 6.55073 22.2519 6.64449 22.1582C6.73826 22.0644 6.86544 22.0117 6.99805 22.0117H9.49805C9.63066 22.0117 9.75783 22.0644 9.8516 22.1582C9.94537 22.2519 9.99805 22.3791 9.99805 22.5117C9.99805 22.6443 9.94537 22.7715 9.8516 22.8653C9.75783 22.959 9.63066 23.0117 9.49805 23.0117ZM20.0054 21.0098H18.5064C18.3738 21.0098 18.2466 20.9571 18.1528 20.8633C18.0591 20.7695 18.0064 20.6424 18.0064 20.5098C18.0064 20.3772 18.0591 20.25 18.1528 20.1562C18.2466 20.0624 18.3738 20.0098 18.5064 20.0098H20.0054C20.138 20.0098 20.2652 20.0624 20.3589 20.1562C20.4527 20.25 20.5054 20.3772 20.5054 20.5098C20.5054 20.6424 20.4527 20.7695 20.3589 20.8633C20.2652 20.9571 20.138 21.0098 20.0054 21.0098ZM12.0005 21.0098H6.99805C6.86544 21.0098 6.73826 20.9571 6.64449 20.8633C6.55073 20.7695 6.49805 20.6424 6.49805 20.5098C6.49805 20.3772 6.55073 20.25 6.64449 20.1562C6.73826 20.0624 6.86544 20.0098 6.99805 20.0098H12.0005C12.1331 20.0098 12.2603 20.0624 12.3541 20.1562C12.4478 20.25 12.5005 20.3772 12.5005 20.5098C12.5005 20.6424 12.4478 20.7695 12.3541 20.8633C12.2603 20.9571 12.1331 21.0098 12.0005 21.0098ZM20.0054 25.0117H18.5064C18.3738 25.0117 18.2466 24.959 18.1528 24.8653C18.0591 24.7715 18.0064 24.6443 18.0064 24.5117C18.0064 24.3791 18.0591 24.2519 18.1528 24.1582C18.2466 24.0644 18.3738 24.0117 18.5064 24.0117H20.0054C20.138 24.0117 20.2652 24.0644 20.3589 24.1582C20.4527 24.2519 20.5054 24.3791 20.5054 24.5117C20.5054 24.6443 20.4527 24.7715 20.3589 24.8653C20.2652 24.959 20.138 25.0117 20.0054 25.0117ZM12.5015 25.0117H6.99805C6.86544 25.0117 6.73826 24.959 6.64449 24.8653C6.55073 24.7715 6.49805 24.6443 6.49805 24.5117C6.49805 24.3791 6.55073 24.2519 6.64449 24.1582C6.73826 24.0644 6.86544 24.0117 6.99805 24.0117H12.5015C12.6341 24.0117 12.7613 24.0644 12.855 24.1582C12.9488 24.2519 13.0015 24.3791 13.0015 24.5117C13.0015 24.6443 12.9488 24.7715 12.855 24.8653C12.7613 24.959 12.6341 25.0117 12.5015 25.0117ZM20.0029 16.9956H6.99805C6.86544 16.9956 6.73826 16.9429 6.64449 16.8492C6.55073 16.7554 6.49805 16.6282 6.49805 16.4956C6.49805 16.363 6.55073 16.2358 6.64449 16.1421C6.73826 16.0483 6.86544 15.9956 6.99805 15.9956H20.0029C20.1355 15.9956 20.2627 16.0483 20.3565 16.1421C20.4503 16.2358 20.5029 16.363 20.5029 16.4956C20.5029 16.6282 20.4503 16.7554 20.3565 16.8492C20.2627 16.9429 20.1355 16.9956 20.0029 16.9956ZM20.0054 27.0044H18.5064C18.3738 27.0044 18.2466 26.9517 18.1528 26.8579C18.0591 26.7642 18.0064 26.637 18.0064 26.5044C18.0064 26.3718 18.0591 26.2446 18.1528 26.1508C18.2466 26.0571 18.3738 26.0044 18.5064 26.0044H20.0054C20.138 26.0044 20.2652 26.0571 20.3589 26.1508C20.4527 26.2446 20.5054 26.3718 20.5054 26.5044C20.5054 26.637 20.4527 26.7642 20.3589 26.8579C20.2652 26.9517 20.138 27.0044 20.0054 27.0044ZM8.49707 27.0044H6.99805C6.86544 27.0044 6.73826 26.9517 6.64449 26.8579C6.55073 26.7642 6.49805 26.637 6.49805 26.5044C6.49805 26.3718 6.55073 26.2446 6.64449 26.1508C6.73826 26.0571 6.86544 26.0044 6.99805 26.0044H8.49707C8.62968 26.0044 8.75686 26.0571 8.85063 26.1508C8.94439 26.2446 8.99707 26.3718 8.99707 26.5044C8.99707 26.637 8.94439 26.7642 8.85063 26.8579C8.75686 26.9517 8.62968 27.0044 8.49707 27.0044ZM20.0054 19.0044H18.5064C18.3738 19.0044 18.2466 18.9517 18.1528 18.8579C18.0591 18.7642 18.0064 18.637 18.0064 18.5044C18.0064 18.3718 18.0591 18.2446 18.1528 18.1508C18.2466 18.0571 18.3738 18.0044 18.5064 18.0044H20.0054C20.138 18.0044 20.2652 18.0571 20.3589 18.1508C20.4527 18.2446 20.5054 18.3718 20.5054 18.5044C20.5054 18.637 20.4527 18.7642 20.3589 18.8579C20.2652 18.9517 20.138 19.0044 20.0054 19.0044ZM8.49707 19.0044H6.99805C6.86544 19.0044 6.73826 18.9517 6.64449 18.8579C6.55073 18.7642 6.49805 18.637 6.49805 18.5044C6.49805 18.3718 6.55073 18.2446 6.64449 18.1508C6.73826 18.0571 6.86544 18.0044 6.99805 18.0044H8.49707C8.62968 18.0044 8.75686 18.0571 8.85063 18.1508C8.94439 18.2446 8.99707 18.3718 8.99707 18.5044C8.99707 18.637 8.94439 18.7642 8.85063 18.8579C8.75686 18.9517 8.62968 19.0044 8.49707 19.0044Z" fill="black"/>
<path d="M23.0039 29.499H3.99707C3.86446 29.499 3.73728 29.4463 3.64352 29.3526C3.54975 29.2588 3.49707 29.1316 3.49707 28.999C3.49707 28.8664 3.54975 28.7392 3.64352 28.6455C3.73728 28.5517 3.86446 28.499 3.99707 28.499H23.0039C23.1365 28.499 23.2637 28.5517 23.3575 28.6455C23.4512 28.7392 23.5039 28.8664 23.5039 28.999C23.5039 29.1316 23.4512 29.2588 23.3575 29.3526C23.2637 29.4463 23.1365 29.499 23.0039 29.499ZM26.499 2.99852C26.4334 2.99856 26.3683 2.98566 26.3076 2.96054C26.247 2.93543 26.1918 2.8986 26.1454 2.85216C26.0989 2.80573 26.0621 2.75059 26.037 2.68991C26.0119 2.62923 25.999 2.5642 25.999 2.49852C25.9983 2.10169 25.8401 1.72136 25.5593 1.44101C25.2784 1.16066 24.8978 1.00321 24.501 1.00321C24.1041 1.00321 23.7235 1.16066 23.4427 1.44101C23.1618 1.72136 23.0037 2.10169 23.0029 2.49852C23.0029 2.63113 22.9503 2.75831 22.8565 2.85208C22.7627 2.94585 22.6355 2.99852 22.5029 2.99852C22.3703 2.99852 22.2431 2.94585 22.1494 2.85208C22.0556 2.75831 22.0029 2.63113 22.0029 2.49852C22.0039 1.83661 22.2675 1.20213 22.7358 0.73442C23.2042 0.266709 23.8391 0.00400744 24.501 0.00400744C25.1629 0.00400744 25.7977 0.266709 26.2661 0.73442C26.7345 1.20213 26.9981 1.83661 26.999 2.49852C26.9991 2.56419 26.9862 2.62923 26.961 2.68991C26.9359 2.75059 26.8991 2.80572 26.8527 2.85216C26.8062 2.8986 26.7511 2.93543 26.6904 2.96054C26.6297 2.98565 26.5647 2.99856 26.499 2.99852ZM28.5029 11.9985C27.8406 11.9978 27.2057 11.7344 26.7374 11.266C26.2691 10.7977 26.0056 10.1628 26.0049 9.50049C26.0049 9.36788 26.0576 9.2407 26.1513 9.14694C26.2451 9.05317 26.3723 9.00049 26.5049 9.00049C26.6375 9.00049 26.7647 9.05317 26.8584 9.14694C26.9522 9.2407 27.0049 9.36788 27.0049 9.50049C27.0049 9.8978 27.1627 10.2788 27.4437 10.5598C27.7246 10.8407 28.1056 10.9985 28.5029 10.9985C28.9002 10.9985 29.2813 10.8407 29.5622 10.5598C29.8431 10.2788 30.001 9.8978 30.001 9.50049C30.001 9.36788 30.0537 9.2407 30.1474 9.14694C30.2412 9.05317 30.3684 9.00049 30.501 9.00049C30.6336 9.00049 30.7608 9.05317 30.8545 9.14694C30.9483 9.2407 31.001 9.36788 31.001 9.50049C31.0002 10.1628 30.7368 10.7977 30.2685 11.266C29.8002 11.7344 29.1652 11.9978 28.5029 11.9985ZM4.5 2.99852C4.43433 2.99856 4.36929 2.98565 4.30861 2.96054C4.24793 2.93543 4.1928 2.8986 4.14636 2.85216C4.09993 2.80572 4.0631 2.75059 4.03798 2.68991C4.01287 2.62923 3.99996 2.56419 4 2.49852C4.00075 1.83623 4.26417 1.20128 4.73249 0.732967C5.2008 0.264656 5.83575 0.00123202 6.49805 0.000488281C6.63065 0.000488281 6.75783 0.0531667 6.8516 0.146935C6.94537 0.240703 6.99805 0.36788 6.99805 0.500488C6.99805 0.633097 6.94537 0.760274 6.8516 0.854042C6.75783 0.94781 6.63065 1.00049 6.49805 1.00049C6.10086 1.00089 5.72006 1.15884 5.43921 1.43969C5.15836 1.72054 5.0004 2.10134 5 2.49852C5.00004 2.56419 4.98713 2.62923 4.96202 2.68991C4.9369 2.75059 4.90007 2.80572 4.85364 2.85216C4.8072 2.8986 4.75207 2.93543 4.69139 2.96054C4.63071 2.98565 4.56567 2.99856 4.5 2.99852Z" fill="black"/>
<path d="M24.5019 1.00049H6.49804C6.36543 1.00049 6.23826 0.94781 6.14449 0.854042C6.05072 0.760274 5.99804 0.633097 5.99804 0.500488C5.99804 0.36788 6.05072 0.240703 6.14449 0.146935C6.23826 0.0531667 6.36543 0.000488281 6.49804 0.000488281H24.5019C24.6346 0.000488281 24.7617 0.0531667 24.8555 0.146935C24.9493 0.240703 25.0019 0.36788 25.0019 0.500488C25.0019 0.633097 24.9493 0.760274 24.8555 0.854042C24.7617 0.94781 24.6346 1.00049 24.5019 1.00049ZM26.499 10.0005C26.4333 10.0005 26.3683 9.98762 26.3076 9.96251C26.247 9.9374 26.1918 9.90057 26.1454 9.85413C26.0989 9.80769 26.0621 9.75256 26.037 9.69188C26.0119 9.6312 25.999 9.56616 25.999 9.50049V2.49852C25.999 2.36592 26.0517 2.23874 26.1455 2.14497C26.2392 2.0512 26.3664 1.99852 26.499 1.99852C26.6316 1.99852 26.7588 2.0512 26.8526 2.14497C26.9463 2.23874 26.999 2.36592 26.999 2.49852V9.50049C26.9991 9.56616 26.9861 9.6312 26.961 9.69188C26.9359 9.75256 26.8991 9.80769 26.8527 9.85413C26.8062 9.90057 26.7511 9.93739 26.6904 9.96251C26.6297 9.98762 26.5647 10.0005 26.499 10.0005ZM28.5029 11.9985H22.5C22.3674 11.9985 22.2402 11.9458 22.1464 11.8521C22.0527 11.7583 22 11.6311 22 11.4985C22 11.3659 22.0527 11.2387 22.1464 11.145C22.2402 11.0512 22.3674 10.9985 22.5 10.9985H28.5029C28.6355 10.9985 28.7627 11.0512 28.8565 11.145C28.9502 11.2387 29.0029 11.3659 29.0029 11.4985C29.0029 11.6311 28.9502 11.7583 28.8565 11.8521C28.7627 11.9458 28.6355 11.9985 28.5029 11.9985ZM30.501 10.0005C30.4353 10.0005 30.3703 9.98762 30.3096 9.96251C30.2489 9.93739 30.1938 9.90057 30.1474 9.85413C30.1009 9.80769 30.0641 9.75256 30.039 9.69188C30.0139 9.6312 30.001 9.56616 30.001 9.50049V6.99949C30.001 6.86688 30.0537 6.7397 30.1474 6.64594C30.2412 6.55217 30.3684 6.49949 30.501 6.49949C30.6336 6.49949 30.7608 6.55217 30.8545 6.64594C30.9483 6.7397 31.001 6.86688 31.001 6.99949V9.50049C31.001 9.56616 30.9881 9.6312 30.963 9.69188C30.9379 9.75256 30.9011 9.80769 30.8546 9.85413C30.8082 9.90057 30.7531 9.9374 30.6924 9.96251C30.6317 9.98762 30.5667 10.0005 30.501 10.0005ZM24.501 31.9995H2.49902C2.10133 31.9991 1.72005 31.8409 1.43884 31.5597C1.15763 31.2785 0.999458 30.8972 0.999023 30.4995V27.4971C0.999458 27.0994 1.15763 26.7181 1.43884 26.4369C1.72005 26.1557 2.10133 25.9975 2.49902 25.9971H4.49802C4.63063 25.9971 4.75781 26.0497 4.85158 26.1435C4.94534 26.2373 4.99802 26.3645 4.99802 26.4971C4.99802 26.6297 4.94534 26.7569 4.85158 26.8506C4.75781 26.9444 4.63063 26.9971 4.49802 26.9971H2.49902C2.36644 26.9972 2.23932 27.0499 2.14557 27.1436C2.05182 27.2374 1.99911 27.3645 1.99902 27.4971V30.4995C1.99911 30.6321 2.05182 30.7592 2.14557 30.853C2.23932 30.9467 2.36644 30.9994 2.49902 30.9995H24.501C24.6336 30.9994 24.7607 30.9467 24.8545 30.853C24.9482 30.7592 25.0009 30.6321 25.001 30.4995V27.4971C25.0011 27.3648 24.9487 27.2378 24.8554 27.1441C24.762 27.0504 24.6353 26.9975 24.5029 26.9971H22.504C22.3713 26.9971 22.2442 26.9444 22.1504 26.8506C22.0566 26.7569 22.004 26.6297 22.004 26.4971C22.004 26.3645 22.0566 26.2373 22.1504 26.1435C22.2442 26.0497 22.3713 25.9971 22.504 25.9971H24.5029C24.9004 25.9977 25.2813 26.1561 25.5622 26.4373C25.843 26.7185 26.0008 27.0996 26.001 27.4971V30.4995C26.0006 30.8972 25.8424 31.2785 25.5612 31.5597C25.28 31.8409 24.8987 31.9991 24.501 31.9995Z" fill="black"/>
<path d="M30.5009 7.49973C30.4353 7.4998 30.3702 7.4869 30.3096 7.46176C30.2489 7.43662 30.1938 7.39973 30.1474 7.35323L29.1474 6.35323C29.1003 6.30696 29.0629 6.25182 29.0372 6.19098C29.0115 6.13015 28.9981 6.06483 28.9978 5.99879C28.9975 5.93276 29.0103 5.86732 29.0354 5.80625C29.0606 5.74519 29.0975 5.68971 29.1442 5.64301C29.1909 5.59632 29.2464 5.55934 29.3075 5.53421C29.3685 5.50907 29.434 5.49629 29.5 5.49659C29.566 5.49689 29.6314 5.51026 29.6922 5.53595C29.753 5.56163 29.8082 5.59911 29.8544 5.64623L30.8544 6.64623C30.9244 6.71615 30.972 6.80524 30.9912 6.90221C31.0105 6.99919 31.0006 7.09971 30.9628 7.19106C30.925 7.28241 30.8609 7.36049 30.7787 7.41543C30.6965 7.47037 30.5998 7.49971 30.5009 7.49973Z" fill="black"/>
<path d="M28.5029 7.49799C28.4041 7.49797 28.3074 7.46864 28.2252 7.41369C28.143 7.35875 28.0789 7.28067 28.0411 7.18932C28.0033 7.09797 27.9934 6.99745 28.0127 6.90048C28.0319 6.8035 28.0795 6.71442 28.1494 6.64449L29.1475 5.64595C29.2412 5.55219 29.3684 5.49951 29.501 5.49951C29.6336 5.49951 29.7607 5.55218 29.8545 5.64594C29.9483 5.7397 30.0009 5.86686 30.0009 5.99945C30.0009 6.13205 29.9483 6.25921 29.8545 6.35297L28.8565 7.35151C28.8101 7.39802 28.755 7.4349 28.6943 7.46004C28.6337 7.48517 28.5686 7.49807 28.5029 7.49799Z" fill="black"/>
<path d="M28.499 7.49963C28.4333 7.4997 28.3683 7.4868 28.3076 7.46166C28.247 7.43652 28.1919 7.39964 28.1455 7.35313L27.1455 6.35313C27.053 6.25912 27.0013 6.13235 27.0018 6.00043C27.0024 5.86851 27.055 5.74215 27.1483 5.64887C27.2415 5.55559 27.3679 5.50296 27.4998 5.50245C27.6317 5.50193 27.7585 5.55358 27.8525 5.64613L28.8525 6.64613C28.9224 6.71606 28.97 6.80514 28.9893 6.90211C29.0086 6.99909 28.9987 7.09961 28.9609 7.19096C28.923 7.28231 28.859 7.36039 28.7768 7.41533C28.6946 7.47027 28.5979 7.49961 28.499 7.49963Z" fill="black"/>
<path d="M26.5 7.49804C26.4011 7.49802 26.3045 7.46869 26.2223 7.41374C26.1401 7.3588 26.076 7.28072 26.0382 7.18937C26.0003 7.09802 25.9904 6.9975 26.0097 6.90053C26.029 6.80355 26.0766 6.71447 26.1465 6.64454L27.1455 5.646C27.1919 5.59957 27.247 5.56275 27.3077 5.53762C27.3683 5.5125 27.4334 5.49957 27.499 5.49957C27.5647 5.49957 27.6297 5.5125 27.6903 5.53762C27.751 5.56275 27.8061 5.59957 27.8525 5.646C27.899 5.69242 27.9358 5.74754 27.9609 5.80819C27.986 5.86885 27.999 5.93386 27.999 5.99951C27.999 6.06517 27.986 6.13018 27.9609 6.19083C27.9358 6.25149 27.899 6.3066 27.8525 6.35303L26.8535 7.35157C26.8072 7.39807 26.7521 7.43495 26.6914 7.46009C26.6307 7.48523 26.5657 7.49812 26.5 7.49804ZM17.5 12.5H15C14.9 12.5 14.8024 12.47 14.7196 12.414C14.6368 12.3579 14.5728 12.2784 14.5356 12.1855L13.6616 10H13.3384L12.4644 12.1855C12.4272 12.2784 12.3632 12.3579 12.2804 12.414C12.1976 12.47 12.1 12.5 12 12.5H9.5C9.10231 12.4996 8.72103 12.3414 8.43982 12.0602C8.15861 11.779 8.00043 11.3977 8 11V6.49219C8.00043 6.0945 8.15861 5.71322 8.43982 5.43201C8.72103 5.1508 9.10231 4.99262 9.5 4.99219H17.5C17.8977 4.99262 18.279 5.1508 18.5602 5.43201C18.8414 5.71322 18.9996 6.0945 19 6.49219V11C18.9996 11.3977 18.8414 11.779 18.5602 12.0602C18.279 12.3414 17.8977 12.4996 17.5 12.5ZM15.3384 11.5H17.5C17.6326 11.4999 17.7597 11.4472 17.8535 11.3535C17.9472 11.2597 17.9999 11.1326 18 11V6.49219C17.9999 6.35961 17.9472 6.23248 17.8535 6.13873C17.7597 6.04498 17.6326 5.99228 17.5 5.99219H9.5C9.36742 5.99228 9.24029 6.04498 9.14654 6.13873C9.0528 6.23248 9.00009 6.35961 9 6.49219V11C9.00009 11.1326 9.0528 11.2597 9.14654 11.3535C9.24029 11.4472 9.36742 11.4999 9.5 11.5H11.6616L12.5356 9.31445C12.5728 9.22164 12.6368 9.14208 12.7196 9.08603C12.8024 9.02998 12.9 9.00002 13 9H14C14.1 9.00002 14.1976 9.02998 14.2804 9.08603C14.3632 9.14208 14.4272 9.22164 14.4644 9.31445L15.3384 11.5Z" fill="black"/>
<path d="M12.9995 13.0001C12.9221 13 12.8457 12.982 12.7764 12.9474L11.7764 12.4474C11.7175 12.4181 11.665 12.3775 11.6218 12.3279C11.5786 12.2783 11.5456 12.2206 11.5248 12.1583C11.5039 12.0959 11.4955 12.03 11.5001 11.9644C11.5048 11.8988 11.5223 11.8348 11.5517 11.7759C11.5811 11.7171 11.6218 11.6647 11.6715 11.6216C11.7213 11.5785 11.779 11.5457 11.8414 11.525C11.9038 11.5043 11.9697 11.4961 12.0353 11.5008C12.1009 11.5056 12.1649 11.5233 12.2237 11.5528L13.2237 12.0528C13.3245 12.1032 13.4053 12.1862 13.4531 12.2883C13.5008 12.3903 13.5127 12.5056 13.4867 12.6152C13.4608 12.7249 13.3985 12.8226 13.3101 12.8924C13.2217 12.9623 13.1122 13.0002 12.9995 13.0001Z" fill="black"/>
<path d="M14 13H13C12.8674 13 12.7402 12.9473 12.6464 12.8536C12.5527 12.7598 12.5 12.6326 12.5 12.5C12.5 12.3674 12.5527 12.2402 12.6464 12.1464C12.7402 12.0527 12.8674 12 13 12H14C14.1326 12 14.2598 12.0527 14.3536 12.1464C14.4473 12.2402 14.5 12.3674 14.5 12.5C14.5 12.6326 14.4473 12.7598 14.3536 12.8536C14.2598 12.9473 14.1326 13 14 13Z" fill="black"/>
<path d="M14.0005 13C13.8878 13.0001 13.7784 12.9622 13.6899 12.8923C13.6015 12.8225 13.5393 12.7248 13.5133 12.6151C13.4874 12.5055 13.4992 12.3902 13.547 12.2882C13.5947 12.1861 13.6756 12.1031 13.7764 12.0527L14.7764 11.5527C14.895 11.4938 15.0321 11.4843 15.1576 11.5263C15.2832 11.5683 15.387 11.6585 15.4462 11.7769C15.5054 11.8953 15.5153 12.0324 15.4735 12.1581C15.4318 12.2838 15.3419 12.3878 15.2236 12.4473L14.2236 12.9473C14.1543 12.9819 14.078 12.9999 14.0005 13ZM17.5 13.9932C17.3674 13.9932 17.2402 13.9405 17.1464 13.8467C17.0527 13.753 17 13.6258 17 13.4932C17 13.3606 17.0527 13.2334 17.1464 13.1396C17.2402 13.0458 17.3674 12.9932 17.5 12.9932C18.0284 12.9926 18.5351 12.7824 18.9088 12.4088C19.2824 12.0351 19.4926 11.5284 19.4932 11C19.4932 10.8674 19.5458 10.7402 19.6396 10.6464C19.7334 10.5527 19.8606 10.5 19.9932 10.5C20.1258 10.5 20.2529 10.5527 20.3467 10.6464C20.4405 10.7402 20.4932 10.8674 20.4932 11C20.4923 11.7936 20.1766 12.5543 19.6155 13.1155C19.0543 13.6766 18.2936 13.9923 17.5 13.9932Z" fill="black"/>
<path d="M20 11.5C19.9343 11.5 19.8693 11.4871 19.8086 11.462C19.7479 11.4369 19.6928 11.4001 19.6464 11.3536C19.5999 11.3072 19.5631 11.2521 19.538 11.1914C19.5129 11.1307 19.5 11.0657 19.5 11V4C19.5 3.86739 19.5527 3.74021 19.6464 3.64645C19.7402 3.55268 19.8674 3.5 20 3.5C20.1326 3.5 20.2598 3.55268 20.3536 3.64645C20.4473 3.74021 20.5 3.86739 20.5 4V11C20.5 11.0657 20.4871 11.1307 20.462 11.1914C20.4369 11.2521 20.4001 11.3072 20.3536 11.3536C20.3072 11.4001 20.2521 11.4369 20.1914 11.462C20.1307 11.4871 20.0657 11.5 20 11.5ZM17.5 14H16.5C16.3674 14 16.2402 13.9473 16.1464 13.8536C16.0527 13.7598 16 13.6326 16 13.5C16 13.3674 16.0527 13.2402 16.1464 13.1464C16.2402 13.0527 16.3674 13 16.5 13H17.5C17.6326 13 17.7598 13.0527 17.8536 13.1464C17.9473 13.2402 18 13.3674 18 13.5C18 13.6326 17.9473 13.7598 17.8536 13.8536C17.7598 13.9473 17.6326 14 17.5 14Z" fill="black"/>
<path d="M16.5 14C16.4343 14 16.3693 13.9871 16.3086 13.962C16.2479 13.9369 16.1928 13.9001 16.1464 13.8536C16.0999 13.8072 16.0631 13.7521 16.038 13.6914C16.0129 13.6307 16 13.5657 16 13.5V13C16 12.8674 16.0527 12.7402 16.1464 12.6464C16.2402 12.5527 16.3674 12.5 16.5 12.5C16.6326 12.5 16.7598 12.5527 16.8536 12.6464C16.9473 12.7402 17 12.8674 17 13V13.5C17 13.5657 16.9871 13.6307 16.962 13.6914C16.9369 13.7521 16.9001 13.8072 16.8536 13.8536C16.8072 13.9001 16.7521 13.9369 16.6914 13.962C16.6307 13.9871 16.5657 14 16.5 14ZM8.5 10H7C6.93433 10 6.86929 9.98713 6.80861 9.96202C6.74793 9.9369 6.6928 9.90007 6.64636 9.85364C6.59993 9.8072 6.5631 9.75207 6.53798 9.69139C6.51287 9.63071 6.49996 9.56567 6.5 9.5V8C6.49996 7.93433 6.51287 7.86929 6.53798 7.80861C6.5631 7.74793 6.59993 7.6928 6.64636 7.64636C6.6928 7.59993 6.74793 7.5631 6.80861 7.53798C6.86929 7.51287 6.93433 7.49996 7 7.5H8.5C8.56567 7.49996 8.63071 7.51287 8.69139 7.53798C8.75207 7.5631 8.8072 7.59993 8.85364 7.64636C8.90007 7.6928 8.9369 7.74793 8.96202 7.80861C8.98713 7.86929 9.00004 7.93433 9 8V9.5C9.00004 9.56567 8.98713 9.63071 8.96202 9.69139C8.9369 9.75207 8.90007 9.8072 8.85364 9.85364C8.8072 9.90007 8.75207 9.9369 8.69139 9.96202C8.63071 9.98713 8.56567 10 8.5 10ZM7.5 9H8V8.5H7.5V9ZM20 10H18.5C18.4343 10 18.3693 9.98713 18.3086 9.96202C18.2479 9.9369 18.1928 9.90007 18.1464 9.85364C18.0999 9.8072 18.0631 9.75207 18.038 9.69139C18.0129 9.63071 18 9.56567 18 9.5V8C18 7.93433 18.0129 7.86929 18.038 7.80861C18.0631 7.74793 18.0999 7.6928 18.1464 7.64636C18.1928 7.59993 18.2479 7.5631 18.3086 7.53798C18.3693 7.51287 18.4343 7.49996 18.5 7.5H20C20.0657 7.49996 20.1307 7.51287 20.1914 7.53798C20.2521 7.5631 20.3072 7.59993 20.3536 7.64636C20.4001 7.6928 20.4369 7.74793 20.462 7.80861C20.4871 7.86929 20.5 7.93433 20.5 8V9.5C20.5 9.56567 20.4871 9.63071 20.462 9.69139C20.4369 9.75207 20.4001 9.8072 20.3536 9.85364C20.3072 9.90007 20.2521 9.9369 20.1914 9.96202C20.1307 9.98713 20.0657 10 20 10ZM19 9H19.5V8.5H19V9Z" fill="black"/>
</svg>
