<svg width="34" height="35" viewBox="0 0 34 35" fill="none" xmlns="http://www.w3.org/2000/svg">
<path d="M13.4585 21.146L13.4585 16.771" stroke="#222222" stroke-linecap="round"/>
<path d="M20.5415 21.146L20.5415 16.771" stroke="#222222" stroke-linecap="round"/>
<path d="M4.25 9.479H29.75H28.7917C26.906 9.479 25.9632 9.479 25.3775 10.0648C24.7917 10.6506 24.7917 11.5934 24.7917 13.479V24.4373C24.7917 26.323 24.7917 27.2658 24.2059 27.8516C23.6201 28.4373 22.6773 28.4373 20.7917 28.4373H13.2083C11.3227 28.4373 10.3799 28.4373 9.79412 27.8516C9.20833 27.2658 9.20833 26.323 9.20833 24.4373V13.479C9.20833 11.5934 9.20833 10.6506 8.62255 10.0648C8.03676 9.479 7.09395 9.479 5.20833 9.479H4.25Z" stroke="#222222" stroke-linecap="round"/>
<path d="M13.4582 5.10468C13.4582 5.10468 14.1665 3.646 16.9998 3.646C19.8332 3.646 20.5415 5.10433 20.5415 5.10433" stroke="#222222" stroke-linecap="round"/>
</svg>
