<svg width="30" height="24" viewBox="0 0 30 24" fill="none" xmlns="http://www.w3.org/2000/svg">
<path d="M21.6667 22.6663C22.374 22.6663 23.0523 22.3854 23.5524 21.8853C24.0525 21.3852 24.3334 20.7069 24.3334 19.9997C24.3334 19.2924 24.0525 18.6142 23.5524 18.1141C23.0523 17.614 22.374 17.333 21.6667 17.333C20.9595 17.333 20.2812 17.614 19.7811 18.1141C19.281 18.6142 19.0001 19.2924 19.0001 19.9997C19.0001 20.7069 19.281 21.3852 19.7811 21.8853C20.2812 22.3854 20.9595 22.6663 21.6667 22.6663ZM8.33341 22.6663C9.04066 22.6663 9.71894 22.3854 10.219 21.8853C10.7191 21.3852 11.0001 20.7069 11.0001 19.9997C11.0001 19.2924 10.7191 18.6142 10.219 18.1141C9.71894 17.614 9.04066 17.333 8.33341 17.333C7.62617 17.333 6.94789 17.614 6.4478 18.1141C5.9477 18.6142 5.66675 19.2924 5.66675 19.9997C5.66675 20.7069 5.9477 21.3852 6.4478 21.8853C6.94789 22.3854 7.62617 22.6663 8.33341 22.6663Z" stroke="black" stroke-width="1.5" stroke-linecap="round" stroke-linejoin="round"/>
<path d="M24.3334 10.6663H28.3334M28.3334 10.6663V13.333C28.3334 16.4757 28.3334 18.0463 27.3574 19.0237C26.7081 19.673 25.7961 19.8903 24.3334 19.9623M28.3334 10.6663L26.6321 7.50634C25.7121 5.79701 25.2521 4.94234 24.4614 4.47167C23.6721 3.99967 22.7027 3.99967 20.7614 3.99967H18.3334M5.66675 19.9623C4.20408 19.8903 3.29341 19.673 2.64275 19.0237C1.66675 18.0463 1.66675 16.4757 1.66675 13.333V7.99967C1.66675 4.85701 1.66675 3.28501 2.64275 2.30901C3.61875 1.33301 5.19075 1.33301 8.33341 1.33301H12.7334C14.2227 1.33301 14.9667 1.33301 15.5694 1.52901C16.1697 1.72408 16.7153 2.05844 17.1617 2.50477C17.608 2.95109 17.9423 3.49671 18.1374 4.09701C18.3334 4.69967 18.3334 5.44367 18.3334 6.93301C18.3334 8.55967 18.3334 9.37434 17.8881 9.92501C17.8001 10.0335 17.7014 10.1321 17.5921 10.221C17.0414 10.6663 16.2281 10.6663 14.6001 10.6663H9.66675M19.0001 19.9997H11.0001" stroke="black" stroke-width="1.5" stroke-linecap="round" stroke-linejoin="round"/>
<path d="M12.3334 13.3333C12.3334 13.3333 11.4374 12.592 10.6494 11.888C10.0934 11.44 9.66675 11.0573 9.66675 10.6733C9.66675 10.3333 10.0001 10.0173 10.5414 9.52133C11.3094 8.88267 12.3334 8 12.3334 8" stroke="black" stroke-width="1.5" stroke-linecap="round" stroke-linejoin="round"/>
</svg>
