<svg width="32" height="32" viewBox="0 0 32 32" fill="none" xmlns="http://www.w3.org/2000/svg">
<g clip-path="url(#clip0_192_2670)">
<path d="M31.4353 21.8354L27.6235 13.4589V6.0707C27.6235 5.78835 27.4353 5.60011 27.1529 5.60011H25.6471V0.941291C25.6471 0.658938 25.4588 0.470703 25.1765 0.470703H18.9176C18.6353 0.470703 18.4471 0.658938 18.4471 0.941291V5.60011H4.84705C4.5647 5.60011 4.37646 5.78835 4.37646 6.0707V13.4119L0.51764 21.9295C0.423522 22.1178 0.470581 22.3531 0.658816 22.4942V31.0589C0.658816 31.3413 0.847052 31.5295 1.1294 31.5295H31.0588C31.3412 31.5295 31.5294 31.3413 31.5294 31.0589V22.1648C31.5294 22.0707 31.5294 21.9766 31.4353 21.8354ZM24.7529 1.41188V9.22365H19.3882V6.02364V1.41188H24.7529ZM18.4471 6.54129V9.74129C18.4471 10.0236 18.6353 10.2119 18.9176 10.2119H25.2235C25.5059 10.2119 25.6941 10.0236 25.6941 9.74129V6.54129H26.7294V13.0825H5.31764V6.54129H18.4471ZM5.1294 14.0236H26.8706L30.3059 21.6472H1.64705L5.1294 14.0236ZM30.5882 30.5884H1.59999V22.5884H30.5882V30.5884Z" fill="#010101"/>
<path d="M7.19996 11.7178H15.9058C16.1882 11.7178 16.3764 11.5296 16.3764 11.2472V8.14132C16.3764 7.85897 16.1882 7.67073 15.9058 7.67073H7.19996C6.91761 7.67073 6.72937 7.85897 6.72937 8.14132V11.2472C6.72937 11.5296 6.96466 11.7178 7.19996 11.7178ZM7.67055 8.61191H15.4353V10.7766H7.67055V8.61191ZM18.9176 11.7178H25.2235C25.5058 11.7178 25.6941 11.5296 25.6941 11.2472C25.6941 10.9649 25.5058 10.7766 25.2235 10.7766H18.9176C18.6353 10.7766 18.447 10.9649 18.447 11.2472C18.447 11.5296 18.6353 11.7178 18.9176 11.7178ZM20.2823 8.09426H21.3176C21.6 8.09426 21.7882 7.90603 21.7882 7.62367C21.7882 7.34132 21.6 7.15309 21.3176 7.15309H20.2823C20 7.15309 19.8117 7.34132 19.8117 7.62367C19.8117 7.90603 20 8.09426 20.2823 8.09426ZM22.8235 8.09426H23.8588C24.1411 8.09426 24.3294 7.90603 24.3294 7.62367C24.3294 7.34132 24.1411 7.15309 23.8588 7.15309H22.8235C22.5411 7.15309 22.3529 7.34132 22.3529 7.62367C22.3529 7.90603 22.5882 8.09426 22.8235 8.09426ZM20.2823 5.78838H21.3176C21.6 5.78838 21.7882 5.60014 21.7882 5.31779C21.7882 5.03544 21.6 4.8472 21.3176 4.8472H20.2823C20 4.8472 19.8117 5.03544 19.8117 5.31779C19.8117 5.60014 20 5.78838 20.2823 5.78838ZM22.8235 5.78838H23.8588C24.1411 5.78838 24.3294 5.60014 24.3294 5.31779C24.3294 5.03544 24.1411 4.8472 23.8588 4.8472H22.8235C22.5411 4.8472 22.3529 5.03544 22.3529 5.31779C22.3529 5.60014 22.5882 5.78838 22.8235 5.78838ZM20.2823 3.52956H21.3176C21.6 3.52956 21.7882 3.34132 21.7882 3.05897C21.7882 2.77661 21.6 2.58838 21.3176 2.58838H20.2823C20 2.58838 19.8117 2.77661 19.8117 3.05897C19.8117 3.34132 20 3.52956 20.2823 3.52956ZM22.8235 3.52956H23.8588C24.1411 3.52956 24.3294 3.34132 24.3294 3.05897C24.3294 2.77661 24.1411 2.58838 23.8588 2.58838H22.8235C22.5411 2.58838 22.3529 2.77661 22.3529 3.05897C22.3529 3.34132 22.5882 3.52956 22.8235 3.52956ZM7.19996 16.8472H24.7529C25.0353 16.8472 25.2235 16.659 25.2235 16.3766C25.2235 16.0943 25.0353 15.906 24.7529 15.906H7.19996C6.91761 15.906 6.72937 16.0943 6.72937 16.3766C6.72937 16.659 6.96466 16.8472 7.19996 16.8472ZM24.7529 18.7296H7.19996C6.91761 18.7296 6.72937 18.9178 6.72937 19.2001C6.72937 19.4825 6.91761 19.6707 7.19996 19.6707H24.7529C25.0353 19.6707 25.2235 19.4825 25.2235 19.2001C25.2235 18.9178 25.0353 18.7296 24.7529 18.7296ZM9.22349 28.6119H22.9647C23.247 28.6119 23.4353 28.4237 23.4353 28.1413V25.1296C23.4353 24.8472 23.247 24.659 22.9647 24.659H9.22349C8.94114 24.659 8.7529 24.8472 8.7529 25.1296V28.1413C8.7529 28.4237 8.98819 28.6119 9.22349 28.6119ZM9.69408 25.6472H22.4941V27.7178H9.69408V25.6472Z" fill="#010101"/>
</g>
<defs>
<clipPath id="clip0_192_2670">
<rect width="32" height="32" fill="white"/>
</clipPath>
</defs>
</svg>
