<svg width="46" height="42" viewBox="0 0 46 42" fill="none" xmlns="http://www.w3.org/2000/svg">
<g clip-path="url(#clip0_192_2686)">
<path d="M31.4353 21.8354L27.6235 13.4589V6.0707C27.6235 5.78835 27.4353 5.60011 27.1529 5.60011H25.6471V0.941291C25.6471 0.658938 25.4588 0.470703 25.1765 0.470703H18.9176C18.6353 0.470703 18.4471 0.658938 18.4471 0.941291V5.60011H4.84705C4.5647 5.60011 4.37646 5.78835 4.37646 6.0707V13.4119L0.51764 21.9295C0.423522 22.1178 0.470581 22.3531 0.658816 22.4942V31.0589C0.658816 31.3413 0.847052 31.5295 1.1294 31.5295H31.0588C31.3412 31.5295 31.5294 31.3413 31.5294 31.0589V22.1648C31.5294 22.0707 31.5294 21.9766 31.4353 21.8354ZM24.7529 1.41188V9.22365H19.3882V6.02364V1.41188H24.7529ZM18.4471 6.54129V9.74129C18.4471 10.0236 18.6353 10.2119 18.9176 10.2119H25.2235C25.5059 10.2119 25.6941 10.0236 25.6941 9.74129V6.54129H26.7294V13.0825H5.31764V6.54129H18.4471ZM5.1294 14.0236H26.8706L30.3059 21.6472H1.64705L5.1294 14.0236ZM30.5882 30.5884H1.59999V22.5884H30.5882V30.5884Z" fill="#010101"/>
<path d="M7.19996 11.7178H15.9058C16.1882 11.7178 16.3764 11.5296 16.3764 11.2472V8.14132C16.3764 7.85897 16.1882 7.67073 15.9058 7.67073H7.19996C6.91761 7.67073 6.72937 7.85897 6.72937 8.14132V11.2472C6.72937 11.5296 6.96466 11.7178 7.19996 11.7178ZM7.67055 8.61191H15.4353V10.7766H7.67055V8.61191ZM18.9176 11.7178H25.2235C25.5058 11.7178 25.6941 11.5296 25.6941 11.2472C25.6941 10.9649 25.5058 10.7766 25.2235 10.7766H18.9176C18.6353 10.7766 18.447 10.9649 18.447 11.2472C18.447 11.5296 18.6353 11.7178 18.9176 11.7178ZM20.2823 8.09426H21.3176C21.6 8.09426 21.7882 7.90603 21.7882 7.62367C21.7882 7.34132 21.6 7.15309 21.3176 7.15309H20.2823C20 7.15309 19.8117 7.34132 19.8117 7.62367C19.8117 7.90603 20 8.09426 20.2823 8.09426ZM22.8235 8.09426H23.8588C24.1411 8.09426 24.3294 7.90603 24.3294 7.62367C24.3294 7.34132 24.1411 7.15309 23.8588 7.15309H22.8235C22.5411 7.15309 22.3529 7.34132 22.3529 7.62367C22.3529 7.90603 22.5882 8.09426 22.8235 8.09426ZM20.2823 5.78838H21.3176C21.6 5.78838 21.7882 5.60014 21.7882 5.31779C21.7882 5.03544 21.6 4.8472 21.3176 4.8472H20.2823C20 4.8472 19.8117 5.03544 19.8117 5.31779C19.8117 5.60014 20 5.78838 20.2823 5.78838ZM22.8235 5.78838H23.8588C24.1411 5.78838 24.3294 5.60014 24.3294 5.31779C24.3294 5.03544 24.1411 4.8472 23.8588 4.8472H22.8235C22.5411 4.8472 22.3529 5.03544 22.3529 5.31779C22.3529 5.60014 22.5882 5.78838 22.8235 5.78838ZM20.2823 3.52956H21.3176C21.6 3.52956 21.7882 3.34132 21.7882 3.05897C21.7882 2.77661 21.6 2.58838 21.3176 2.58838H20.2823C20 2.58838 19.8117 2.77661 19.8117 3.05897C19.8117 3.34132 20 3.52956 20.2823 3.52956ZM22.8235 3.52956H23.8588C24.1411 3.52956 24.3294 3.34132 24.3294 3.05897C24.3294 2.77661 24.1411 2.58838 23.8588 2.58838H22.8235C22.5411 2.58838 22.3529 2.77661 22.3529 3.05897C22.3529 3.34132 22.5882 3.52956 22.8235 3.52956ZM7.19996 16.8472H24.7529C25.0353 16.8472 25.2235 16.659 25.2235 16.3766C25.2235 16.0943 25.0353 15.906 24.7529 15.906H7.19996C6.91761 15.906 6.72937 16.0943 6.72937 16.3766C6.72937 16.659 6.96466 16.8472 7.19996 16.8472ZM24.7529 18.7296H7.19996C6.91761 18.7296 6.72937 18.9178 6.72937 19.2001C6.72937 19.4825 6.91761 19.6707 7.19996 19.6707H24.7529C25.0353 19.6707 25.2235 19.4825 25.2235 19.2001C25.2235 18.9178 25.0353 18.7296 24.7529 18.7296ZM9.22349 28.6119H22.9647C23.247 28.6119 23.4353 28.4237 23.4353 28.1413V25.1296C23.4353 24.8472 23.247 24.659 22.9647 24.659H9.22349C8.94114 24.659 8.7529 24.8472 8.7529 25.1296V28.1413C8.7529 28.4237 8.98819 28.6119 9.22349 28.6119ZM9.69408 25.6472H22.4941V27.7178H9.69408V25.6472Z" fill="#010101"/>
</g>
<path d="M23.6542 23.7601C23.8755 23.7173 24.1052 23.7623 24.2924 23.8853C24.6621 24.1308 24.7693 24.6166 24.536 24.9891L24.4747 25.1094C24.2434 25.6393 24.45 26.2661 24.9745 26.5591C25.3988 26.813 25.748 27.1705 25.9879 27.5963C26.7346 28.9358 26.2712 30.612 24.9355 31.4025C24.3707 31.718 24.1745 32.4207 24.497 32.9725L25.1693 34.1049C25.3223 34.3747 25.5814 34.5719 25.8867 34.6509C26.192 34.73 26.5171 34.684 26.7869 34.5235C27.2219 34.2772 27.7165 34.149 28.2193 34.1524C29.8338 34.1524 31.1426 35.4305 31.1426 37.0071C31.1479 37.6445 31.6786 38.1585 32.3314 38.1584L32.3216 38.1775C32.6245 38.1775 32.9043 38.3353 33.0558 38.5914C33.2072 38.8475 33.2072 39.1631 33.0558 39.4192C32.9043 39.6754 32.6245 39.8332 32.3216 39.8332C30.7071 39.8332 29.3983 38.5551 29.3983 36.9785C29.401 36.7779 29.347 36.5803 29.2424 36.4076C28.9155 35.8549 28.1929 35.6636 27.6249 35.9794L27.4517 36.0644C26.1117 36.6694 24.503 36.2017 23.7272 34.9517L23.0646 33.8194C22.3178 32.4799 22.7813 30.8037 24.117 30.0132C24.294 29.9115 24.4416 29.7674 24.5457 29.5945C24.7411 29.3286 24.8114 28.9939 24.7388 28.6743C24.6663 28.3547 24.4579 28.0803 24.1657 27.9198L24.0033 27.8165C22.7935 26.9903 22.3977 25.3974 23.1133 24.1137L23.1963 24.0106C23.3172 23.8827 23.4772 23.7944 23.6542 23.7601ZM41.1268 26.5102C41.5109 26.3756 41.9481 26.5216 42.1633 26.8731C42.4015 27.2648 42.2708 27.7709 41.8709 28.0055C41.6939 28.1072 41.5464 28.2513 41.4422 28.4241C41.2834 28.6889 41.2394 29.0045 41.3199 29.3011C41.4004 29.5976 41.5987 29.8505 41.8709 30.0037C43.2498 30.8108 43.7025 32.5537 42.8843 33.905L42.2217 35.0374L42.1159 35.196C41.2698 36.3774 39.6386 36.7639 38.324 36.065C37.9595 35.8501 37.5042 35.8457 37.1354 36.0535C36.7665 36.2613 36.5425 36.6484 36.5506 37.0642C36.5039 37.4897 36.1362 37.8124 35.698 37.8124C35.2597 37.8124 34.892 37.4897 34.8454 37.0642C34.8663 36.0665 35.4192 35.1519 36.3036 34.652C37.188 34.1522 38.2755 34.1395 39.1718 34.6187C39.4411 34.7769 39.7646 34.8215 40.0683 34.7424C40.3714 34.6594 40.6298 34.465 40.7893 34.2L41.4519 33.0677C41.6103 32.8044 41.6541 32.4902 41.5735 32.1952C41.4929 31.9002 41.2948 31.6489 41.0232 31.4976C40.5666 31.2259 40.1983 30.8333 39.9611 30.3653C39.2143 29.0258 39.6778 27.3496 41.0135 26.5591L41.1268 26.5102ZM32.994 25.4268C33.9648 25.4243 34.8967 25.7991 35.5841 26.4685C36.2715 27.138 36.6578 28.0471 36.6578 28.9951L36.6517 29.2111C36.5715 30.5719 35.7031 31.7784 34.4028 32.3073C33.034 32.8641 31.4566 32.5603 30.4067 31.5378C29.3568 30.5154 29.0416 28.9757 29.6081 27.6376C30.1746 26.2995 31.5112 25.4268 32.994 25.4268ZM32.994 27.1015C31.9176 27.1015 31.0451 27.9535 31.0451 29.0046C31.0451 30.0556 31.9176 30.9077 32.994 30.9077C34.0703 30.9077 34.9428 30.0556 34.9428 29.0046L34.9363 28.8485C34.855 27.8705 34.0165 27.1015 32.994 27.1015ZM33.6663 18.1665C35.2808 18.1665 36.5896 19.4446 36.5896 21.0211C36.587 21.2218 36.6409 21.4193 36.7455 21.5921C36.9007 21.8595 37.159 22.0552 37.4628 22.1357C37.7666 22.2161 38.0908 22.1745 38.363 22.0203C39.7348 21.291 41.4512 21.7436 42.2607 23.0479C42.4844 23.446 42.3469 23.9455 41.9489 24.1803C41.5445 24.4057 41.0297 24.2748 40.7893 23.8853L40.7128 23.7732C40.3568 23.3119 39.6969 23.1719 39.1718 23.4666C38.277 23.9451 37.1914 23.9334 36.3076 23.4358C35.4238 22.9382 34.8696 22.0266 34.8454 21.0307C34.8559 20.7187 34.7364 20.416 34.5141 20.1918C34.2918 19.9676 33.9859 19.8411 33.6663 19.8412H32.3314C32.0109 19.8411 31.704 19.9673 31.4802 20.1913C31.2564 20.4152 31.1347 20.7178 31.1426 21.0307C31.1335 22.032 30.5789 22.9529 29.687 23.4472C28.7952 23.9415 27.7012 23.9344 26.8161 23.4285L26.7771 23.3905L26.6834 23.3247C26.3611 23.0644 26.2774 22.6051 26.5043 22.2486C26.7519 21.8597 27.2754 21.7405 27.6736 21.9822C27.8514 22.0835 28.0525 22.1391 28.2583 22.144C28.5736 22.1568 28.8813 22.0467 29.1134 21.8379C29.3456 21.629 29.4831 21.3386 29.4958 21.0307C29.4898 19.4832 30.7474 18.2129 32.3314 18.1665H33.6663Z" fill="#200E32"/>
<defs>
<clipPath id="clip0_192_2686">
<rect width="32" height="32" fill="white"/>
</clipPath>
</defs>
</svg>
