<svg width="20" height="20" viewBox="0 0 20 20" fill="none" xmlns="http://www.w3.org/2000/svg">
<path d="M10 11.6667H10.8333C11.75 11.6667 12.5 10.9167 12.5 10V1.66669H5C3.75 1.66669 2.65834 2.35834 2.09167 3.37501" stroke="#0E183B" stroke-width="1.5" stroke-linecap="round" stroke-linejoin="round"/>
<path d="M1.66667 14.1667C1.66667 15.55 2.78334 16.6667 4.16667 16.6667H5C5 15.75 5.75 15 6.66667 15C7.58334 15 8.33334 15.75 8.33334 16.6667H11.6667C11.6667 15.75 12.4167 15 13.3333 15C14.25 15 15 15.75 15 16.6667H15.8333C17.2167 16.6667 18.3333 15.55 18.3333 14.1667V11.6667H15.8333C15.375 11.6667 15 11.2917 15 10.8334V8.33335C15 7.87502 15.375 7.50002 15.8333 7.50002H16.9083L15.4834 5.00836C15.1834 4.4917 14.6334 4.16669 14.0334 4.16669H12.5V10C12.5 10.9167 11.75 11.6667 10.8333 11.6667H10" stroke="#0E183B" stroke-width="1.5" stroke-linecap="round" stroke-linejoin="round"/>
<path d="M6.66667 18.3333C7.58714 18.3333 8.33333 17.5871 8.33333 16.6667C8.33333 15.7462 7.58714 15 6.66667 15C5.74619 15 5 15.7462 5 16.6667C5 17.5871 5.74619 18.3333 6.66667 18.3333Z" stroke="#0E183B" stroke-width="1.5" stroke-linecap="round" stroke-linejoin="round"/>
<path d="M13.3333 18.3333C14.2538 18.3333 15 17.5871 15 16.6667C15 15.7462 14.2538 15 13.3333 15C12.4129 15 11.6667 15.7462 11.6667 16.6667C11.6667 17.5871 12.4129 18.3333 13.3333 18.3333Z" stroke="#0E183B" stroke-width="1.5" stroke-linecap="round" stroke-linejoin="round"/>
<path d="M18.3333 10V11.6667H15.8333C15.375 11.6667 15 11.2917 15 10.8333V8.33333C15 7.875 15.375 7.5 15.8333 7.5H16.9083L18.3333 10Z" stroke="#0E183B" stroke-width="1.5" stroke-linecap="round" stroke-linejoin="round"/>
<path d="M1.66667 6.66669H6.66667" stroke="#0E183B" stroke-width="1.5" stroke-linecap="round" stroke-linejoin="round"/>
<path d="M1.66667 9.16669H5" stroke="#0E183B" stroke-width="1.5" stroke-linecap="round" stroke-linejoin="round"/>
<path d="M1.66667 11.6667H3.33334" stroke="#0E183B" stroke-width="1.5" stroke-linecap="round" stroke-linejoin="round"/>
</svg>
