<svg width="55" height="71" viewBox="0 0 55 71" fill="none" xmlns="http://www.w3.org/2000/svg">
<path d="M34.375 16.6365L34.375 26.625L34.375 62.125L27.5 59.1667L20.625 62.125L13.75 59.1667L6.875 62.125L6.875 12.875C6.875 10.9894 6.875 10.0466 7.46078 9.46081C8.04657 8.87502 8.98938 8.87502 10.875 8.87502L34.0244 8.87503L34.0245 8.87503C35.5281 8.87503 36.2799 8.87503 36.6644 9.04393C37.6989 9.49839 38.1518 10.719 37.6641 11.7382C37.4829 12.117 36.913 12.6074 35.7734 13.5882L35.7733 13.5883C35.4253 13.8878 35.2513 14.0375 35.1072 14.2039C34.7333 14.6356 34.4905 15.1651 34.4071 15.73C34.375 15.9478 34.375 16.1773 34.375 16.6365Z" fill="#2A4157" fill-opacity="0.24"/>
<path d="M41.25 8.87503L42.125 8.87503C44.9534 8.87502 46.3676 8.87502 47.2463 9.7537C48.125 10.6324 48.125 12.0466 48.125 14.875L48.125 25.625C48.125 26.0964 48.125 26.3321 47.9786 26.4786C47.8321 26.625 47.5964 26.625 47.125 26.625L34.375 26.625M41.25 8.87503L40.375 8.87503C37.5466 8.87502 36.1324 8.87502 35.2537 9.7537C34.375 10.6324 34.375 12.0466 34.375 14.875L34.375 26.625M41.25 8.87503L10.875 8.87502C8.98938 8.87502 8.04657 8.87502 7.46078 9.46081C6.875 10.0466 6.875 10.9894 6.875 12.875L6.875 62.125L13.75 59.1667L20.625 62.125L27.5 59.1667L34.375 62.125L34.375 26.625" stroke="#222222" stroke-width="1.2"/>
<path d="M16.0417 20.7085L25.2084 20.7085" stroke="#222222" stroke-width="1.2" stroke-linecap="round"/>
<path d="M18.3333 32.5415H16.0416" stroke="#222222" stroke-width="1.2" stroke-linecap="round"/>
<path d="M16.0417 44.375L22.9167 44.375" stroke="#222222" stroke-width="1.2" stroke-linecap="round"/>
</svg>
