<svg width="17" height="17" viewBox="0 0 17 17" fill="none" xmlns="http://www.w3.org/2000/svg">
<path d="M9.85096 3.49596L10.2942 4.83917C10.4945 5.46087 11.0716 5.88351 11.7247 5.88687H13.1217C13.7768 5.88271 14.3593 6.30303 14.5619 6.92609C14.7645 7.54915 14.5405 8.23167 14.0082 8.61359L12.8597 9.44638C12.3311 9.83017 12.1089 10.5102 12.309 11.1321L12.7523 12.4753C12.9715 13.0993 12.7575 13.7933 12.2249 14.1855C11.6923 14.5776 10.966 14.5759 10.4353 14.1812L9.30696 13.3417C8.77805 12.9585 8.06283 12.9585 7.53392 13.3417L6.40563 14.1812C5.87784 14.5675 5.16094 14.5685 4.63205 14.1837C4.10316 13.7989 3.88349 13.1165 4.08859 12.4955L4.53185 11.1523C4.73196 10.5304 4.50979 9.85032 3.98113 9.46653L2.80582 8.62031C2.26269 8.2376 2.03494 7.54392 2.24551 6.91375C2.45608 6.28359 3.05511 5.86618 3.71921 5.88687H5.11614C5.76572 5.88542 6.34169 5.46899 6.54666 4.8526L6.98992 3.50939C7.18863 2.88897 7.7641 2.46694 8.41556 2.46388C9.06702 2.46083 9.64643 2.87743 9.85096 3.49596Z" fill="#FFC42D"/>
</svg>
