<svg width="13" height="13" viewBox="0 0 13 13" fill="none" xmlns="http://www.w3.org/2000/svg">
<path fill-rule="evenodd" clip-rule="evenodd" d="M10.6058 9.05143L10.7358 9.66893C10.859 10.2028 10.7374 10.7638 10.4041 11.1987C10.0709 11.6336 9.56083 11.8969 9.0133 11.9168H3.98664C3.43911 11.8969 2.92907 11.6336 2.59582 11.1987C2.26258 10.7638 2.14094 10.2028 2.26414 9.66893L2.39414 9.05143C2.54366 8.21551 3.26222 7.60122 4.11122 7.58351H8.88872C9.73772 7.60122 10.4563 8.21551 10.6058 9.05143ZM9.0133 11.0989C9.28836 11.0957 9.54721 10.9683 9.71747 10.7523V10.7577C9.92638 10.4956 10.0078 10.1541 9.93955 9.82601L9.80955 9.20851C9.73742 8.7509 9.35165 8.40824 8.88872 8.39059H4.11122C3.64829 8.40824 3.26252 8.7509 3.19039 9.20851L3.06039 9.82601C2.99385 10.1524 3.07516 10.4915 3.28247 10.7523C3.45274 10.9683 3.71159 11.0957 3.98664 11.0989H9.0133Z" fill="#4A588D"/>
<path fill-rule="evenodd" clip-rule="evenodd" d="M6.77079 6.50017H6.22913C5.03251 6.50017 4.06246 5.53012 4.06246 4.3335V2.9035C4.06102 2.42037 4.2523 1.95661 4.59393 1.61498C4.93556 1.27335 5.39933 1.08206 5.88246 1.0835H7.11746C7.6006 1.08206 8.06436 1.27335 8.40599 1.61498C8.74762 1.95661 8.93891 2.42037 8.93746 2.9035V4.3335C8.93746 5.53012 7.96741 6.50017 6.77079 6.50017ZM5.88246 1.896C5.32603 1.896 4.87496 2.34708 4.87496 2.9035V4.3335C4.87496 5.08139 5.48124 5.68767 6.22913 5.68767H6.77079C7.51868 5.68767 8.12496 5.08139 8.12496 4.3335V2.9035C8.12496 2.6363 8.01881 2.38004 7.82987 2.19109C7.64093 2.00215 7.38467 1.896 7.11746 1.896H5.88246Z" fill="#4A588D"/>
</svg>
