<svg width="165" height="42" viewBox="0 0 165 42" fill="none" xmlns="http://www.w3.org/2000/svg">
<path d="M163.769 1H1V40.8162H115.989" stroke="#0AEB56" stroke-width="1.59265"/>
<path d="M163.769 1L115.989 40.8162" stroke="#0AEB56" stroke-width="1.59265"/>
<path d="M50.6702 32.5205C50.4358 31.6846 50.2421 30.8896 50.0892 30.1353C49.9363 29.3912 49.8242 28.7134 49.7529 28.1018C49.6815 27.5004 49.6458 26.9959 49.6458 26.5882C49.6458 25.681 49.7885 24.8757 50.0739 24.1724C50.3695 23.4589 50.7467 22.8474 51.2054 22.3377C51.6742 21.8179 52.1737 21.3898 52.7037 21.0534C53.244 20.717 53.7638 20.4673 54.2633 20.3042C54.7729 20.1411 55.2061 20.0596 55.5629 20.0596C55.9298 20.0596 56.2305 20.1564 56.4649 20.3501C56.7096 20.5437 56.9236 20.824 57.1071 21.191C57.3008 21.5477 57.5046 21.9809 57.7187 22.4906C57.9633 23.041 58.1774 23.4589 58.3608 23.7443C58.5545 24.0195 58.7533 24.2081 58.9571 24.31C59.161 24.4018 59.3903 24.4476 59.6451 24.4476C60.0325 24.4476 60.3128 24.5496 60.4861 24.7534C60.6593 24.9471 60.746 25.1917 60.746 25.4873C60.746 25.8033 60.6389 26.0683 60.4249 26.2824C60.2108 26.4862 59.9 26.5882 59.4922 26.5882C58.9928 26.5882 58.5596 26.5066 58.1926 26.3435C57.8257 26.1703 57.4944 25.9256 57.1988 25.6096L57.6269 25.1357C57.5352 25.4517 57.4078 25.7371 57.2447 25.9919C57.0918 26.2365 56.8828 26.4302 56.6178 26.5729C56.363 26.7156 56.0419 26.7869 55.6546 26.7869C55.308 26.7869 54.9615 26.736 54.6149 26.634C54.2785 26.5321 53.9473 26.3792 53.6211 26.1754C53.3051 25.9715 52.9993 25.7218 52.7037 25.4262C52.4081 25.1204 52.1278 24.7687 51.8628 24.3712L52.4285 24.2642C52.2043 24.6107 52.0412 24.9981 51.9393 25.4262C51.8373 25.8543 51.7864 26.2773 51.7864 26.6952C51.7864 27.0214 51.8118 27.3985 51.8628 27.8266C51.924 28.2649 52.0004 28.7236 52.0922 29.2027C52.1839 29.6919 52.2858 30.171 52.3979 30.6399C52.5203 31.1189 52.6375 31.5572 52.7496 31.9548L50.6702 32.5205ZM55.624 24.6311C55.8177 24.6311 55.9706 24.6056 56.0827 24.5547C56.205 24.4935 56.2815 24.4069 56.312 24.2948C56.3528 24.1826 56.3426 24.0501 56.2815 23.8972C56.1795 23.622 56.0776 23.3825 55.9757 23.1786C55.8839 22.9748 55.7922 22.8015 55.7005 22.6588C55.6189 22.5161 55.5323 22.4091 55.4405 22.3377C55.359 22.2664 55.2724 22.2307 55.1806 22.2307C55.0481 22.2307 54.885 22.2765 54.6914 22.3683C54.4977 22.4498 54.304 22.5518 54.1104 22.6741C53.9167 22.7964 53.7536 22.9187 53.6211 23.041C53.4886 23.1531 53.4121 23.2398 53.3918 23.3009L53.2083 22.7964C53.3918 23.1531 53.6109 23.4742 53.8657 23.7596C54.1307 24.0348 54.4161 24.2489 54.7219 24.4018C55.0277 24.5547 55.3284 24.6311 55.624 24.6311ZM59.4637 26.5882L59.6166 24.4476C60.3301 24.4476 60.9723 24.4018 61.5431 24.31C62.1139 24.2081 62.6133 24.0756 63.0414 23.9125C63.4797 23.7494 63.8416 23.5609 64.127 23.3468C64.4226 23.1328 64.6417 22.9085 64.7844 22.6741C64.9373 22.4294 65.0138 22.1899 65.0138 21.9555C65.0138 21.823 64.9781 21.7006 64.9067 21.5885C64.8456 21.4662 64.7385 21.3694 64.5857 21.298C64.4328 21.2165 64.2238 21.1757 63.9588 21.1757C63.8263 21.1757 63.6683 21.191 63.4848 21.2216C63.3013 21.2522 63.1179 21.298 62.9344 21.3592C62.7509 21.4101 62.5776 21.4815 62.4146 21.5732C62.6286 21.7363 62.863 21.9453 63.1179 22.2001C63.3727 22.4447 63.6275 22.7046 63.8823 22.9799C64.1372 23.2449 64.3563 23.5048 64.5398 23.7596C64.7538 23.8514 64.9883 23.9431 65.2431 24.0348C65.5081 24.1164 65.7935 24.1877 66.0993 24.2489C66.4051 24.31 66.7262 24.361 67.0625 24.4018C67.3989 24.4324 67.7455 24.4476 68.1022 24.4476C68.4896 24.4476 68.7648 24.5496 68.9279 24.7534C69.1011 24.9471 69.1878 25.1917 69.1878 25.4873C69.1878 25.8033 69.0807 26.0683 68.8667 26.2824C68.6526 26.4862 68.3469 26.5882 67.9493 26.5882C67.1339 26.5882 66.4102 26.527 65.7782 26.4047C65.1463 26.2722 64.5806 26.0836 64.0811 25.839C63.5918 25.5842 63.1332 25.2784 62.7051 24.9216C62.5827 24.7076 62.4095 24.4782 62.1852 24.2336C61.9712 23.9788 61.7418 23.7341 61.4972 23.4997C61.2627 23.2653 61.0487 23.0716 60.855 22.9187C60.8041 22.8779 60.7429 22.7709 60.6716 22.5976C60.6104 22.4142 60.5543 22.2256 60.5034 22.0319C60.4524 21.8281 60.4269 21.6854 60.4269 21.6038C60.4269 21.3694 60.534 21.1196 60.748 20.8546C60.9723 20.5896 61.2678 20.345 61.6348 20.1207C62.0119 19.8863 62.4247 19.6977 62.8732 19.555C63.3319 19.4021 63.7957 19.3257 64.2646 19.3257C64.8965 19.3257 65.4215 19.4225 65.8394 19.6162C66.2675 19.7997 66.5886 20.0596 66.8026 20.3959C67.0167 20.7221 67.1237 21.1044 67.1237 21.5427C67.1237 22.0319 67.0167 22.5212 66.8026 23.0104C66.5886 23.4895 66.2726 23.9431 65.8547 24.3712C65.447 24.7993 64.9322 25.1815 64.3104 25.5179C63.6989 25.8441 62.9854 26.104 62.1699 26.2977C61.3647 26.4913 60.4626 26.5882 59.4637 26.5882ZM67.9609 26.5882L68.1138 24.4476C68.5623 24.4476 68.914 24.4171 69.1688 24.3559C69.4338 24.2948 69.6224 24.1826 69.7345 24.0195C69.8466 23.8463 69.9027 23.6016 69.9027 23.2856C69.9027 23.0002 69.8619 22.6588 69.7804 22.2613C69.709 21.8637 69.6122 21.4509 69.4899 21.0228C69.3675 20.5947 69.2452 20.2023 69.1229 19.8455L71.2329 19.2645C71.3552 19.6111 71.4775 20.0137 71.5998 20.4724C71.7221 20.9311 71.824 21.405 71.9056 21.8943C71.9973 22.3734 72.0432 22.8372 72.0432 23.2856C72.0432 23.8463 71.9718 24.3202 71.8291 24.7076C71.6864 25.0847 71.4877 25.4007 71.2329 25.6555C70.9882 25.9001 70.6926 26.0938 70.3461 26.2365C70.0097 26.369 69.6377 26.4608 69.2299 26.5117C68.8222 26.5627 68.3992 26.5882 67.9609 26.5882ZM70.1626 17.9955C69.8466 17.9955 69.5765 17.8885 69.3523 17.6744C69.1382 17.4604 69.0312 17.1954 69.0312 16.8794C69.0312 16.5634 69.1382 16.2933 69.3523 16.069C69.5765 15.8448 69.8466 15.7327 70.1626 15.7327C70.4684 15.7327 70.7283 15.8448 70.9424 16.069C71.1666 16.2933 71.2787 16.5634 71.2787 16.8794C71.2787 17.1954 71.1666 17.4604 70.9424 17.6744C70.7283 17.8885 70.4684 17.9955 70.1626 17.9955Z" fill="#0AEB56"/>
</svg>
