<svg width="1922" height="1074" viewBox="0 0 1922 1074" fill="none" xmlns="http://www.w3.org/2000/svg">
<path d="M438.059 514.047C431.101 742.972 918.026 1074.59 695.822 1068.24C473.618 1061.88 12.787 997.088 19.7445 768.164C26.7021 539.239 606.634 32.3253 828.838 38.6793C1051.04 45.0332 445.016 285.123 438.059 514.047Z" fill="#176166" fill-opacity="0.26"/>
<path d="M960.471 504.431C953.514 733.355 1440.44 1064.97 1218.23 1058.62C996.03 1052.27 535.199 987.471 542.157 758.547C549.114 529.623 1129.05 22.7087 1351.25 29.0627C1573.45 35.4166 967.429 275.506 960.471 504.431Z" fill="#176166" fill-opacity="0.26"/>
<path d="M440.26 562.108C447.218 333.183 -39.7066 1.56547 182.497 7.91942C404.701 14.2734 865.532 79.067 858.574 307.991C851.617 536.916 271.685 1043.83 49.4812 1037.48C-172.723 1031.12 433.303 791.032 440.26 562.108Z" fill="#176166" fill-opacity="0.26"/>
<path d="M944.384 564.246C951.341 335.321 464.417 3.70349 686.621 10.0574C908.824 16.4114 1369.66 81.2051 1362.7 310.129C1355.74 539.054 775.808 1045.97 553.605 1039.61C331.401 1033.26 937.426 793.17 944.384 564.246Z" fill="#176166" fill-opacity="0.26"/>
<path d="M1481.67 497.794C1474.68 726.717 1961.56 1058.27 1739.35 1051.94C1517.15 1045.62 1056.32 980.887 1063.31 751.964C1070.3 523.04 1650.31 16.053 1872.52 22.3772C2094.72 28.7013 1488.66 268.87 1481.67 497.794Z" fill="#176166" fill-opacity="0.26"/>
<path d="M1360.66 576.149C1367.62 347.225 880.696 15.6071 1102.9 21.961C1325.1 28.315 1785.93 93.1086 1778.98 322.033C1772.02 550.957 1192.09 1057.87 969.884 1051.52C747.68 1045.16 1353.71 805.074 1360.66 576.149Z" fill="#176166" fill-opacity="0.26"/>
</svg>
