<svg width="40" height="40" viewBox="0 0 40 40" fill="none" xmlns="http://www.w3.org/2000/svg">
<rect x="0.5" y="6.21429" width="39" height="27.5714" rx="3.5" fill="white" stroke="#F5F5F5"/>
<mask id="mask0_33_40" style="mask-type:luminance" maskUnits="userSpaceOnUse" x="0" y="5" width="40" height="30">
<rect x="0.5" y="6.21429" width="39" height="27.5714" rx="3.5" fill="white" stroke="white"/>
</mask>
<g mask="url(#mask0_33_40)">
<path fill-rule="evenodd" clip-rule="evenodd" d="M0 15.2381H40V5.71429H0V15.2381Z" fill="#E41D33"/>
<path fill-rule="evenodd" clip-rule="evenodd" d="M0 34.2857H40V24.7619H0V34.2857Z" fill="#262626"/>
<path d="M18.1758 20.2857H19.0476H19.7143V20.9524V21.9048C19.7143 22.0626 19.8422 22.1905 20 22.1905C20.1578 22.1905 20.2857 22.0626 20.2857 21.9048V20.9524V20.2857H20.9524H21.7785L21.3088 19.3464L21.3087 19.3463L21.3087 19.3462L21.3086 19.346L21.3085 19.3458L21.3076 19.3442L21.3016 19.3323C21.2958 19.3211 21.2866 19.3036 21.2743 19.2806C21.2497 19.2347 21.2127 19.1674 21.1652 19.0859C21.0694 18.9217 20.9348 18.7067 20.7762 18.4953C20.6147 18.28 20.4449 18.0907 20.2829 17.9611C20.1181 17.8292 20.0265 17.8108 20.0025 17.8096M18.1758 20.2857L20 17.8095C20.0007 17.8095 20.0016 17.8096 20.0025 17.8096M18.1758 20.2857L18.6793 19.3691L18.6794 19.3689L18.6794 19.3688L18.6795 19.3688L18.6796 19.3686L18.6808 19.3664L18.6878 19.3539C18.6943 19.3423 18.7046 19.3243 18.7182 19.3009C18.7454 19.2541 18.7861 19.1857 18.8376 19.1031C18.9415 18.9367 19.0862 18.7185 19.2527 18.5035C19.4223 18.2846 19.5982 18.0904 19.7618 17.957C19.9073 17.8382 19.9848 17.8151 19.9999 17.8106C20.0021 17.81 20.0029 17.8097 20.0025 17.8096M18.1758 20.2857L20.0025 17.8096M17.499 19.3458L17.9689 20.2857H17.8934L17.7254 20.3977L16.9412 20.9205C16.4982 21.2159 15.9048 20.8983 15.9048 20.3658V18.4762C15.9048 18.108 16.2032 17.8095 16.5714 17.8095H16.7308L17.499 19.3458ZM22.1066 20.2857H22.0311L22.5011 19.3458L23.2692 17.8095L23.4286 17.8095C23.7968 17.8095 24.0952 18.108 24.0952 18.4762V20.3658C24.0952 20.8983 23.5018 21.2159 23.0588 20.9205L22.2746 20.3977L22.1066 20.2857Z" fill="#F4B32E" fill-opacity="0.25" stroke="#C6A846" stroke-width="1.33333"/>
</g>
</svg>
