<svg width="40" height="40" viewBox="0 0 40 40" fill="none" xmlns="http://www.w3.org/2000/svg">
<path d="M21.4428 20.9155C22.7674 19.7673 24.3792 18.5924 24.3792 15.0215H15.5765C15.5765 18.5924 17.1878 19.7673 18.5129 20.9155C19.2453 21.5499 19.2453 22.5931 18.5129 23.2276C17.1883 24.3757 15.5765 25.5506 15.5765 29.1215H24.3792C24.3792 25.5506 22.7679 24.3757 21.4428 23.2276C20.7104 22.5931 20.7104 21.5499 21.4428 20.9155Z" fill="#176166"/>
<path d="M25.1801 31.0825H14.7752C14.6298 31.0825 14.5117 30.9644 14.5117 30.8191V28.9461C14.5117 28.8007 14.6298 28.6826 14.7752 28.6826H25.1801C25.3254 28.6826 25.4435 28.8007 25.4435 28.9461V30.8191C25.4435 30.9649 25.3258 31.0825 25.1801 31.0825Z" fill="#20B038"/>
<path d="M25.1801 15.4614H14.7752C14.6298 15.4614 14.5117 15.3433 14.5117 15.198V13.325C14.5117 13.1796 14.6298 13.0615 14.7752 13.0615H25.1801C25.3254 13.0615 25.4435 13.1796 25.4435 13.325V15.198C25.4435 15.3433 25.3258 15.4614 25.1801 15.4614Z" fill="#20B038"/>
<path d="M32.4909 8.32182L31.1408 9.45636C30.9278 9.63549 30.9195 9.95513 31.1162 10.1523C34.1413 13.1783 35.941 17.4297 35.707 22.0983C35.3114 29.9878 28.9758 36.4543 21.095 36.9979C11.8914 37.6323 4.228 30.3544 4.228 21.2865C4.228 12.8907 10.7981 6.03123 19.0775 5.56451V7.64742C19.0775 7.94115 19.4033 8.11766 19.6492 7.9574L25.0628 4.42909C25.2868 4.28332 25.2868 3.95534 25.0628 3.80957L19.6492 0.281268C19.4033 0.12101 19.0775 0.297513 19.0775 0.591246V2.86076C9.04978 3.34197 1.12119 11.8282 1.54445 22.0693C1.94136 31.6663 9.83658 39.454 19.4376 39.7284C29.8732 40.0265 38.427 31.6554 38.427 21.2869C38.427 16.2469 36.406 11.6785 33.1297 8.3486C32.9581 8.17386 32.6784 8.1642 32.4909 8.32182Z" fill="#176166"/>
</svg>
