<svg width="40" height="40" viewBox="0 0 40 40" fill="none" xmlns="http://www.w3.org/2000/svg">
<rect y="5.71429" width="40" height="28.5714" rx="4" fill="white"/>
<mask id="mask0_33_19" style="mask-type:luminance" maskUnits="userSpaceOnUse" x="0" y="5" width="40" height="30">
<rect y="5.71429" width="40" height="28.5714" rx="4" fill="white"/>
</mask>
<g mask="url(#mask0_33_19)">
<rect y="5.71429" width="40" height="28.5714" fill="#128C4B"/>
<path fill-rule="evenodd" clip-rule="evenodd" d="M9.5238 22.8572H24.7619V22.1296C24.7619 21.1512 25.7915 20.5149 26.6667 20.9524V22.8572H29.2063C29.9077 22.8572 30.4762 23.4257 30.4762 24.127C30.4762 25.5296 29.3391 26.6667 27.9365 26.6667H26.0952C25.3589 26.6667 24.7619 26.0697 24.7619 25.3334V24.7619H11.9809C11.6272 24.7619 11.2881 24.6215 11.038 24.3714L9.5238 22.8572Z" fill="white"/>
<path fill-rule="evenodd" clip-rule="evenodd" d="M9.5238 17.419C9.5238 17.2422 9.59404 17.0726 9.71907 16.9476L10.0048 16.6619C10.2651 16.4015 10.2651 15.9794 10.0048 15.7191L9.71907 15.4333C9.59404 15.3083 9.5238 15.1387 9.5238 14.9619V14C9.5238 13.6318 9.82228 13.3333 10.1905 13.3333H11.0648C11.2657 13.3333 11.4286 13.4962 11.4286 13.6971C11.4286 14.081 11.946 14.2031 12.1177 13.8598L12.2597 13.5758C12.334 13.4272 12.4859 13.3333 12.6521 13.3333H14.7619C15.0249 13.3333 15.2381 13.5465 15.2381 13.8095C15.2381 14.0725 15.0249 14.2857 14.7619 14.2857H13.8095C13.5465 14.2857 13.3333 14.4989 13.3333 14.7619C13.3333 15.0249 13.5465 15.2381 13.8095 15.2381H14.5714C14.9396 15.2381 15.2381 15.5366 15.2381 15.9047V18.3809C15.2381 18.7491 14.9396 19.0476 14.5714 19.0476H14C13.6318 19.0476 13.3333 18.7491 13.3333 18.3809V17.619C13.3333 17.356 13.5465 17.1428 13.8095 17.1428C14.0725 17.1428 14.2857 16.9296 14.2857 16.6666C14.2857 16.4037 14.0725 16.1905 13.8095 16.1905H13.0476C12.6794 16.1905 12.3809 16.4889 12.3809 16.8571V18.5714C12.3809 18.8344 12.1677 19.0476 11.9048 19.0476C11.6418 19.0476 11.4286 18.8344 11.4286 18.5714V17.619C11.4286 17.356 11.2154 17.1428 10.9524 17.1428C10.6894 17.1428 10.4762 17.356 10.4762 17.619V18.5714C10.4762 18.8344 10.263 19.0476 9.99999 19.0476C9.737 19.0476 9.5238 18.8344 9.5238 18.5714V17.419Z" fill="white"/>
<path fill-rule="evenodd" clip-rule="evenodd" d="M24.7619 17.419C24.7619 17.2422 24.8321 17.0726 24.9572 16.9476L25.2429 16.6619C25.5032 16.4015 25.5032 15.9794 25.2429 15.7191L24.9572 15.4333C24.8321 15.3083 24.7619 15.1387 24.7619 14.9619V14C24.7619 13.6318 25.0604 13.3333 25.4286 13.3333H26.3029C26.5038 13.3333 26.6667 13.4962 26.6667 13.6971C26.6667 14.081 27.1841 14.2031 27.3558 13.8598L27.4978 13.5758C27.5721 13.4272 27.724 13.3333 27.8902 13.3333H30C30.263 13.3333 30.4762 13.5465 30.4762 13.8095C30.4762 14.0725 30.263 14.2857 30 14.2857H29.0476C28.7846 14.2857 28.5714 14.4989 28.5714 14.7619C28.5714 15.0249 28.7846 15.2381 29.0476 15.2381H29.8095C30.1777 15.2381 30.4762 15.5366 30.4762 15.9047V18.3809C30.4762 18.7491 30.1777 19.0476 29.8095 19.0476H29.2381C28.8699 19.0476 28.5714 18.7491 28.5714 18.3809V17.619C28.5714 17.356 28.7846 17.1428 29.0476 17.1428C29.3106 17.1428 29.5238 16.9296 29.5238 16.6666C29.5238 16.4037 29.3106 16.1905 29.0476 16.1905H28.2857C27.9175 16.1905 27.619 16.4889 27.619 16.8571V18.5714C27.619 18.8344 27.4058 19.0476 27.1429 19.0476C26.8799 19.0476 26.6667 18.8344 26.6667 18.5714V17.619C26.6667 17.356 26.4535 17.1428 26.1905 17.1428C25.9275 17.1428 25.7143 17.356 25.7143 17.619V18.5714C25.7143 18.8344 25.5011 19.0476 25.2381 19.0476C24.9751 19.0476 24.7619 18.8344 24.7619 18.5714V17.419Z" fill="white"/>
<path fill-rule="evenodd" clip-rule="evenodd" d="M22.8571 14.7574C22.8571 15.0229 22.7083 15.3869 22.5133 15.5819L22.2486 15.8466C22.0587 16.0365 22.0536 16.3393 22.2486 16.5343L22.5133 16.799C22.7032 16.9889 22.8571 17.3467 22.8571 17.6235V18.5669C22.8571 18.8324 22.6533 19.0476 22.3765 19.0476H21.433C21.1676 19.0476 20.9524 18.8438 20.9524 18.5669V17.6235C20.9524 17.358 20.8645 17.3186 20.7315 17.5846L20.2209 18.6058C20.0989 18.8498 19.7758 19.0476 19.5282 19.0476H17.6147C17.3541 19.0476 17.1429 18.8267 17.1429 18.5714C17.1429 18.3084 17.3467 18.0952 17.6235 18.0952H18.567C18.8324 18.0952 19.0476 17.8743 19.0476 17.619C19.0476 17.356 18.8438 17.1428 18.567 17.1428H17.6235C17.358 17.1428 17.1429 16.938 17.1429 16.6757V13.8004C17.1429 13.5425 17.3467 13.3333 17.6235 13.3333H18.567C18.8324 13.3333 19.0476 13.5372 19.0476 13.814V14.7574C19.0476 15.0229 18.8267 15.2381 18.5714 15.2381C18.3084 15.2381 18.0952 15.459 18.0952 15.7143C18.0952 15.9773 18.2991 16.1905 18.5759 16.1905H19.5193C19.7848 16.1905 20 15.9663 20 15.7187V13.8051C20 13.5445 20.2209 13.3333 20.4762 13.3333C20.7392 13.3333 20.9524 13.5372 20.9524 13.814V14.7574C20.9524 15.0229 21.1733 15.2381 21.4286 15.2381C21.6916 15.2381 21.9048 15.0342 21.9048 14.7574V13.814C21.9048 13.5485 22.1256 13.3333 22.3809 13.3333C22.6439 13.3333 22.8571 13.5372 22.8571 13.814V14.7574Z" fill="white"/>
</g>
</svg>
