<svg width="300" height="49" viewBox="0 0 300 49" fill="none" xmlns="http://www.w3.org/2000/svg">
<g clip-path="url(#clip0_41_21)">
<path d="M24.4194 2.68581L44.0244 47.027H26.2879L20.2387 33.2812H10.7686L16.8496 47.027H0L17.8631 2.68581H24.4194ZM12.8906 16.6216L6.49283 32.6478H19.9536L12.8906 16.6216ZM65.91 47.027H65.1182L46.5582 5.18792V28.7522H50.2956L58.1504 46.3936V47.027H45.9248V2.68581H63.1545L74.3666 27.9603L65.91 47.027ZM95.9037 47.027H79.4342V16.59L85.6103 2.68581H95.9037V47.027ZM122.223 2.68581L141.828 47.027H124.092L118.043 33.2812H108.573L114.654 47.027H97.8041L115.667 2.68581H122.223ZM110.695 16.6216L104.297 32.6478H117.758L110.695 16.6216ZM181.229 2.68581V15.8615L145.091 31.8243H177.143L183.889 47.027H143.539V31.8243L175.085 17.8884H147.625L140.878 2.68581H181.229ZM202.26 47.027H185.789V2.68581H202.26V47.027ZM241.343 47.027L224.684 9.46369V47.027H208.213V2.68581H222.339L235.325 31.951V2.68581H251.794V47.027H241.343ZM297.973 21.6892H294.141L286.539 4.5228C284.163 3.06587 281.123 2.05236 277.132 2.05236C272.951 2.05236 269.056 3.1609 265.794 5.28293L284.322 47.0586C287.426 46.3936 290.055 45.1901 292.241 43.6698L283.213 23.3679H276.563V22.7343H299.904V47.027H293.729L292.494 44.2716C289.01 46.6787 284.322 48.2938 278.653 48.2938C265.161 48.2938 255.595 39.1722 255.595 24.6663C255.595 9.97044 265.382 1.41892 277.132 1.41892C281.218 1.41892 284.322 2.4641 286.792 3.92103L294.078 0.658783H297.973V21.6892Z" fill="#030303"/>
</g>
<defs>
<clipPath id="clip0_41_21">
<rect width="300" height="48.6486" fill="white"/>
</clipPath>
</defs>
</svg>
