<svg width="40" height="40" viewBox="0 0 40 40" fill="none" xmlns="http://www.w3.org/2000/svg">
<path d="M38.7791 11.7074V37.4009C38.7791 38.6904 37.7337 39.7354 36.4446 39.7354H10.4693C9.17973 39.7354 8.13477 38.6899 8.13477 37.4009V31.6342V2.55422C8.13477 1.26513 9.17973 0.219727 10.4693 0.219727H27.2919C30.9225 0.279 38.7791 7.24956 38.7791 11.7074Z" fill="#E2E2E2"/>
<path d="M8.13477 16.0428H29.0649C30.7377 16.0428 32.094 17.399 32.094 19.0719V28.6052C32.094 30.278 30.7377 31.6343 29.0649 31.6343H4.20472C2.53189 31.6343 1.17563 30.278 1.17563 28.6052V13.0137" fill="#F15642"/>
<path d="M1.17606 13.0142C1.17606 14.687 2.53232 16.0433 4.20515 16.0433H8.13476V10.166H4.20515C2.53232 10.166 1.17606 11.5223 1.17606 13.1951" fill="#BE4030"/>
<path d="M9.92527 19.9502H6.72363C6.35964 19.9502 6.06503 20.2448 6.06503 20.6088V24.9617V27.9429C6.06503 28.3064 6.35964 28.6015 6.72363 28.6015C7.08761 28.6015 7.38222 28.3064 7.38222 27.9429V25.6202H9.92527C11.0379 25.6202 11.9432 24.7149 11.9432 23.6023V21.9677C11.9436 20.8551 11.0383 19.9502 9.92527 19.9502ZM10.6265 23.6023C10.6265 23.9887 10.3121 24.3031 9.92571 24.3031H7.38266V21.2674H9.92571C10.3121 21.2674 10.6265 21.5818 10.6265 21.9681V23.6023Z" fill="white"/>
<path d="M17.7234 19.9502H14.6619C14.2979 19.9502 14.0033 20.2448 14.0033 20.6088V27.9429C14.0033 28.3064 14.2979 28.6015 14.6619 28.6015H17.7234C18.9133 28.6015 19.8814 27.6334 19.8814 26.4435V22.1077C19.8814 20.9179 18.9133 19.9502 17.7234 19.9502ZM18.5642 26.4435C18.5642 26.9071 18.1871 27.2843 17.7234 27.2843H15.3205V21.2674H17.7234C18.1871 21.2674 18.5642 21.6441 18.5642 22.1077V26.4435Z" fill="white"/>
<path d="M27.3178 19.9502H22.7569C22.3933 19.9502 22.0983 20.2448 22.0983 20.6088V27.9429C22.0983 28.3064 22.3933 28.6015 22.7569 28.6015C23.1204 28.6015 23.4155 28.3064 23.4155 27.9429V24.934H25.7442C26.1078 24.934 26.4028 24.6389 26.4028 24.2754C26.4028 23.9119 26.1078 23.6168 25.7442 23.6168H23.4155V21.2669H27.3178C27.6814 21.2669 27.9764 20.9719 27.9764 20.6084C27.9764 20.2448 27.6814 19.9502 27.3178 19.9502Z" fill="white"/>
<path d="M27.2919 0.219727H30.217C31.4578 0.219727 32.6476 0.712794 33.5249 1.59004L37.4092 5.47443C38.2865 6.35167 38.7796 7.54153 38.7796 8.78232V11.7074C38.7796 10.2062 37.5625 8.98956 36.0618 8.98956H32.6081C31.1732 8.98956 30.0102 7.82648 30.0102 6.39163V2.93796C30.0097 1.43681 28.7931 0.219727 27.2919 0.219727Z" fill="#B7B7B7"/>
</svg>
