<svg width="34" height="35" viewBox="0 0 34 35" fill="none" xmlns="http://www.w3.org/2000/svg">
<path d="M13.4585 21.1458L13.4585 16.7708" stroke="#222222" stroke-linecap="round"/>
<path d="M20.5418 21.1458L20.5418 16.7708" stroke="#222222" stroke-linecap="round"/>
<path d="M4.25018 9.47925H29.7502H28.7918C26.9062 9.47925 25.9634 9.47925 25.3776 10.065C24.7918 10.6508 24.7918 11.5936 24.7918 13.4792V24.4376C24.7918 26.3232 24.7918 27.266 24.2061 27.8518C23.6203 28.4376 22.6775 28.4376 20.7918 28.4376H13.2085C11.3229 28.4376 10.3801 28.4376 9.7943 27.8518C9.20852 27.266 9.20852 26.3232 9.20852 24.4376V13.4793C9.20852 11.5936 9.20852 10.6508 8.62273 10.065C8.03694 9.47925 7.09413 9.47925 5.20852 9.47925H4.25018Z" stroke="#222222" stroke-linecap="round"/>
<path d="M13.4585 5.10444C13.4585 5.10444 14.1668 3.64575 17.0002 3.64575C19.8335 3.64575 20.5418 5.10409 20.5418 5.10409" stroke="#222222" stroke-linecap="round"/>
</svg>
