<svg width="45" height="45" viewBox="0 0 45 45" fill="none" xmlns="http://www.w3.org/2000/svg">
<rect width="45" height="45" rx="22.5" fill="url(#paint0_linear_53_97)"/>
<path d="M8.85184 35.5903L10.7811 28.5846C9.58834 26.5282 8.96264 24.1995 8.96916 21.8189C8.96916 14.3591 15.0698 8.29395 22.5586 8.29395C26.1955 8.29395 29.6108 9.70157 32.1723 12.2574C34.7403 14.8131 36.1546 18.2122 36.1481 21.8253C36.1481 29.2851 30.0475 35.3503 22.5521 35.3503H22.5456C20.2709 35.3503 18.0353 34.7794 16.0474 33.7026L8.85184 35.5903ZM16.3929 31.2571L16.8035 31.5036C18.5372 32.5285 20.5251 33.0669 22.5521 33.0734H22.5586C28.7831 33.0734 33.8539 28.0332 33.8539 21.8318C33.8539 18.8285 32.6807 16.0067 30.5494 13.8791C28.4181 11.7514 25.5764 10.5838 22.5586 10.5838C16.3342 10.5773 11.2634 15.6175 11.2634 21.8189C11.2634 23.94 11.8565 26.0093 12.9906 27.7997L13.2578 28.2278L12.1172 32.3728L16.3929 31.2571Z" fill="white"/>
<path d="M9.32767 35.1167L11.1917 28.351C10.0381 26.3726 9.43195 24.1217 9.43195 21.8253C9.43847 14.625 15.324 8.76749 22.5587 8.76749C26.0717 8.76749 29.3632 10.1297 31.8399 12.5947C34.3167 15.0597 35.6789 18.342 35.6789 21.8318C35.6789 29.0321 29.7868 34.8897 22.5587 34.8897H22.5522C20.3557 34.8897 18.1983 34.3383 16.2821 33.3004L9.32767 35.1167Z" fill="url(#paint1_linear_53_97)"/>
<path d="M8.85184 35.5903L10.7811 28.5846C9.58834 26.5282 8.96264 24.1995 8.96916 21.8189C8.96916 14.3591 15.0698 8.29395 22.5586 8.29395C26.1955 8.29395 29.6108 9.70157 32.1723 12.2574C34.7403 14.8131 36.1546 18.2122 36.1481 21.8253C36.1481 29.2851 30.0475 35.3503 22.5521 35.3503H22.5456C20.2709 35.3503 18.0353 34.7794 16.0474 33.7026L8.85184 35.5903ZM16.3929 31.2571L16.8035 31.5036C18.5372 32.5285 20.5251 33.0669 22.5521 33.0734H22.5586C28.7831 33.0734 33.8539 28.0332 33.8539 21.8318C33.8539 18.8285 32.6807 16.0067 30.5494 13.8791C28.4181 11.7514 25.5764 10.5838 22.5586 10.5838C16.3342 10.5773 11.2634 15.6175 11.2634 21.8189C11.2634 23.94 11.8565 26.0093 12.9906 27.7997L13.2578 28.2278L12.1172 32.3728L16.3929 31.2571Z" fill="url(#paint2_linear_53_97)"/>
<path fill-rule="evenodd" clip-rule="evenodd" d="M19.1628 16.1624C18.9086 15.5981 18.6414 15.5851 18.4002 15.5786C18.2047 15.5721 17.9766 15.5721 17.7484 15.5721C17.5203 15.5721 17.1553 15.6564 16.8425 15.9938C16.5296 16.3311 15.6562 17.1484 15.6562 18.8155C15.6562 20.4761 16.8751 22.0848 17.0445 22.3119C17.214 22.5389 19.3974 26.0612 22.8453 27.4169C25.7131 28.5456 26.2997 28.3186 26.9189 28.2602C27.5381 28.2018 28.9264 27.4429 29.2131 26.6515C29.4934 25.8601 29.4934 25.1855 29.4087 25.0428C29.3239 24.9001 29.0958 24.8158 28.7569 24.6471C28.418 24.4784 26.7494 23.6611 26.4366 23.5444C26.1237 23.4341 25.8956 23.3757 25.674 23.713C25.4459 24.0503 24.7941 24.8093 24.5986 25.0363C24.4031 25.2633 24.201 25.2893 23.8621 25.1206C23.5232 24.952 22.4282 24.5952 21.1312 23.4406C20.1209 22.5454 19.4365 21.4362 19.241 21.0988C19.0455 20.7615 19.2215 20.5799 19.3909 20.4112C19.5408 20.262 19.7298 20.0155 19.8993 19.8209C20.0688 19.6263 20.1274 19.4836 20.2382 19.2566C20.349 19.0296 20.2969 18.835 20.2121 18.6663C20.1274 18.5041 19.4626 16.8305 19.1628 16.1624Z" fill="white"/>
<defs>
<linearGradient id="paint0_linear_53_97" x1="22.4988" y1="44.9978" x2="22.4988" y2="-0.00157443" gradientUnits="userSpaceOnUse">
<stop stop-color="#20B038"/>
<stop offset="1" stop-color="#60D66A"/>
</linearGradient>
<linearGradient id="paint1_linear_53_97" x1="22.5026" y1="35.1154" x2="22.5026" y2="8.76656" gradientUnits="userSpaceOnUse">
<stop stop-color="#20B038"/>
<stop offset="1" stop-color="#60D66A"/>
</linearGradient>
<linearGradient id="paint2_linear_53_97" x1="22.5026" y1="35.5877" x2="22.5026" y2="8.29395" gradientUnits="userSpaceOnUse">
<stop stop-color="#F9F9F9"/>
<stop offset="1" stop-color="white"/>
</linearGradient>
</defs>
</svg>
