<svg width="45" height="45" viewBox="0 0 45 45" fill="none" xmlns="http://www.w3.org/2000/svg">
<rect width="45" height="45" rx="22.5" fill="#FF0000"/>
<path d="M37.9108 14.7717C37.5401 13.3948 36.4544 12.3092 35.0775 11.9385C32.562 11.25 22.4999 11.25 22.4999 11.25C22.4999 11.25 12.4378 11.25 9.92231 11.912C8.57187 12.2827 7.45975 13.3948 7.08904 14.7717C6.42706 17.2872 6.42706 22.5036 6.42706 22.5036C6.42706 22.5036 6.42706 27.7465 7.08904 30.2355C7.45975 31.6125 8.5454 32.6981 9.92231 33.0688C12.4643 33.7573 22.4999 33.7573 22.4999 33.7573C22.4999 33.7573 32.562 33.7573 35.0775 33.0953C36.4544 32.7246 37.5401 31.6389 37.9108 30.262C38.5728 27.7465 38.5728 22.5301 38.5728 22.5301C38.5728 22.5301 38.5992 17.2872 37.9108 14.7717Z" fill="white"/>
<path d="M19.296 27.3228L27.6634 22.5036L19.296 17.6844V27.3228Z" fill="#FF0000"/>
</svg>
