<svg width="33" height="32" viewBox="0 0 33 32" fill="none" xmlns="http://www.w3.org/2000/svg">
<mask id="mask0_29_2273" style="mask-type:alpha" maskUnits="userSpaceOnUse" x="0" y="0" width="33" height="32">
<rect x="0.5" width="32" height="32" fill="#D9D9D9"/>
</mask>
<g mask="url(#mask0_29_2273)">
<path d="M6.7222 28C6.11109 28 5.58794 27.7824 5.15277 27.3472C4.71759 26.9121 4.5 26.3889 4.5 25.7778V6.2222C4.5 5.61109 4.71759 5.08794 5.15277 4.65277C5.58794 4.21759 6.11109 4 6.7222 4H19.8111V6.2222H6.7222V25.7778H26.2778V12.7111H28.5V25.7778C28.5 26.3889 28.2824 26.9121 27.8472 27.3472C27.4121 27.7824 26.8889 28 26.2778 28H6.7222ZM23.6111 11.6V8.9111H20.9222V6.6889H23.6111V4H25.8333V6.6889H28.5222V8.9111H25.8333V11.6H23.6111ZM8.5 22.6222H24.5L19.6333 16.1333L15.4778 21.6222L12.3889 17.5333L8.5 22.6222Z" fill="black"/>
</g>
</svg>
