<svg width="32" height="32" viewBox="0 0 32 32" fill="none" xmlns="http://www.w3.org/2000/svg">
<mask id="mask0_29_2276" style="mask-type:alpha" maskUnits="userSpaceOnUse" x="0" y="0" width="32" height="32">
<rect width="32" height="32" fill="#D9D9D9"/>
</mask>
<g mask="url(#mask0_29_2276)">
<path d="M15.3333 29.3333C13.2889 29.3333 11.5556 28.6222 10.1333 27.2C8.71111 25.7778 8 24.0444 8 22V7.99999C8 6.53332 8.52222 5.27777 9.56667 4.23332C10.6111 3.18888 11.8667 2.66666 13.3333 2.66666C14.8 2.66666 16.0556 3.18888 17.1 4.23332C18.1444 5.27777 18.6667 6.53332 18.6667 7.99999V18.6667H16.6667V7.99999C16.6667 7.06666 16.3444 6.27777 15.7 5.63332C15.0556 4.98888 14.2667 4.66666 13.3333 4.66666C12.4 4.66666 11.6111 4.98888 10.9667 5.63332C10.3222 6.27777 10 7.06666 10 7.99999V22C10 23.4667 10.5222 24.7222 11.5667 25.7667C12.6111 26.8111 13.8667 27.3333 15.3333 27.3333C15.9778 27.3333 16.5833 27.2278 17.15 27.0167C17.7167 26.8055 18.2222 26.5111 18.6667 26.1333V28.5333C18.1556 28.7778 17.6222 28.9722 17.0667 29.1167C16.5111 29.2611 15.9333 29.3333 15.3333 29.3333ZM21.3333 28V24H17.3333V21.3333H21.3333V17.3333H24V21.3333H28V24H24V28H21.3333ZM15.3333 22V24C14.4 24 13.6111 23.6778 12.9667 23.0333C12.3222 22.3889 12 21.6 12 20.6667V7.99999H14V20.6667C14 21.0444 14.1278 21.3611 14.3833 21.6167C14.6389 21.8722 14.9556 22 15.3333 22ZM20.6667 14.6667V7.99999H22.6667V14.6667H20.6667Z" fill="black"/>
</g>
</svg>
