<svg width="168" height="27" viewBox="0 0 168 27" fill="none" xmlns="http://www.w3.org/2000/svg">
<path d="M13.628 1.25391L24.5693 26H14.6709L11.2948 18.3287H6.00977L9.40352 26H0L9.96914 1.25391H13.628ZM7.19404 9.03125L3.62354 17.9752H11.1357L7.19404 9.03125ZM36.7833 26H36.3414L25.9834 2.65029V15.8011H28.0691L32.4527 25.6465V26H25.6299V1.25391H35.2455L41.5027 15.3592L36.7833 26ZM53.5223 26H44.3309V9.01357L47.7776 1.25391H53.5223V26ZM68.2108 1.25391L79.1521 26H69.2537L65.8776 18.3287H60.5926L63.9863 26H54.5828L64.552 1.25391H68.2108ZM61.7769 9.03125L58.2063 17.9752H65.7186L61.7769 9.03125ZM101.141 1.25391V8.60703L80.9728 17.5156H98.8606L102.626 26H80.1066V17.5156L97.7117 9.73828H82.3868L78.6219 1.25391H101.141ZM112.878 26H103.686V1.25391H112.878V26ZM134.689 26L125.392 5.03652V26H116.201V1.25391H124.084L131.331 17.5863V1.25391H140.522V26H134.689ZM166.294 11.8594H164.155L159.913 2.2791C158.587 1.46602 156.89 0.90039 154.663 0.90039C152.33 0.90039 150.156 1.51904 148.335 2.70332L158.675 26.0177C160.408 25.6465 161.875 24.9748 163.094 24.1264L158.057 12.7962H154.345V12.4427H167.372V26H163.925L163.236 24.4622C161.292 25.8056 158.675 26.707 155.512 26.707C147.982 26.707 142.644 21.6164 142.644 13.5209C142.644 5.31934 148.105 0.546874 154.663 0.546874C156.943 0.546874 158.675 1.13018 160.054 1.94326L164.12 0.122656H166.294V11.8594Z" fill="black"/>
</svg>
