<svg width="24" height="24" viewBox="0 0 24 24" fill="none" xmlns="http://www.w3.org/2000/svg">
<mask id="mask0_68_1151" style="mask-type:alpha" maskUnits="userSpaceOnUse" x="0" y="0" width="24" height="24">
<rect width="24" height="24" fill="#D9D9D9"/>
</mask>
<g mask="url(#mask0_68_1151)">
<path d="M11.9997 17C12.2499 17 12.4597 16.9154 12.6292 16.7461C12.7986 16.5769 12.8833 16.3672 12.8833 16.117C12.8833 15.8668 12.7987 15.657 12.6295 15.4875C12.4602 15.3181 12.2505 15.2334 12.0003 15.2334C11.7501 15.2334 11.5403 15.318 11.3708 15.4872C11.2014 15.6565 11.1167 15.8662 11.1167 16.1164C11.1167 16.3666 11.2013 16.5764 11.3706 16.7458C11.5398 16.9153 11.7495 17 11.9997 17ZM11.2167 13.1167H12.8833V6.9H11.2167V13.1167ZM12.0044 22C10.6241 22 9.32684 21.7375 8.11278 21.2125C6.89871 20.6875 5.83889 19.9722 4.93333 19.0667C4.02778 18.1611 3.3125 17.1009 2.7875 15.886C2.2625 14.6711 2 13.373 2 11.9917C2 10.6103 2.2625 9.31223 2.7875 8.09735C3.3125 6.88245 4.02778 5.825 4.93333 4.925C5.83889 4.025 6.89912 3.3125 8.114 2.7875C9.3289 2.2625 10.627 2 12.0083 2C13.3897 2 14.6878 2.2625 15.9027 2.7875C17.1176 3.3125 18.175 4.025 19.075 4.925C19.975 5.825 20.6875 6.88333 21.2125 8.1C21.7375 9.31667 22 10.6152 22 11.9956C22 13.3759 21.7375 14.6732 21.2125 15.8872C20.6875 17.1013 19.975 18.1601 19.075 19.0636C18.175 19.9671 17.1167 20.6824 15.9 21.2094C14.6833 21.7365 13.3848 22 12.0044 22Z" fill="black"/>
</g>
</svg>
