<svg width="24" height="24" viewBox="0 0 24 24" fill="none" xmlns="http://www.w3.org/2000/svg">
<mask id="mask0_68_1200" style="mask-type:alpha" maskUnits="userSpaceOnUse" x="0" y="0" width="24" height="24">
<rect width="24" height="24" fill="#D9D9D9"/>
</mask>
<g mask="url(#mask0_68_1200)">
<path d="M10.55 16.5667L17.6167 9.5L16.3833 8.28333L10.55 14.1167L7.6 11.1667L6.38333 12.3833L10.55 16.5667ZM12 22C10.6278 22 9.33334 21.7375 8.11668 21.2125C6.90001 20.6875 5.83889 19.9722 4.93333 19.0667C4.02778 18.1611 3.3125 17.1 2.7875 15.8833C2.2625 14.6667 2 13.3722 2 12C2 10.6167 2.2625 9.31667 2.7875 8.1C3.3125 6.88333 4.02778 5.825 4.93333 4.925C5.83889 4.025 6.90001 3.3125 8.11668 2.7875C9.33334 2.2625 10.6278 2 12 2C13.3833 2 14.6833 2.2625 15.9 2.7875C17.1167 3.3125 18.175 4.025 19.075 4.925C19.975 5.825 20.6875 6.88333 21.2125 8.1C21.7375 9.31667 22 10.6167 22 12C22 13.3722 21.7375 14.6667 21.2125 15.8833C20.6875 17.1 19.975 18.1611 19.075 19.0667C18.175 19.9722 17.1167 20.6875 15.9 21.2125C14.6833 21.7375 13.3833 22 12 22Z" fill="white"/>
</g>
</svg>
