<svg xmlns="http://www.w3.org/2000/svg" width="495" height="80" viewBox="0 0 495 80" fill="none">
  <path d="M40.2817 3.85547L72.6221 77H43.3643L33.3853 54.3252H17.7637L27.7949 77H0L29.4668 3.85547H40.2817ZM21.2642 26.8438L10.7104 53.2803H32.915L21.2642 26.8438ZM108.724 77H107.418L76.8018 7.98291V46.854H82.9668L95.9238 75.9551V77H75.7568V3.85547H104.179L122.674 45.5479L108.724 77ZM158.201 77H131.033V26.7915L141.221 3.85547H158.201V77ZM201.618 3.85547L233.958 77H204.7L194.721 54.3252H179.1L189.131 77H161.336L190.803 3.85547H201.618ZM182.6 26.8438L172.046 53.2803H194.251L182.6 26.8438ZM298.952 3.85547V25.5898L239.339 51.9219H292.212L303.341 77H236.779V51.9219L288.816 28.9336H243.519L232.391 3.85547H298.952ZM333.644 77H306.476V3.85547H333.644V77ZM398.115 77L370.634 15.0361V77H343.466V3.85547H366.768L388.188 52.1309V3.85547H415.356V77H398.115ZM491.531 35.2031H485.209L472.67 6.88574C468.752 4.48242 463.736 2.81055 457.153 2.81055C450.257 2.81055 443.831 4.63916 438.449 8.13965L469.013 77.0522C474.133 75.9551 478.47 73.9697 482.075 71.4619L467.185 37.9722H456.213V36.9272H494.718V77H484.53L482.493 72.4546C476.746 76.4253 469.013 79.0898 459.661 79.0898C437.404 79.0898 421.626 64.043 421.626 40.1143C421.626 15.8721 437.77 1.76562 457.153 1.76562C463.893 1.76562 469.013 3.48975 473.088 5.89307L485.105 0.511719H491.531V35.2031Z" fill="white"/>
</svg>