<svg xmlns="http://www.w3.org/2000/svg" width="232" height="37" viewBox="0 0 232 37" fill="none">
  <g clip-path="url(#clip0_218_1111)">
    <path d="M18.8232 1.82031L33.9355 36H20.2637L15.6006 25.4043H8.30078L12.9883 36H0L13.7695 1.82031H18.8232ZM9.93652 12.5625L5.00488 24.916H15.3809L9.93652 12.5625ZM50.8057 36H50.1953L35.8887 3.74902V21.9131H38.7695L44.8242 35.5117V36H35.4004V1.82031H48.6816L57.3242 21.3027L50.8057 36ZM73.9258 36H61.2305V12.5381L65.9912 1.82031H73.9258V36ZM94.2139 1.82031L109.326 36H95.6543L90.9912 25.4043H83.6914L88.3789 36H75.3906L89.1602 1.82031H94.2139ZM85.3271 12.5625L80.3955 24.916H90.7715L85.3271 12.5625ZM139.697 1.82031V11.9766L111.841 24.2812H136.548L141.748 36H110.645V24.2812L134.961 13.5391H113.794L108.594 1.82031H139.697ZM155.908 36H143.213V1.82031H155.908V36ZM186.035 36L173.193 7.04492V36H160.498V1.82031H171.387L181.396 24.3789V1.82031H194.092V36H186.035ZM229.688 16.4688H226.733L220.874 3.23633C219.043 2.11328 216.699 1.33203 213.623 1.33203C210.4 1.33203 207.397 2.18652 204.883 3.82227L219.165 36.0244C221.558 35.5117 223.584 34.584 225.269 33.4121L218.311 17.7627H213.184V17.2744H231.177V36H226.416L225.464 33.876C222.778 35.7314 219.165 36.9766 214.795 36.9766C204.395 36.9766 197.021 29.9453 197.021 18.7637C197.021 7.43555 204.565 0.84375 213.623 0.84375C216.772 0.84375 219.165 1.64941 221.069 2.77246L226.685 0.257812H229.688V16.4688Z" fill="#252B42"/>
  </g>
  <defs>
    <clipPath id="clip0_218_1111">
      <rect width="232" height="37" fill="white"/>
    </clipPath>
  </defs>
</svg>