<svg width="24" height="24" viewBox="0 0 24 24" fill="none" xmlns="http://www.w3.org/2000/svg">
<path d="M4 19.262V21H20V19.272L16.894 20.025L12.034 19.021L7.057 20.025L4 19.262ZM4 17.2L7.104 17.975L12.04 16.979L16.859 17.975L20 17.214V16C20 15.7348 19.8946 15.4804 19.7071 15.2929C19.5196 15.1054 19.2652 15 19 15H5C4.73478 15 4.48043 15.1054 4.29289 15.2929C4.10536 15.4804 4 15.7348 4 16V17.2ZM15 13H19C19.7956 13 20.5587 13.3161 21.1213 13.8787C21.6839 14.4413 22 15.2044 22 16V23H2V16C2 15.2044 2.31607 14.4413 2.87868 13.8787C3.44129 13.3161 4.20435 13 5 13H9V10H15V13ZM13 13V12H11V13H13ZM12 9.4C11.2044 9.4 10.4413 9.08393 9.87868 8.52132C9.31607 7.95871 9 7.19565 9 6.4C9 5.295 10 3.495 12 1C14 3.495 15 5.295 15 6.4C15 7.19565 14.6839 7.95871 14.1213 8.52132C13.5587 9.08393 12.7956 9.4 12 9.4ZM11.998 7.419C12.55 7.419 12.998 6.939 12.998 6.347C12.998 5.953 12.664 5.31 11.998 4.419C11.331 5.31 10.998 5.953 10.998 6.347C10.998 6.939 11.446 7.419 11.998 7.419Z" fill="#8A8A8A"/>
</svg>
