<svg width="18" height="15" viewBox="0 0 18 15" fill="none" xmlns="http://www.w3.org/2000/svg">
<path d="M17 8.37866C17.5523 8.37866 18 7.93095 18 7.37866C18 6.82638 17.5523 6.37866 17 6.37866V8.37866ZM0.292892 6.67156C-0.0976315 7.06208 -0.0976315 7.69524 0.292892 8.08577L6.65685 14.4497C7.04738 14.8403 7.68054 14.8403 8.07107 14.4497C8.46159 14.0592 8.46159 13.426 8.07107 13.0355L2.41421 7.37866L8.07107 1.72181C8.46159 1.33128 8.46159 0.698119 8.07107 0.307594C7.68054 -0.0829301 7.04738 -0.0829301 6.65685 0.307594L0.292892 6.67156ZM17 6.37866L1 6.37866V8.37866L17 8.37866V6.37866Z" fill="#101010"/>
</svg>
