<svg width="24" height="32" viewBox="0 0 24 32" fill="none" xmlns="http://www.w3.org/2000/svg">
<path d="M10.25 21.5C14.5302 21.5 18 18.0302 18 13.75C18 9.46979 14.5302 6 10.25 6C5.96979 6 2.5 9.46979 2.5 13.75C2.5 18.0302 5.96979 21.5 10.25 21.5Z" stroke="#8A8A8A" stroke-width="1.5" stroke-linecap="round" stroke-linejoin="round"/>
<path d="M21.5 2.5L16 8" stroke="#8A8A8A" stroke-width="1.5" stroke-linecap="round" stroke-linejoin="round"/>
<path d="M15 2.5H21.5V9" stroke="#8A8A8A" stroke-width="1.5" stroke-linecap="round" stroke-linejoin="round"/>
<path d="M12 24C15.866 24 19 20.866 19 17C19 13.134 15.866 10 12 10C8.13401 10 5 13.134 5 17C5 20.866 8.13401 24 12 24Z" stroke="#8A8A8A" stroke-width="1.5" stroke-linecap="round" stroke-linejoin="round"/>
<path d="M12 24V30" stroke="#8A8A8A" stroke-width="1.5" stroke-linecap="round" stroke-linejoin="round"/>
<path d="M15 27H9" stroke="#8A8A8A" stroke-width="1.5" stroke-linecap="round" stroke-linejoin="round"/>
</svg>
