<svg width="16" height="20" viewBox="0 0 16 20" fill="none" xmlns="http://www.w3.org/2000/svg">
<path fill-rule="evenodd" clip-rule="evenodd" d="M15.58 14.71L15.82 15.85C16.0474 16.8356 15.8229 17.8713 15.2077 18.6742C14.5924 19.4771 13.6508 19.9633 12.64 20H3.36C2.34918 19.9633 1.40757 19.4771 0.79235 18.6742C0.177128 17.8713 -0.0474309 16.8356 0.180003 15.85L0.420003 14.71C0.696038 13.1668 2.02262 12.0327 3.59 12H12.41C13.9774 12.0327 15.304 13.1668 15.58 14.71ZM12.64 18.49C13.1478 18.4841 13.6257 18.2489 13.94 17.85V17.86C14.3257 17.3762 14.476 16.7458 14.35 16.14L14.11 15C13.9768 14.1552 13.2646 13.5226 12.41 13.49H3.59001C2.73537 13.5226 2.02317 14.1552 1.89001 15L1.65001 16.14C1.52716 16.7426 1.67727 17.3687 2.06001 17.85C2.37434 18.2489 2.85222 18.4841 3.36001 18.49H12.64Z" fill="#8A8A8A"/>
<path fill-rule="evenodd" clip-rule="evenodd" d="M8.49999 10H7.49999C5.29085 10 3.49999 8.20915 3.49999 6.00001V3.36001C3.49732 2.46807 3.85046 1.61189 4.48117 0.981192C5.11187 0.350491 5.96805 -0.00265152 6.85999 1.49917e-05H9.13999C10.0319 -0.00265152 10.8881 0.350491 11.5188 0.981192C12.1495 1.61189 12.5027 2.46807 12.5 3.36001V6.00001C12.5 8.20915 10.7091 10 8.49999 10ZM6.85999 1.50002C5.83274 1.50002 4.99999 2.33277 4.99999 3.36001V6.00001C4.99999 7.38073 6.11928 8.50001 7.49999 8.50001H8.49999C9.8807 8.50001 11 7.38073 11 6.00001V3.36001C11 2.86671 10.804 2.39361 10.4552 2.0448C10.1064 1.69598 9.63329 1.50002 9.13999 1.50002H6.85999Z" fill="#8A8A8A"/>
</svg>
