<svg width="16" height="15" viewBox="0 0 16 15" fill="none" xmlns="http://www.w3.org/2000/svg">
<path d="M11.375 0.25C10.07 0.25 8.8175 0.8575 8 1.81375C7.1825 0.8575 5.93 0.25 4.625 0.25C2.31125 0.25 0.5 2.06125 0.5 4.375C0.5 7.20625 3.05 9.52 6.9125 13.0262L8 14.0125L9.0875 13.0262C12.95 9.52 15.5 7.20625 15.5 4.375C15.5 2.06125 13.6887 0.25 11.375 0.25ZM8.07875 11.9162L8 11.9875L7.92125 11.9162C4.355 8.68 2 6.5425 2 4.375C2 2.87875 3.12875 1.75 4.625 1.75C5.78 1.75 6.905 2.49625 7.29875 3.52H8.6975C9.095 2.49625 10.22 1.75 11.375 1.75C12.8712 1.75 14 2.87875 14 4.375C14 6.5425 11.645 8.68 8.07875 11.9162Z" fill="white"/>
</svg>
