<svg width="233" height="12" viewBox="0 0 233 12" fill="none" xmlns="http://www.w3.org/2000/svg">
<path d="M0.666667 6C0.666667 8.94552 3.05448 11.3333 6 11.3333C8.94552 11.3333 11.3333 8.94552 11.3333 6C11.3333 3.05448 8.94552 0.666667 6 0.666667C3.05448 0.666667 0.666667 3.05448 0.666667 6ZM221.667 6C221.667 8.94552 224.054 11.3333 227 11.3333C229.946 11.3333 232.333 8.94552 232.333 6C232.333 3.05448 229.946 0.666667 227 0.666667C224.054 0.666667 221.667 3.05448 221.667 6ZM6 7H227V5H6V7Z" fill="#FF0209"/>
</svg>
