<svg width="20" height="20" viewBox="0 0 20 20" fill="none" xmlns="http://www.w3.org/2000/svg">
<g clip-path="url(#clip0_651_902)">
<path d="M13.7501 2.5C12.3001 2.5 10.9084 3.175 10.0001 4.2375C9.09175 3.175 7.70008 2.5 6.25008 2.5C3.67925 2.5 1.66675 4.5125 1.66675 7.08333C1.66675 10.2292 4.50008 12.8 8.79175 16.6958L10.0001 17.7917L11.2084 16.6958C15.5001 12.8 18.3334 10.2292 18.3334 7.08333C18.3334 4.5125 16.3209 2.5 13.7501 2.5ZM10.0876 15.4625L10.0001 15.5417L9.91258 15.4625C5.95008 11.8667 3.33341 9.49167 3.33341 7.08333C3.33341 5.42083 4.58758 4.16667 6.25008 4.16667C7.53341 4.16667 8.78341 4.99583 9.22091 6.13333H10.7751C11.2167 4.99583 12.4667 4.16667 13.7501 4.16667C15.4126 4.16667 16.6667 5.42083 16.6667 7.08333C16.6667 9.49167 14.0501 11.8667 10.0876 15.4625Z" fill="#252B42"/>
</g>
<defs>
<clipPath id="clip0_651_902">
<rect width="20" height="20" fill="white"/>
</clipPath>
</defs>
</svg>
