<svg width="20" height="20" viewBox="0 0 20 20" fill="none" xmlns="http://www.w3.org/2000/svg">
<path fill-rule="evenodd" clip-rule="evenodd" d="M4.13454 1.66729H15.9512V1.67562C16.947 1.65829 17.8515 2.25364 18.2293 3.17515C18.6071 4.09666 18.3809 5.15558 17.6595 5.84229L13.6845 9.81729C13.2421 10.2605 12.9882 10.8578 12.9762 11.484V15.1506C12.9749 15.911 12.617 16.6267 12.0095 17.084L10.9762 17.859C10.2455 18.415 9.26209 18.5071 8.44077 18.0965C7.61946 17.6858 7.10314 16.8439 7.10954 15.9256V11.484C7.09751 10.8578 6.84368 10.2605 6.4012 9.81729L2.4262 5.84229C1.6985 5.15661 1.46818 4.0936 1.84684 3.16822C2.22549 2.24283 3.1349 1.64618 4.13454 1.66729ZM17.0345 3.64229C16.8547 3.20261 16.4262 2.91587 15.9512 2.91729H4.13454C3.6595 2.91587 3.23104 3.20261 3.0512 3.64229C2.86556 4.07984 2.96821 4.58651 3.30954 4.91729L7.3012 8.89229C7.9921 9.57739 8.37934 10.511 8.3762 11.484V15.9256C8.37175 16.2328 8.48954 16.5292 8.70365 16.7496C8.91776 16.97 9.21065 17.0962 9.51787 17.1006C9.76893 17.0995 10.0124 17.0144 10.2095 16.859L11.2429 16.084C11.5366 15.8636 11.7095 15.5178 11.7095 15.1506V11.484C11.7108 10.5086 12.1042 9.57462 12.8012 8.89229L16.7762 4.91729C17.1175 4.58651 17.2202 4.07984 17.0345 3.64229Z" fill="#252B42"/>
</svg>
