<svg width="24" height="24" viewBox="0 0 24 24" fill="none" xmlns="http://www.w3.org/2000/svg">
<path d="M2 17.5C2 16.565 2 16.098 2.201 15.75C2.33265 15.522 2.52199 15.3326 2.75 15.201C3.098 15 3.565 15 4.5 15C5.435 15 5.902 15 6.25 15.201C6.47801 15.3326 6.66735 15.522 6.799 15.75C7 16.098 7 16.565 7 17.5C7 18.435 7 18.902 6.799 19.25C6.66735 19.478 6.47801 19.6674 6.25 19.799C5.902 20 5.435 20 4.5 20C3.565 20 3.098 20 2.75 19.799C2.52199 19.6674 2.33265 19.478 2.201 19.25C2 18.902 2 18.435 2 17.5ZM9.5 17.5C9.5 16.565 9.5 16.098 9.701 15.75C9.83265 15.522 10.022 15.3326 10.25 15.201C10.598 15 11.065 15 12 15C12.935 15 13.402 15 13.75 15.201C13.978 15.3326 14.1674 15.522 14.299 15.75C14.5 16.098 14.5 16.565 14.5 17.5C14.5 18.435 14.5 18.902 14.299 19.25C14.1674 19.478 13.978 19.6674 13.75 19.799C13.402 20 12.935 20 12 20C11.065 20 10.598 20 10.25 19.799C10.022 19.6674 9.83265 19.478 9.701 19.25C9.5 18.902 9.5 18.435 9.5 17.5ZM17 17.5C17 16.565 17 16.098 17.201 15.75C17.3326 15.522 17.522 15.3326 17.75 15.201C18.098 15 18.565 15 19.5 15C20.435 15 20.902 15 21.25 15.201C21.478 15.3326 21.6674 15.522 21.799 15.75C22 16.098 22 16.565 22 17.5C22 18.435 22 18.902 21.799 19.25C21.6674 19.478 21.478 19.6674 21.25 19.799C20.902 20 20.435 20 19.5 20C18.565 20 18.098 20 17.75 19.799C17.522 19.6674 17.3326 19.478 17.201 19.25C17 18.902 17 18.435 17 17.5Z" stroke="black" stroke-width="1.5"/>
<path d="M4.5 15V9C4.5 6.643 4.5 5.464 5.232 4.732C5.964 4 7.143 4 9.5 4H14.5C16.857 4 18.035 4 18.768 4.732C19.5 5.464 19.5 6.643 19.5 9V12M19.5 12L21.5 10M19.5 12L17.5 10" stroke="black" stroke-width="1.5" stroke-linecap="round" stroke-linejoin="round"/>
</svg>
