<svg width="22" height="18" viewBox="0 0 22 18" fill="none" xmlns="http://www.w3.org/2000/svg">
<path d="M16 17C16.5304 17 17.0391 16.7893 17.4142 16.4142C17.7893 16.0391 18 15.5304 18 15C18 14.4696 17.7893 13.9609 17.4142 13.5858C17.0391 13.2107 16.5304 13 16 13C15.4696 13 14.9609 13.2107 14.5858 13.5858C14.2107 13.9609 14 14.4696 14 15C14 15.5304 14.2107 16.0391 14.5858 16.4142C14.9609 16.7893 15.4696 17 16 17ZM6 17C6.53043 17 7.03914 16.7893 7.41421 16.4142C7.78929 16.0391 8 15.5304 8 15C8 14.4696 7.78929 13.9609 7.41421 13.5858C7.03914 13.2107 6.53043 13 6 13C5.46957 13 4.96086 13.2107 4.58579 13.5858C4.21071 13.9609 4 14.4696 4 15C4 15.5304 4.21071 16.0391 4.58579 16.4142C4.96086 16.7893 5.46957 17 6 17Z" stroke="black" stroke-width="1.5" stroke-linecap="round" stroke-linejoin="round"/>
<path d="M18 8H21M21 8V10C21 12.357 21 13.535 20.268 14.268C19.781 14.755 19.097 14.918 18 14.972M21 8L19.724 5.63C19.034 4.348 18.689 3.707 18.096 3.354C17.504 3 16.777 3 15.321 3H13.5M4 14.972C2.903 14.918 2.22 14.755 1.732 14.268C1 13.535 1 12.357 1 10V6C1 3.643 1 2.464 1.732 1.732C2.464 1 3.643 1 6 1H9.3C10.417 1 10.975 1 11.427 1.147C11.8772 1.2933 12.2864 1.54408 12.6212 1.87882C12.9559 2.21356 13.2067 2.62277 13.353 3.073C13.5 3.525 13.5 4.083 13.5 5.2C13.5 6.42 13.5 7.031 13.166 7.444C13.1 7.52533 13.026 7.59933 12.944 7.666C12.531 8 11.921 8 10.7 8H7M14 15H8" stroke="black" stroke-width="1.5" stroke-linecap="round" stroke-linejoin="round"/>
<path d="M9 10C9 10 8.328 9.444 7.737 8.916C7.32 8.58 7 8.293 7 8.005C7 7.75 7.25 7.513 7.656 7.141C8.232 6.662 9 6 9 6" stroke="black" stroke-width="1.5" stroke-linecap="round" stroke-linejoin="round"/>
</svg>
